<svg id="Capa_1" enable-background="new 0 0 512 512" height="512" viewBox="0 0 512 512" width="512" xmlns="http://www.w3.org/2000/svg"><g><path d="m243.388 451.208 101.592-105.767-40.358-45.461c-10.812-37.787-35.136-50.447-75.614-48.244-19.292-34.029-38.445-49.089-62.625-45.461-11.547-25.26-31.937-39.714-57.986-37.587-7.148-20.708-18.677-27.989-41.286-27.358-14.029-13.628-42.861-21.296-42.861-21.296l-6.084 12.511c9.227 16.682 19.95 30.011 37.833 45.65 4.533 22.525 16.024 41.359 37.124 55.097.703 34.154 16.514 56.77 45.91 68.137 5.77 46.782 25.349 72.155 54.589 81.016 5.36 19.415 13.064 36.985 23.22 52.593z" fill="#ffc5dd"/><path d="m410.029 354.555c-21.055-36.558-55.6-52.807-97.567-58.474-10.812-37.788-37.218-54.553-77.696-52.351-19.292-34.029-41.344-47.777-65.524-44.149-11.547-25.26-29.058-39.259-55.107-37.131-7.149-20.708-21.952-30.656-44.561-30.025-14.029-13.629-33.458-19.161-55.937-31.526-4.453-2.449-9.471 2.118-7.45 6.78 4.03 9.295 7.855 17.415 11.978 24.867 4.96 2.734 9.462 5.737 13.407 9.57 17.537-.49 29.019 7.226 34.564 23.289 20.205-1.65 33.787 9.207 42.744 28.801 18.755-2.814 35.86 7.85 50.824 34.244 24.201-1.317 41.917 6.109 52.607 23.005 6.625 10.471 16.602 18.471 28.523 21.849 23.116 6.551 42.122 19.074 54.812 41.106 8.784 15.252 14.646 31.616 2.2 44.062l-69.312 69.312c-3.493 3.493-7.497 5.864-11.685 7.251 10.944 16.818 24.728 31.364 41.501 43.478.034.246.068.491.103.735 4.505 31.176 42.778 43.747 65.053 21.473l89.36-89.36c16.045-16.045 8.488-37.143-2.837-56.806z" fill="#ff94de"/><path d="m382.143 35.792-11.799 10.985c-13.194 37.84-22.924 67.355-64.02 78.237-35.467 9.391-63.715-9.703-92.427-32.545-24.867-19.784-75.678-52.844-97.504-60.104-35.16-11.696-79.781 11.535-95.433 35.121 46.884-5.136 69.376-3.88 100.76 10.588 19.368 8.929 54.748 41.005 71.902 53.678 25.783 19.049 50.27 31.557 93.072 36.323s73.245-19.356 85.706-33.789 20.67-34.072 32.984-64.275l9.355-26.929c1.094-3.147-1.189-6.45-4.52-6.539z" fill="#ffe35c"/><path d="m126.082 47.419c21.826 7.26 56.994 33.012 81.861 52.795 28.712 22.842 66.471 41.369 101.939 31.979 41.097-10.882 55.188-46.39 68.382-84.231l3.879-12.17-27.181-.727c-2.135-.057-4.069 1.269-4.775 3.285-9.538 27.243-19.821 48.982-44.481 61.586-14.578 7.452-32.588 2.397-47.357-4.67s-33.471-20.482-45.853-30.538c-20.878-16.954-36.373-27.856-60.049-40.613s-51.113-18.705-76.951-11.244c-26.018 7.513-48.383 27.247-58.674 50.462-.952 2.148.777 4.522 3.112 4.265.343-.038.685-.075 1.026-.113 21.085-22.432 69.962-31.762 105.122-20.066z" fill="#a2f4e3"/><g fill="#e866c0"><path d="m258.345 484.711c-.986 0-1.986-.235-2.915-.732-3.018-1.614-4.157-5.367-2.545-8.386 34.858-65.228 52.319-123.986 53.382-179.629.065-3.422 2.9-6.112 6.313-6.077 3.422.065 6.143 2.892 6.077 6.313-1.101 57.647-19.041 118.239-54.843 185.235-1.115 2.087-3.256 3.276-5.469 3.276z"/><path d="m193.615 388.644c-1.116 0-2.247-.303-3.266-.935-2.906-1.807-3.797-5.629-1.991-8.534 27.117-43.612 40.645-89.162 40.211-135.387-.032-3.422 2.716-6.222 6.138-6.255h.06c3.396 0 6.163 2.736 6.195 6.138.456 48.615-13.702 96.406-42.079 142.047-1.173 1.888-3.197 2.926-5.268 2.926z"/><path d="m139.03 307.626c-1.428 0-2.863-.491-4.031-1.494-2.598-2.228-2.897-6.14-.669-8.737 17.864-20.824 27.258-52.885 28.72-98.017.111-3.422 3.009-6.078 6.394-5.993 3.42.111 6.104 2.973 5.993 6.394-1.557 48.064-11.927 82.634-31.702 105.684-1.225 1.43-2.96 2.163-4.705 2.163z"/><path d="m94.59 234.522c-1.138 0-2.288-.314-3.32-.969-2.887-1.837-3.739-5.667-1.902-8.554 11.962-18.804 18.905-42.149 18.573-62.448-.056-3.422 2.673-6.242 6.093-6.297.035-.001.07-.001.104-.001 3.376 0 6.138 2.708 6.193 6.094.371 22.628-7.296 48.535-20.507 69.304-1.181 1.855-3.186 2.871-5.234 2.871z"/><path d="m57.241 180.219c-.584 0-1.177-.084-1.765-.258-3.281-.973-5.152-4.421-4.178-7.702l12.338-41.596c.973-3.281 4.423-5.151 7.702-4.178 3.281.973 5.152 4.421 4.178 7.702l-12.338 41.596c-.799 2.692-3.265 4.436-5.937 4.436z"/><path d="m357.015 372.572c-3.422 0-6.196-2.774-6.196-6.196v-8.505c0-3.422 2.774-6.196 6.196-6.196s6.196 2.774 6.196 6.196v8.505c0 3.421-2.775 6.196-6.196 6.196z"/><path d="m269.716 323.537c-3.422 0-6.196-2.774-6.196-6.196v-8.505c0-3.422 2.774-6.196 6.196-6.196s6.196 2.774 6.196 6.196v8.505c0 3.421-2.774 6.196-6.196 6.196z"/><path d="m341.861 422.514c-3.422 0-6.196-2.774-6.196-6.196v-8.505c0-3.422 2.774-6.196 6.196-6.196s6.196 2.774 6.196 6.196v8.505c0 3.421-2.774 6.196-6.196 6.196z"/></g><path d="m130.254 257.828c-3.834 0-7.516-2.144-9.301-5.826-1.965-4.053-3.59-8.416-4.833-12.967-1.503-5.501 1.74-11.18 7.241-12.682 5.504-1.505 11.181 1.74 12.683 7.242.909 3.326 2.085 6.489 3.495 9.401 2.487 5.132.343 11.309-4.79 13.796-1.45.704-2.985 1.036-4.495 1.036z" fill="#fff"/><path d="m183.084 339.804c-3.221 0-6.395-1.503-8.411-4.322-5.616-7.858-10.167-17.269-13.525-27.971-1.708-5.442 1.319-11.238 6.761-12.945 5.444-1.708 11.238 1.319 12.945 6.761 2.704 8.616 6.278 16.066 10.623 22.144 3.316 4.64 2.244 11.091-2.396 14.408-1.82 1.299-3.919 1.925-5.997 1.925z" fill="#fff"/><path d="m401.817 196.94-8.483 23.853c-.363 1.021-1.082 1.831-1.99 2.24l-21.193 9.548c-2.994 1.349-2.994 6.119 0 7.468l21.193 9.548c.907.409 1.626 1.218 1.99 2.24l8.483 23.853c1.198 3.37 5.437 3.37 6.635 0l8.483-23.853c.363-1.021 1.082-1.831 1.99-2.24l21.193-9.548c2.994-1.349 2.994-6.119 0-7.468l-21.193-9.548c-.907-.409-1.626-1.218-1.99-2.24l-8.483-23.853c-1.198-3.37-5.436-3.37-6.635 0z" fill="#ffc5dd"/><path d="m476.196 45.775-6.293 17.694c-.269.758-.803 1.358-1.476 1.661l-15.72 7.083c-2.221 1.001-2.221 4.539 0 5.54l15.72 7.083c.673.303 1.206.904 1.476 1.661l6.293 17.694c.889 2.499 4.033 2.499 4.922 0l6.293-17.694c.269-.757.803-1.358 1.476-1.661l15.72-7.083c2.221-1.001 2.221-4.539 0-5.54l-15.72-7.083c-.673-.303-1.206-.904-1.476-1.661l-6.293-17.694c-.889-2.5-4.033-2.5-4.922 0z" fill="#ffc5dd"/><path d="m256.185 18.524c0 10.23 8.293 18.523 18.523 18.523s18.523-8.293 18.523-18.523c0-10.231-8.293-18.524-18.523-18.524s-18.523 8.293-18.523 18.524z" fill="#ff8cc0"/><ellipse cx="491.733" cy="182.691" fill="#ff8cc0" rx="7.745" ry="7.745" transform="matrix(.707 -.707 .707 .707 14.843 401.216)"/></g></svg>