<svg xmlns="http://www.w3.org/2000/svg" viewBox="0 0 60 60">
  <path
    fill="#f6a4eb"
    d="M12 33c0-11 9-21 21-21h5l6-7 7 3-4 7h3c6 0 10 5 10 11 0 12-9 21-21 21h-9l-5 8-7-8h-4c-5 0-9-4-9-9 0-3 1-6 3-8z"
  />
  <path fill="#ffd166" d="M35 12l6-7 2 8-4 5z" />
  <circle cx="38.5" cy="29.5" r="2.5" fill="#2c2f38" />
  <path
    fill="#fff5f8"
    opacity=".6"
    d="M23 19c-7 3-11 11-11 18 0 4 3 7 7 7h5l7 8 3-8h9c9 0 15-7 15-15 0-5-4-9-9-9h-6l-3-5z"
  />
  <circle cx="39.8" cy="28.8" r="1" fill="#fff" />
  <path fill="#f9c8f0" d="M14 32c2-9 9-16 17-16h7l3 6c-7 1-12 5-15 11l-2 3h-7c-1 0-3-1-3-4z" />
  <path fill="#fcf1ff" d="M43 20l4-6 5 2-4 6z" />
</svg>
