<svg xmlns="http://www.w3.org/2000/svg" viewBox="0 0 60 60">
  <path
    fill="#f7c1ff"
    d="M12 34c0-12 9-22 21-22h5l6-7 7 4-4 6h4c6 0 9 5 9 11 0 12-9 21-21 21h-9l-4 7-7-7h-5c-5 0-9-4-9-9 0-3 1-6 3-8z"
  />
  <path fill="#ffda67" d="M35 12l7-7 1 8-5 5z" />
  <circle cx="38.5" cy="30.2" r="2.6" fill="#2c2f38" />
  <circle cx="39.6" cy="29.4" r="1" fill="#fff" />
  <path fill="#ffe5fa" opacity=".7" d="M21 22c-6 4-10 10-10 17 0 3 2 6 6 6h5l7 7 3-7h9c9 0 15-7 15-15 0-5-4-9-9-9h-6l-4-5z" />
  <path fill="#ff90cf" d="M14 34c2-9 9-16 17-16h6l4 6c-7 1-12 5-15 11l-2 3h-7c-1 0-3-1-3-4z" />
  <path fill="#fff3fb" d="M43 21l3-5 5 2-3 5z" />
  <path fill="#ffdeeb" d="M27 18c4 2 8 5 11 9 1 2-1 4-3 3-3-1-6 0-9 2l-3 2 1-5c1-4 1-8 3-11z" />
  <path
    fill="#ffd7f0"
    d="M49 36c1 0 2 1 2 2 0 2-2 4-4 4-1 0-2-1-2-2 0-2 2-4 4-4z"
  />
  <path fill="#fff3bf" d="M46 16l2-4 4 2-2 4z" />
</svg>
