<svg xmlns="http://www.w3.org/2000/svg" viewBox="0 0 60 60">
  <path
    fill="#f4b3ff"
    d="M11 34c0-11 9-22 21-22h6l5-6 6 3-3 6h4c6 0 10 5 10 11 0 12-9 21-21 21h-8l-4 7-8-7h-5c-5 0-9-4-9-9 0-3 1-6 3-8z"
  />
  <path fill="#ffb703" d="M36 12l6-7 2 8-4 5z" />
  <path fill="#ffe066" d="M47 12l2-4 5 3-4 5z" />
  <circle cx="38.2" cy="30.1" r="2.6" fill="#2c2f38" />
  <circle cx="39.4" cy="29.3" r="1" fill="#fff" />
  <path fill="#ffe9fb" opacity=".7" d="M19 21c-6 4-10 11-10 18 0 3 2 6 6 6h5l8 8 3-8h8c9 0 15-7 15-15 0-5-4-9-9-9h-6l-4-5z" />
  <path fill="#ff8cc6" d="M14 35c2-10 9-17 17-17h6l4 6c-8 1-13 5-16 12l-1 3h-7c-1 0-3-1-3-4z" />
  <path
    fill="#fff1fb"
    d="M28 18c4 2 8 4 11 9 1 2-1 4-3 3-3-2-6-1-9 1l-3 2 1-5c1-4 1-7 3-10z"
  />
  <path fill="#fde68a" d="M41 26l2-4 4 2-2 4z" />
</svg>
