<?xml version="1.0" encoding="UTF-8"?><svg id="Layer_1" xmlns="http://www.w3.org/2000/svg" viewBox="0 0 773.78 700"><defs><style>.cls-1{fill:none;stroke:#fff;stroke-miterlimit:10;stroke-width:5px;}.cls-2{fill:#ff69b4;}</style></defs><rect class="cls-2" width="773.78" height="700" rx="92.74" ry="92.74"/><path class="cls-1" d="M468.07,239.08c3.06,3.4,5.17,7.62,5.77,12.26.1.81.12,1.63.12,2.44v256.94c0,1.29-.07,2.59-.31,3.87-1.75,9.26-9.56,17.06-18.81,18.8-1.27.24-2.57.31-3.86.31H110.36c-.76,0-1.52,0-2.27-.1-8.49-1.08-16.14-8.54-19.08-16.78-.88-2.45-1.23-5.06-1.23-7.67v-253.8c0-1.43.09-2.86.37-4.27,1.86-9.43,9.16-17.83,18.66-19.65,1.3-.25,2.62-.32,3.94-.32l339.56.3c6.73,0,13.27,2.67,17.77,7.67ZM220.36,437.96c42.27,43.95,116.92,29.77,139.36-26.76,21.22-53.47-14.28-112.92-71.48-118.12-77.87-7.08-121.73,88.9-67.88,144.88Z"/><path class="cls-1" d="M170.73,231.1v-78.96c0-3.74,3.04-6.78,6.78-6.78h206.71c3.74,0,6.78,3.04,6.78,6.78v78.96h-19.54v-46.98c0-3.73-3.01-6.76-6.74-6.78l-167.62-1.01c-3.76-.02-6.82,3.02-6.82,6.78v47.99h-19.55Z"/><rect class="cls-1" x="576.8" y="293.64" width="51.53" height="167.76"/><rect class="cls-1" x="646.31" y="293.64" width="53.72" height="167.76"/><path class="cls-1" d="M474.35,315.92c1.65-3.87,42.96-18.49,50.02-22.28h34.44v167.76h-34.44s-48-19.73-48-19.73l-2.4-3.27s.39-122.35.39-122.49Z"/><path class="cls-1" d="M576.8,461.4v4.07c0,1.85-1.5,3.35-3.35,3.35h-11.28c-1.85,0-3.35-1.5-3.35-3.35v-4.07"/><path class="cls-1" d="M558.81,293.64v-2.02c0-1.85,1.5-3.35,3.35-3.35h11.28c1.85,0,3.35,1.5,3.35,3.35v2.02"/><path class="cls-1" d="M628.33,293.64v-3.05c0-1.85,1.5-3.35,3.35-3.35h11.28c1.85,0,3.35,1.5,3.35,3.35v3.05"/><path class="cls-1" d="M646.31,461.4v3.05c0,1.85-1.5,3.35-3.35,3.35h-11.28c-1.85,0-3.35-1.5-3.35-3.35v-3.05"/><polygon class="cls-1" points="287.38 369.62 313.25 369.62 273.2 439.77 283.68 388.75 252.88 388.75 297.86 317.32 287.38 369.62"/><rect class="cls-1" x="61.37" y="260.1" width="26.4" height="244.6" rx="6.58" ry="6.58" transform="translate(149.15 764.8) rotate(180)"/><rect class="cls-1" x="46.57" y="330.23" width="14.8" height="67.49" transform="translate(107.94 727.95) rotate(180)"/><rect class="cls-1" x="46.57" y="477.3" width="14.8" height="14.8" transform="translate(107.94 969.4) rotate(-180)"/><circle class="cls-1" cx="412.37" cy="477.3" r="15.87"/><path class="cls-1" d="M120.15,188.24h1.17c3.24,0,5.87,2.63,5.87,5.87v35.75c0,.69-.56,1.24-1.24,1.24h-10.44c-.69,0-1.24-.56-1.24-1.24v-35.75c0-3.24,2.63-5.87,5.87-5.87Z"/></svg>