<?xml version="1.0" encoding="iso-8859-1"?>
<!-- Generator: Adobe Illustrator 19.0.0, SVG Export Plug-In . SVG Version: 6.00 Build 0)  -->
<svg version="1.1" id="Capa_1" xmlns="http://www.w3.org/2000/svg" xmlns:xlink="http://www.w3.org/1999/xlink" x="0px" y="0px"
	 viewBox="0 0 322.4 322.4" style="enable-background:new 0 0 322.4 322.4;" xml:space="preserve">
<g>
	<g>
		<path d="M230.6,91.2C219,78.8,203,70.4,185,66.8V55.2c0-6-2.4-11.2-6.4-15.2c-2.4-2.4-6-4-9.6-5.2V7.6c0-4-3.2-7.6-7.6-7.6
			c-4,0-7.6,3.2-7.6,7.6v27.2c-3.6,1.2-6.8,2.4-9.6,5.2c-4,4-6.4,9.2-6.4,15.2v11.6c-17.6,3.2-33.6,12-46,24.4
			c-16,16-26,38.4-26,62.4V234c0,24.4,10,46.4,26,62.4s38.4,26,62.4,26h14c24.4,0,46.4-10,62.4-26s26-38.4,26-62.4v-80.4
			C256.6,129.2,246.6,107.2,230.6,91.2z M155.4,50.4c1.2-1.2,2.8-2,4.8-2h3.6c2,0,3.6,0.8,4.8,2c1.2,1.2,2,2.8,2,4.8v10
			c-2.8,0-5.6,0-8.4,0c-2.8,0-5.6,0-8.4,0v-10h-0.4C153.4,53.2,154.2,51.6,155.4,50.4z M167,112.4v35.2c0,1.2-0.4,2.4-1.6,3.6
			c-0.8,0.8-2,1.6-3.6,1.6c-1.2,0-2.4-0.4-3.6-1.6c-0.8-0.8-1.6-2-1.6-3.6v-35.2c0-1.2,0.4-2.4,1.6-3.6c0.8-0.8,2-1.6,3.6-1.6
			c1.2,0,2.4,0.8,3.6,1.6C166.2,110,167,111.2,167,112.4z M81.4,153.6c-0.4-20,8-38.4,21.6-52C116.2,88.4,134.6,80,154.6,80v14
			c-2.4,1.2-4.8,2.4-6.4,4.4c-3.6,3.6-5.6,8.4-5.6,14v35.2c0,5.6,2.4,10.4,5.6,14c2,2,4,3.2,6.4,4.4v14H111H81.4V153.6z
			 M242.2,234.4c0.4,20-8,38.8-21.6,52c-13.2,13.2-32,21.6-52,21.6h-14c-20.4,0-38.8-8.4-52-21.6s-21.6-32-21.6-52v-40h29.6h51.2
			h80.4V234.4z M242.6,179.6h-73.2v-14c2.4-1.2,4.8-2.4,6.4-4.4c3.6-3.6,5.6-8.4,5.6-14V112c0-5.2-2-10-5.2-13.6l-0.4-0.4
			c-2-2-4-3.2-6.4-4.4v-14c20,0,38.4,8.4,51.6,21.6c13.2,13.2,21.6,32,21.6,52V179.6z"/>
	</g>
</g>
<g>
</g>
<g>
</g>
<g>
</g>
<g>
</g>
<g>
</g>
<g>
</g>
<g>
</g>
<g>
</g>
<g>
</g>
<g>
</g>
<g>
</g>
<g>
</g>
<g>
</g>
<g>
</g>
<g>
</g>
</svg>
