<?xml version="1.0" encoding="iso-8859-1"?>
<!-- Generator: Adobe Illustrator 19.0.0, SVG Export Plug-In . SVG Version: 6.00 Build 0)  -->
<svg version="1.1" id="Capa_1" xmlns="http://www.w3.org/2000/svg" xmlns:xlink="http://www.w3.org/1999/xlink" x="0px" y="0px"
	 viewBox="0 0 368 368" style="enable-background:new 0 0 368 368;" xml:space="preserve">
<g>
	<g>
		<path d="M316,76.6H48.8c-4,0-7.6,3.2-7.6,7.6V251c0.4,4,3.6,7.2,7.6,7.2H316c4,0,7.6-3.2,7.6-7.6V84.2
			C323.6,80.2,320.4,76.6,316,76.6z M308.8,243.4H56.4v-152h252.4V243.4z"/>
	</g>
</g>
<g>
	<g>
		<path d="M360.4,267H348c0.8-2.4,1.6-4.4,1.6-7.2V73c0-6-2.4-11.6-6.4-15.6s-9.6-6.4-15.6-6.4h-290c-6,0-11.6,2.4-15.6,6.4
			S15.6,67,15.6,73v186.4c0,2.4,0.8,4.8,1.6,7.2H7.6c-4,0-7.6,3.2-7.6,7.6c0,11.6,4.8,22.4,12.4,30.4C20,312.2,30.8,317,42.8,317
			h282c11.6,0,22.4-4.8,30.4-12.4c7.6-7.6,12.8-18.4,12.8-30.4C368,270.2,364.8,267,360.4,267z M32.4,68.2c1.2-1.2,3.2-2,4.8-2h290
			c2,0,3.6,0.8,4.8,2c1.2,1.2,2,3.2,2,4.8v186.4c0,2-0.8,3.6-2,4.8s-3.2,2-4.8,2H37.6c-2,0-3.6-0.8-4.8-2s-2-3.2-2-4.8V73h-0.4
			C30.4,71,31.2,69.4,32.4,68.2z M344.8,294.2c-5.2,5.2-12,8.4-20,8.4h-282c-7.6,0-14.8-3.2-19.6-8.4c-3.2-3.2-6-7.6-7.2-12.4h336
			C350.8,286.6,348.4,290.6,344.8,294.2z"/>
	</g>
</g>
<g>
</g>
<g>
</g>
<g>
</g>
<g>
</g>
<g>
</g>
<g>
</g>
<g>
</g>
<g>
</g>
<g>
</g>
<g>
</g>
<g>
</g>
<g>
</g>
<g>
</g>
<g>
</g>
<g>
</g>
</svg>
