<?xml version="1.0" encoding="iso-8859-1"?>
<!-- Generator: Adobe Illustrator 19.0.0, SVG Export Plug-In . SVG Version: 6.00 Build 0)  -->
<svg version="1.1" id="Capa_1" xmlns="http://www.w3.org/2000/svg" xmlns:xlink="http://www.w3.org/1999/xlink" x="0px" y="0px"
	 viewBox="0 0 312 312" style="enable-background:new 0 0 312 312;" xml:space="preserve">
<g>
	<g>
		<path d="M218.585,86.8h-11.6V7.6c0-4-3.2-7.6-7.6-7.6h-86.4c-4,0-7.6,3.2-7.6,7.6v79.2h-11.6c-4,0-7.6,3.2-7.6,7.6v70.8
			c0,17.6,7.2,33.2,18.8,44.8c11.2,11.2,26.8,18.4,44,18.4v76.4c0,4,3.2,7.2,7.2,7.2s7.2-3.2,7.2-7.2v-76.4
			c17.2-0.4,32.4-7.2,43.6-18.4c11.6-11.6,18.8-27.2,18.8-44.8V94.4C226.185,90.4,222.585,86.8,218.585,86.8z M120.185,15.2h72v71.6
			h-72V15.2z M196.985,199.6c-8.8,8.8-20.8,14.4-34.4,14.4h-12.8c-13.2,0-25.6-5.6-34.4-14.4s-14.4-20.8-14.4-34.4v-63.6h11.6h86.4
			h11.6v63.6h0.8C211.385,178.4,205.785,190.8,196.985,199.6z"/>
	</g>
</g>
<g>
	<g>
		<path d="M144.185,39.6h-8.4c-4,0-7.2,3.2-7.2,7.2v8.4c0,4,3.2,7.2,7.2,7.2h8.4c4,0,7.2-3.2,7.2-7.2v-8.4
			C151.385,42.8,148.185,39.6,144.185,39.6z"/>
	</g>
</g>
<g>
	<g>
		<path d="M176.585,39.6h-8.4c-4,0-7.2,3.2-7.2,7.2v8.4c0,4,3.2,7.2,7.2,7.2h8.4c4,0,7.2-3.2,7.2-7.2v-8.4
			C183.785,42.8,180.585,39.6,176.585,39.6z"/>
	</g>
</g>
<g>
</g>
<g>
</g>
<g>
</g>
<g>
</g>
<g>
</g>
<g>
</g>
<g>
</g>
<g>
</g>
<g>
</g>
<g>
</g>
<g>
</g>
<g>
</g>
<g>
</g>
<g>
</g>
<g>
</g>
</svg>
