<?xml version="1.0" encoding="iso-8859-1"?>
<!-- Generator: Adobe Illustrator 19.0.0, SVG Export Plug-In . SVG Version: 6.00 Build 0)  -->
<svg version="1.1" id="Capa_1" xmlns="http://www.w3.org/2000/svg" xmlns:xlink="http://www.w3.org/1999/xlink" x="0px" y="0px"
	 viewBox="0 0 328.4 328.4" style="enable-background:new 0 0 328.4 328.4;" xml:space="preserve">
<g>
	<g>
		<path d="M300.4,98.2c-16.8-16.8-40.4-27.6-66-27.6H93.6c-25.6,0-48.8,10.4-66,27.6C10.8,115,0,138.6,0,164.2
			c0,25.6,10.4,49.2,27.6,66c16.8,16.8,40.4,27.6,66,27.6h141.2c25.6,0,49.2-10.4,66-27.6c16.8-16.8,27.6-40.4,27.6-66
			C328,138.6,317.2,115,300.4,98.2z M290,219.8c-14.4,14.4-34,23.2-55.6,23.2H93.6c-21.6,0-41.2-8.8-55.6-23.2
			c-14.4-14.4-23.2-34-23.2-55.6c0-21.6,8.8-41.2,23.2-55.6c14.4-14.4,34-23.2,55.6-23.2h141.2c21.6,0,41.2,8.8,55.6,23.2
			c14.4,14.4,23.2,34,23.2,55.6C313.2,185.8,304,205.4,290,219.8z"/>
	</g>
</g>
<g>
	<g>
		<path d="M247.6,95.4H80.4c-4,0-7.6,3.2-7.6,7.6v122.8c0,4,3.2,7.6,7.6,7.6h166.8c4,0,7.6-3.2,7.6-7.6V102.6
			C254.8,98.6,251.6,95.4,247.6,95.4z M240,218.2H88v-108h152V218.2z"/>
	</g>
</g>
<g>
	<g>
		<path d="M52.8,154.2h-2.4v-2.4c0-4-3.2-7.6-7.6-7.6c-4,0-7.6,3.2-7.6,7.6v2.4h-2.4c-4,0-7.6,3.2-7.6,7.6c0,4,3.2,7.6,7.6,7.6h2.4
			v2.4c0,4,3.2,7.6,7.6,7.6c4,0,7.6-3.2,7.6-7.6v-2.4h2.4c4,0,7.6-3.2,7.6-7.6C60.4,157.8,56.8,154.2,52.8,154.2z"/>
	</g>
</g>
<g>
	<g>
		<circle cx="282" cy="150.2" r="6.8"/>
	</g>
</g>
<g>
	<g>
		<circle cx="282" cy="178.2" r="6.8"/>
	</g>
</g>
<g>
	<g>
		<circle cx="268" cy="164.2" r="6.8"/>
	</g>
</g>
<g>
	<g>
		<circle cx="296" cy="164.2" r="6.8"/>
	</g>
</g>
<g>
</g>
<g>
</g>
<g>
</g>
<g>
</g>
<g>
</g>
<g>
</g>
<g>
</g>
<g>
</g>
<g>
</g>
<g>
</g>
<g>
</g>
<g>
</g>
<g>
</g>
<g>
</g>
<g>
</g>
</svg>
