<?xml version="1.0" encoding="iso-8859-1"?>
<!-- Generator: Adobe Illustrator 19.0.0, SVG Export Plug-In . SVG Version: 6.00 Build 0)  -->
<svg version="1.1" id="Capa_1" xmlns="http://www.w3.org/2000/svg" xmlns:xlink="http://www.w3.org/1999/xlink" x="0px" y="0px"
	 viewBox="0 0 334 334" style="enable-background:new 0 0 334 334;" xml:space="preserve">
<g>
	<g>
		<path d="M327.6,84.4c-4-4-9.6-6.4-15.6-6.4h-74l11.2-11.2l0.4-0.4C254,61.6,256,55.6,256,50c0-6-2.4-12.4-7.2-17.2
			c-4.8-4.8-10.8-7.2-17.2-7.2c-6,0-12.4,2.4-17.2,7.2L169.6,78H22c-6,0-11.6,2.4-15.6,6.4S0,94,0,100v186.4c0,6,2.4,11.6,6.4,15.6
			c4.4,4,9.6,6.4,15.6,6.4h290c6,0,11.6-2.4,15.6-6.4s6.4-9.6,6.4-15.6V100C334,94,331.6,88.4,327.6,84.4z M225.6,43.2
			c1.6-1.6,4-2.8,6.4-2.8c2.4,0,4.8,0.8,6.4,2.8c1.6,1.6,2.8,4,2.8,6.4c0,2.4-0.8,4.4-2.4,6.4c0,0-0.4,0-0.4,0.4l-24,24l-88,88.4
			l-24,10.8l10.8-24L225.6,43.2z M258.8,294H22c-2,0-3.6-0.8-4.8-2s-2-3.6-2-5.2V100c0-2,0.8-3.6,2-4.8s3.2-2,4.8-2h132.8L101.6,146
			v0.4c-0.4,0.4-0.8,1.2-1.2,2l-19.6,43.2c-0.8,1.6-0.8,3.6,0,5.2v0.4v0.4c0.4,0.8,1.2,1.2,2,1.6c0.8,0.8,0.8,1.6,2,2h0.4h0.4
			c1.6,0.4,3.6,0.4,5.2,0l43.2-19.6c0.8-0.4,1.2-0.8,2-1.2h0.4l86.8-87.2h35.6V294z M319.2,286.4c0,2-0.8,3.6-2,4.8s-3.2,2-4.8,2
			h-38.8v-200h38.8c1.6,0,3.6,0.4,4.8,2c1.2,1.2,2,3.2,2,4.8V286.4z"/>
	</g>
</g>
<g>
	<g>
		<circle cx="296" cy="193.2" r="9.6"/>
	</g>
</g>
<g>
</g>
<g>
</g>
<g>
</g>
<g>
</g>
<g>
</g>
<g>
</g>
<g>
</g>
<g>
</g>
<g>
</g>
<g>
</g>
<g>
</g>
<g>
</g>
<g>
</g>
<g>
</g>
<g>
</g>
</svg>
