<?xml version="1.0" encoding="iso-8859-1"?>
<!-- Generator: Adobe Illustrator 19.0.0, SVG Export Plug-In . SVG Version: 6.00 Build 0)  -->
<svg version="1.1" id="Capa_1" xmlns="http://www.w3.org/2000/svg" xmlns:xlink="http://www.w3.org/1999/xlink" x="0px" y="0px"
	 viewBox="0 0 304 304" style="enable-background:new 0 0 304 304;" xml:space="preserve">
<g>
	<g>
		<path d="M296.2,87.6c4,0,7.6-3.2,7.6-7.6V56.4c-0.4-4-3.6-7.2-8-7.2h-22.4c-0.8-5.2-2.8-9.6-6-13.2c-3.6-3.6-8-5.6-13.2-6V7.6
			c0-4-3.2-7.6-7.6-7.6H223c-4,0-7.6,3.2-7.6,7.6v21.6h-16.8V7.6c0-4-3.2-7.6-7.6-7.6h-23.2c-4,0-7.6,3.2-7.6,7.6v21.6h-16.8V7.6
			c0-4-3.2-7.6-7.6-7.6h-23.6c-4,0-7.6,3.2-7.6,7.6v21.6H87.8V7.6c0-4-3.2-7.6-7.6-7.6H56.6c-4,0-7.6,3.2-7.6,7.6V30
			c-4.8,0.8-9.2,2.4-12.8,5.6L35.8,36c-3.6,3.6-5.6,8-6.4,13.2H7.8c-4,0-7.6,3.2-7.6,7.6v23.6c0,4,3.2,7.6,7.6,7.6h21.6v16.8H7.8
			c-4,0-7.6,3.2-7.6,7.6v23.2c0,4,3.2,7.6,7.6,7.6h21.6V160H7.8c-4,0-7.6,3.2-7.6,7.6v23.6c0,4,3.2,7.6,7.6,7.6h21.6v16.8H7.8
			c-4,0-7.6,3.2-7.6,7.6v23.6c0,4,3.2,7.6,7.6,7.6h22.4c0.8,5.2,2.8,9.6,6.4,13.2c3.6,3.6,8,5.6,13.2,6.4v22.4c0,4,3.2,7.6,7.6,7.6
			H81c4,0,7.6-3.2,7.6-7.6v-21.6h16.8v21.6c0,4,3.2,7.6,7.6,7.6h22.8c4,0,7.6-3.2,7.6-7.6v-21.6h16.8v21.6c0,4,3.2,7.6,7.6,7.6h23.6
			c4,0,7.6-3.2,7.6-7.6v-21.6h16.8v21.6c0,4,3.2,7.6,7.6,7.6H247c4,0,7.6-3.2,7.6-7.6V274c5.2-0.8,9.6-2.8,13.2-6.4
			c3.6-3.6,5.6-8,6-13.2h22.4c4,0,7.6-3.2,7.6-7.6v-23.6c0-4-3.2-7.6-7.6-7.6h-21.6v-16.8h21.6c4,0,7.6-3.2,7.6-7.6v-23.6
			c0-4-3.2-7.6-7.6-7.6h-21.6v-16.8h21.6c4,0,7.6-3.2,7.6-7.6V112c0-4-3.2-7.6-7.6-7.6h-21.6V87.6H296.2z M29.4,239.2H15v-8.8h14.4
			V239.2z M29.4,183.6H15v-8.8h14.4V183.6z M29.4,128.4H15v-8.8h14.4V128.4z M29.4,72.8H15V64h14.4V72.8z M230.6,14.8h8.8v14.4h-8.8
			V14.8z M175,14.8h8.8v14.4H175V14.8z M119.8,14.8h8.8v14.4h-8.8V14.8z M64.2,14.8H73v14.4h-8.8V14.8z M73,288.4h-8.8V274H73V288.4
			z M128.6,288.4h-8.8V274h8.8V288.4z M183.8,288.4H175V274h8.8V288.4z M239.4,288.4h-8.8V274h8.8V288.4z M259.4,250.8
			c0,2.4-0.8,4.4-2.4,6c-1.6,1.6-3.6,2.4-6,2.4H52.6c-2.4,0-4.4-0.8-6-2.4c-1.6-1.6-2.4-3.6-2.4-6V52.4c0-2.4,0.8-4.4,2.4-6
			c0,0,0,0,0.4-0.4c1.6-1.2,3.6-2.4,5.6-2.4H251c2.4,0,4.4,0.8,6,2.4c1.6,1.6,2.4,3.6,2.4,6V250.8z M288.6,230.4v8.8h-14.4v-8.8
			H288.6z M288.6,174.8v8.8h-14.4v-8.8H288.6z M288.6,119.6v8.8h-14.4v-8.8H288.6z M274.2,72.8V64h14.4v8.8H274.2z"/>
	</g>
</g>
<g>
</g>
<g>
</g>
<g>
</g>
<g>
</g>
<g>
</g>
<g>
</g>
<g>
</g>
<g>
</g>
<g>
</g>
<g>
</g>
<g>
</g>
<g>
</g>
<g>
</g>
<g>
</g>
<g>
</g>
</svg>
