<?xml version="1.0" encoding="iso-8859-1"?>
<!-- Generator: Adobe Illustrator 19.0.0, SVG Export Plug-In . SVG Version: 6.00 Build 0)  -->
<svg version="1.1" id="Capa_1" xmlns="http://www.w3.org/2000/svg" xmlns:xlink="http://www.w3.org/1999/xlink" x="0px" y="0px"
	 viewBox="0 0 289.6 289.6" style="enable-background:new 0 0 289.6 289.6;" xml:space="preserve">
<g>
	<g>
		<path d="M279.6,69.4c-4.8-4.8-10.8-8-17.6-9.2V48.6c0-4.4-2-8.4-4.8-11.6c-2.8-2.8-7.2-4.8-11.6-4.8h-14.8c-4.4,0-8.4,2-11.6,4.8
			c-2.8,2.8-4.8,7.2-4.8,11.6v10.8h-16.8V39.8c0-5.6-2.4-10.8-6-14.4l-0.4-0.4c-3.6-3.6-8.8-5.6-14-5.6h-64.4
			c-5.6,0-10.8,2.4-14.4,6c-3.6,3.6-6,8.8-6,14.4v19.6H34c-9.2,0-17.6,4-24,10c-6,6-10,14.4-10,24v142.8c0,9.2,4,17.6,10,24
			c6,6,14.4,10,24,10h221.6c9.2,0,17.6-4,24-10c6-6,10-14.4,10-24V93.4C289.6,84.2,285.6,75.8,279.6,69.4z M228.8,48.6
			c0-0.4,0-0.8,0.4-1.2c0.4-0.4,0.8-0.4,1.2-0.4h14.8c0.4,0,0.8,0,1.2,0.4c0.4,0.4,0.4,0.8,0.4,1.2v10.8h-18V48.6z M106.8,39.8
			c0-1.6,0.8-3.2,1.6-4c1.2-1.2,2.4-1.6,4-1.6h64c1.6,0,2.8,0.4,4,1.6l0.4,0.4c1.2,1.2,1.6,2.4,1.6,4v19.6h-75.6V39.8z M274.4,236.2
			c0,5.2-2,10-5.6,13.6c-3.6,3.6-8,5.6-13.6,5.6H34c-5.2,0-10-2-13.6-5.6c-3.6-3.6-5.6-8-5.6-13.6V93.4c0-5.2,2-10,5.6-13.6
			c3.6-3.6,8-5.6,13.6-5.6h65.6H190h31.6h32.8h1.2c5.2,0,10,2,13.6,5.6c3.2,3.6,5.2,8.4,5.2,13.6V236.2z"/>
	</g>
</g>
<g>
	<g>
		<path d="M194,115.8c-12.8-12.8-30-20.4-49.2-20.4s-36.4,7.6-49.2,20.4c-12.4,12.4-20.4,30-20.4,49.2c0,19.2,7.6,36.4,20.4,49.2
			c12.4,12.4,30,20.4,49.2,20.4s36.4-7.6,49.2-20.4c12.4-12.4,20.4-30,20.4-49.2S206.8,128.6,194,115.8z M183.6,203.4
			c-10,10-23.6,16-38.8,16s-28.8-6-38.8-16s-16-23.6-16-38.8c0-15.2,6-28.8,16-38.8s23.6-16,38.8-16s28.8,6,38.8,16s16,23.6,16,38.8
			S193.2,193.4,183.6,203.4z"/>
	</g>
</g>
<g>
	<g>
		<circle cx="44.8" cy="102.6" r="14"/>
	</g>
</g>
<g>
</g>
<g>
</g>
<g>
</g>
<g>
</g>
<g>
</g>
<g>
</g>
<g>
</g>
<g>
</g>
<g>
</g>
<g>
</g>
<g>
</g>
<g>
</g>
<g>
</g>
<g>
</g>
<g>
</g>
</svg>
