<?xml version="1.0" encoding="iso-8859-1"?>
<!-- Generator: Adobe Illustrator 19.0.0, SVG Export Plug-In . SVG Version: 6.00 Build 0)  -->
<svg version="1.1" id="Capa_1" xmlns="http://www.w3.org/2000/svg" xmlns:xlink="http://www.w3.org/1999/xlink" x="0px" y="0px"
	 viewBox="0 0 323.2 323.2" style="enable-background:new 0 0 323.2 323.2;" xml:space="preserve">
<g>
	<g>
		<path d="M250.6,4c-4.4-3.2-9.6-4-16.8-4H84.6C79.4,0,75,2,71.4,5.6c-3.2,3.2-5.6,8-5.6,13.2v285.6c0,5.2,2,9.6,5.6,13.2
			c3.2,3.2,8,5.6,13.2,5.6h154c5.2,0,9.6-2,13.2-5.6c3.2-3.2,5.6-8,5.6-13.2v-282C257.4,13.2,255.4,7.6,250.6,4z M242.2,304.4
			c0,1.2-0.4,2-1.2,2.4c-0.8,0.8-1.6,1.2-2.4,1.2h-154c-1.2,0-2-0.4-2.8-1.2c-0.8-0.8-1.2-1.6-1.2-2.4V18.8c0-1.2,0.4-2,1.2-2.4
			c0.8-0.8,1.6-1.2,2.4-1.2h149.2c4,0,6.8,0,8,0.8c0.8,0.4,0.8,2.4,0.8,6.4V304.4z"/>
	</g>
</g>
<g>
	<g>
		<path d="M221.4,35.6c-3.2-3.2-7.2-4.8-12-4.8h-95.6c-4.8,0-8.8,2-12,4.8c-3.2,3.2-4.8,7.2-4.8,12v100c0,4.8,1.6,8.8,4.8,12
			c3.2,3.2,7.2,4.8,12,4.8h95.6c4.8,0,8.8-2,12-4.8c3.2-3.2,4.8-7.2,4.8-12v-100C226.2,42.8,224.2,38.8,221.4,35.6z M210.6,147.6
			c0,0.4-0.4,1.2-0.4,1.2c0,0.8-0.4,0.8-1.2,0.8h-95.2c-0.4,0-1.2-0.4-1.2-0.4c-0.4-0.4-0.4-0.8-0.4-1.2V47.6h-0.4
			c0-0.4,0.4-1.2,0.4-1.2c0.4-0.4,0.8-0.4,1.2-0.4H209c0.4,0,1.2,0.4,1.2,0.4c0.4,0.4,0.4,0.8,0.4,1.2V147.6z"/>
	</g>
</g>
<g>
	<g>
		<path d="M203,191.6c-10.8-10.4-25.2-17.2-41.6-17.2c-16.4,0-30.8,6.4-41.6,17.2c-10.8,10.8-17.2,25.2-17.2,41.6
			c0,16.4,6.4,30.8,17.2,41.6c10.8,10.8,25.2,17.2,41.6,17.2s30.8-6.4,41.6-17.2c10.8-10.8,17.2-25.2,17.2-41.6
			C220.2,216.8,213.8,202.4,203,191.6z M192.6,264.4c-8,8-18.8,12.8-31.2,12.8c-12,0-23.2-4.8-31.2-12.8s-12.8-18.8-12.8-31.2
			c0-12,4.8-23.2,12.8-31.2s18.8-12.8,31.2-12.8c12,0,23.2,4.8,31.2,12.8s12.8,18.8,12.8,31.2S200.6,256.8,192.6,264.4z"/>
	</g>
</g>
<g>
	<g>
		<path d="M175.8,218.8c-3.6-3.6-8.8-6-14.4-6c-5.6,0-10.8,2.4-14.4,6c-3.6,3.6-6,8.8-6,14.4c0,5.6,2.4,10.8,6,14.4
			c3.6,3.6,8.8,6,14.4,6c5.6,0,10.8-2.4,14.4-6c3.6-3.6,6-8.8,6-14.4C181.8,228,179.8,222.8,175.8,218.8z M165.4,237.6
			c-1.2,1.2-2.4,1.6-4,1.6c-1.6,0-3.2-0.8-4-1.6c-1.2-1.2-1.6-2.4-1.6-4c0-1.6,0.8-3.2,1.6-4c1.2-1.2,2.4-1.6,4-1.6
			c1.6,0,3.2,0.8,4,1.6c1.2,1.2,1.6,2.4,1.6,4C167,235.2,166.6,236.4,165.4,237.6z"/>
	</g>
</g>
<g>
</g>
<g>
</g>
<g>
</g>
<g>
</g>
<g>
</g>
<g>
</g>
<g>
</g>
<g>
</g>
<g>
</g>
<g>
</g>
<g>
</g>
<g>
</g>
<g>
</g>
<g>
</g>
<g>
</g>
</svg>
