<?xml version="1.0" encoding="iso-8859-1"?>
<!-- Generator: Adobe Illustrator 19.0.0, SVG Export Plug-In . SVG Version: 6.00 Build 0)  -->
<svg version="1.1" id="Capa_1" xmlns="http://www.w3.org/2000/svg" xmlns:xlink="http://www.w3.org/1999/xlink" x="0px" y="0px"
	 viewBox="0 0 254.9 254.9" style="enable-background:new 0 0 254.9 254.9;" xml:space="preserve">
<g>
	<g>
		<path d="M237.3,151.7l-112-112c-2.8-2.8-7.6-2.8-10.4,0l-9.2,9.2L58.5,2.1c-2.8-2.8-7.6-2.8-10.4,0l-46,46
			c-2.8,2.8-2.8,7.6,0,10.4l46.8,47.2l-9.2,9.2c-2.8,2.8-2.8,7.6,0,10.4l112,112c11.6,11.6,27.2,17.6,42.8,17.6
			c15.6,0,30.8-6,42.8-17.6c11.6-11.6,17.6-27.2,17.6-42.8C254.9,178.9,248.9,163.7,237.3,151.7z M17.7,53.3l35.6-35.6l41.6,41.6
			L59.3,94.9L17.7,53.3z M226.5,226.5c-8.8,8.8-20.4,13.2-32,13.2c-11.6,0-23.2-4.4-32-13.2L55.7,119.7l9.2-9.2l46-46l8.8-8.8
			l106.8,106.8c8.8,8.8,13.2,20.4,13.2,32C239.7,206.1,235.3,217.7,226.5,226.5z"/>
	</g>
</g>
<g>
	<g>
		<path d="M80.1,54.1L58.9,32.9c-2.8-2.8-7.6-2.8-10.4,0c-2.8,2.8-2.8,7.6,0,10.4l21.2,21.2c2.8,2.8,7.6,2.8,10.4,0
			C82.9,61.7,82.9,56.9,80.1,54.1z"/>
	</g>
</g>
<g>
	<g>
		<path d="M64.5,69.7L43.3,48.5c-2.8-2.8-7.6-2.8-10.4,0c-2.8,2.8-2.8,7.6,0,10.4l21.2,21.2c2.8,2.8,7.6,2.8,10.4,0
			C67.3,77.3,67.3,72.5,64.5,69.7z"/>
	</g>
</g>
<g>
</g>
<g>
</g>
<g>
</g>
<g>
</g>
<g>
</g>
<g>
</g>
<g>
</g>
<g>
</g>
<g>
</g>
<g>
</g>
<g>
</g>
<g>
</g>
<g>
</g>
<g>
</g>
<g>
</g>
</svg>
