<?xml version="1.0" encoding="iso-8859-1"?>
<!-- Generator: Adobe Illustrator 19.0.0, SVG Export Plug-In . SVG Version: 6.00 Build 0)  -->
<svg version="1.1" id="Capa_1" xmlns="http://www.w3.org/2000/svg" xmlns:xlink="http://www.w3.org/1999/xlink" x="0px" y="0px"
	 viewBox="0 0 280.4 280.4" style="enable-background:new 0 0 280.4 280.4;" xml:space="preserve">
<g>
	<g>
		<path d="M115.215,9.2c-5.6-5.6-13.6-9.2-22.4-9.2h-22.8c-15.2,0-28.8,6-38.8,16s-16,23.6-16,38.8V162c-0.4,8.8,3.2,16.8,9.2,22.4
			c4,4,9.2,6.8,14.8,8.4v79.6c0,4,3.2,7.6,7.6,7.6c4,0,7.6-3.2,7.6-7.6v-80c5.6-1.2,10.8-3.6,14.8-7.6l0.4-0.4
			c5.6-5.6,9.2-13.6,9.2-22.4v-52.4h14c8.8,0,16.4-3.6,22.4-9.2c5.6-5.6,9.2-13.6,9.2-22.4V31.6
			C124.415,22.8,120.815,15.2,115.215,9.2z M63.615,161.6c0,4.4-2,8.8-4.8,11.6l-0.4,0.4c-2.8,2.8-7.2,4.4-11.6,4.4h-0.4
			c-4.8,0-8.8-2-11.6-4.8c-3.2-3.2-4.8-7.2-4.8-11.6V92.4c0.4,0.4,0.8,0.8,1.2,1.2c2,2,4.8,4.4,7.2,6c0.8,0.8,2,1.2,2.8,1.6
			c2,1.2,4,2.4,6,3.2c1.2,0.4,2.4,0.8,3.6,1.2c2,0.8,4,1.2,6,2c1.2,0.4,2.8,0.4,4,0.8c0.8,0,2,0.4,2.8,0.4V161.6z M84.415,94.8h-14
			h-1.2c-10.8,0-20.8-4.4-28-11.6s-11.6-17.2-11.6-28.4c0-10.8,4.4-20.8,11.6-28s17.2-11.6,28-11.6h15.2V94.8z M108.815,78.4
			c0,4.4-2,8.8-4.8,12c-1.2,1.2-2.8,2-4.4,2.8v-76c1.6,0.4,3.2,1.6,4.4,2.8c3.2,3.2,4.8,7.2,4.8,12V78.4z"/>
	</g>
</g>
<g>
	<g>
		<path d="M249.215,16c-10-10-23.6-16-38.8-16h-22.8c-8.8,0-16.4,3.6-22.4,9.2c-5.6,5.6-9.2,13.6-9.2,22.4V78
			c0,8.8,3.6,16.4,9.2,22.4c5.6,5.6,13.6,9.2,22.4,9.2h14v52.8c0,8.8,3.6,16.4,9.2,22.4l0.4,0.4c4,4,9.2,6,14.8,7.6v80
			c0,4,3.2,7.6,7.6,7.6c4,0,7.6-3.2,7.6-7.6v-80c5.6-1.2,10.8-4.4,14.8-8.4c5.6-5.6,9.2-13.6,9.2-22.4V54.8
			C265.215,39.6,259.215,26,249.215,16z M180.015,93.2c-1.6-0.8-3.2-1.6-4.4-2.8c-3.2-3.2-4.8-7.2-4.8-12V31.6c0-4.4,2-8.8,4.8-11.6
			c1.2-1.2,2.8-2,4.4-2.8V93.2z M210.415,94.4h-1.2h-14V15.2h15.2c10.8,0,20.8,4.4,28,11.6s11.6,17.2,11.6,28s-4.4,20.8-11.6,28
			S221.215,94.4,210.415,94.4z M250.415,162.4c0,4.4-2,8.8-4.8,11.6c-3.2,3.2-7.2,4.8-11.6,4.8h-0.4c-4.4,0-8.4-1.6-11.6-4.4
			l-0.4-0.4c-3.2-3.2-4.8-7.2-4.8-11.6v-53.2c0.8,0,2-0.4,2.8-0.4c1.2-0.4,2.8-0.4,4-0.8c2-0.4,4-1.2,6-2c1.2-0.4,2.4-0.8,3.6-1.2
			c2-0.8,4-2,6-3.2c0.8-0.4,2-1.2,2.8-1.6c2.8-2,5.2-4,7.6-6.4c0-0.4,0.4-0.8,0.8-1.2V162.4z"/>
	</g>
</g>
<g>
</g>
<g>
</g>
<g>
</g>
<g>
</g>
<g>
</g>
<g>
</g>
<g>
</g>
<g>
</g>
<g>
</g>
<g>
</g>
<g>
</g>
<g>
</g>
<g>
</g>
<g>
</g>
<g>
</g>
</svg>
