<?xml version="1.0" encoding="iso-8859-1"?>
<!-- Generator: Adobe Illustrator 19.0.0, SVG Export Plug-In . SVG Version: 6.00 Build 0)  -->
<svg version="1.1" id="Capa_1" xmlns="http://www.w3.org/2000/svg" xmlns:xlink="http://www.w3.org/1999/xlink" x="0px" y="0px"
	 viewBox="0 0 334 334" style="enable-background:new 0 0 334 334;" xml:space="preserve">
<g>
	<g>
		<path d="M327.6,31.4c-4-4-9.6-6.4-15.6-6.4H22c-6,0-11.6,2.4-15.6,6.4S0,41,0,47v186.4c0,6,2.4,11.6,6.4,15.6
			c4.4,4,9.6,6.8,15.6,6.8h98V273h-4c-5.2,0-9.6,2-12.8,5.2s-5.2,8-5.2,12.8c0,5.2,2,9.6,5.2,12.8c3.2,3.2,8,5.2,12.8,5.2h104.8
			c5.2,0,9.6-2,12.8-5.2s5.2-8,5.2-12.8c0-5.2-2-9.6-5.2-12.8s-8-5.2-12.8-5.2h-4v-17.2H312c6,0,11.6-2.4,15.6-6.4s6.4-9.6,6.4-15.6
			V47C334,41,331.6,35.4,327.6,31.4z M15.2,47c0-1.6,0.8-3.6,2-4.8s3.2-2,4.8-2h290c2,0,3.6,0.8,4.8,2c1.2,1.2,2,3.2,2,4.8v160H15.2
			V47z M220.4,287.4c1.6,0.4,2.4,0.8,3.2,1.2c0.8,0.8,1.2,1.6,1.2,2.4s-0.4,2-1.2,2.4c-0.8,0.8-1.6,1.2-2.4,1.2H116.4
			c-0.8,0-2-0.4-2.4-1.2c-0.8-0.8-1.2-1.6-1.2-2.4s0.4-2,0.8-2.4c0.8-0.8,1.6-1.2,2.4-1.2h11.2h82H220.4z M135.2,273v-17.2h67.2V273
			H202H135.2z M319.2,233.8c0,2-0.8,3.6-2,4.8s-3.2,2-4.8,2H209.6h-82H22c-2,0-3.6-0.8-4.8-2s-2-2.8-2-4.8v-11.6h304V233.8z"/>
	</g>
</g>
<g>
	<g>
		<path d="M300.8,50.6H33.6c-4,0-7.6,3.2-7.6,7.6V191c0,4,3.6,7.2,7.6,7.2h267.2c4,0,7.6-3.2,7.6-7.6V58.2
			C308.4,54.2,305.2,50.6,300.8,50.6z M293.2,183.4H40.8v-118h252.4V183.4z"/>
	</g>
</g>
<g>
</g>
<g>
</g>
<g>
</g>
<g>
</g>
<g>
</g>
<g>
</g>
<g>
</g>
<g>
</g>
<g>
</g>
<g>
</g>
<g>
</g>
<g>
</g>
<g>
</g>
<g>
</g>
<g>
</g>
</svg>
