<?xml version="1.0" encoding="iso-8859-1"?>
<!-- Generator: Adobe Illustrator 19.0.0, SVG Export Plug-In . SVG Version: 6.00 Build 0)  -->
<svg version="1.1" id="Capa_1" xmlns="http://www.w3.org/2000/svg" xmlns:xlink="http://www.w3.org/1999/xlink" x="0px" y="0px"
	 viewBox="0 0 322.8 322.8" style="enable-background:new 0 0 322.8 322.8;" xml:space="preserve">
<g>
	<g>
		<path d="M252.4,5.6C248,1.2,242,0,230.8,0H84.4c-5.2,0-9.6,2-13.2,5.6c-3.2,3.2-5.6,8-5.6,13.2v44.4v188v53.2
			c0,4.8,2,9.2,5.6,12.8c3.2,3.2,8,5.6,13.2,5.6h154c5.2,0,9.6-2,13.2-5.6c3.2-3.2,5.6-8,5.6-13.2v-53.2v-188V26
			C257.2,16,256.8,10,252.4,5.6z M80.4,18.4c0-0.8,0.4-2,1.2-2.4c0.8-0.8,1.6-1.2,2.4-1.2h146c6.8,0,10,0,10.8,0.8
			c0.8,0.8,0.8,4,0.8,10.4v16.4c-2.4-0.8-4.4-1.6-7.2-1.6H87.6c-2.4,0-4.8,0.8-7.2,1.6V18.4z M82.4,58c1.2-1.2,3.2-2,4.8-2h147.2
			c2,0,3.6,0.8,4.8,2c1.2,1.2,2,3.2,2,4.8v188c0,2-0.8,3.6-2,4.8c-1.2,1.2-3.2,2-4.8,2H87.6c-2,0-3.6-0.8-4.8-2
			c-1.2-1.2-2-3.2-2-4.8v-188h-0.4C80.4,60.8,81.2,59.2,82.4,58z M242,304c0,1.2-0.4,2-1.2,2.4c-0.8,0.8-1.6,1.2-2.8,1.2H84.4
			c-1.2,0-2-0.4-2.8-1.2c-0.8-0.8-1.2-1.6-1.2-2.4v-32.8c2.4,0.8,4.4,1.6,7.2,1.6h147.2c2.4,0,4.8-0.8,7.2-1.6V304z"/>
	</g>
</g>
<g>
	<g>
		<path d="M170.8,282.8h-19.2c-4.4,0-7.6,3.6-7.6,7.6c0,4.4,3.6,7.6,7.6,7.6h19.2c4.4,0,7.6-3.6,7.6-7.6S174.8,282.8,170.8,282.8z"
			/>
	</g>
</g>
<g>
	<g>
		<circle cx="139.6" cy="28" r="7.6"/>
	</g>
</g>
<g>
	<g>
		<circle cx="161.2" cy="28" r="7.6"/>
	</g>
</g>
<g>
	<g>
		<circle cx="182.8" cy="28" r="7.6"/>
	</g>
</g>
<g>
</g>
<g>
</g>
<g>
</g>
<g>
</g>
<g>
</g>
<g>
</g>
<g>
</g>
<g>
</g>
<g>
</g>
<g>
</g>
<g>
</g>
<g>
</g>
<g>
</g>
<g>
</g>
<g>
</g>
</svg>
