<?xml version="1.0" encoding="iso-8859-1"?>
<!-- Generator: Adobe Illustrator 19.0.0, SVG Export Plug-In . SVG Version: 6.00 Build 0)  -->
<svg version="1.1" id="Capa_1" xmlns="http://www.w3.org/2000/svg" xmlns:xlink="http://www.w3.org/1999/xlink" x="0px" y="0px"
	 viewBox="0 0 322.8 322.8" style="enable-background:new 0 0 322.8 322.8;" xml:space="preserve">
<g>
	<g>
		<path d="M273.8,6.4c-4-4-9.2-6.4-15.2-6.4H64.2C58.2,0,53,2.4,49,6.4s-6.4,9.2-6.4,15.2v280c0,6,2.4,11.2,6.4,15.2
			c4,3.6,9.2,6,15.2,6h194.4c6,0,11.2-2.4,15.2-6.4s6.4-9.2,6.4-15.2V21.6C280.2,15.6,277.8,10.4,273.8,6.4z M265.4,301.6
			c0,2-0.8,3.6-2,4.8s-2.8,2-4.8,2H64.2c-2,0-3.6-0.8-4.8-2c-1.2-1.6-2-3.2-2-4.8v-280c0-2,0.8-3.6,2-4.8s2.8-2,4.8-2h194.4
			c2,0,3.6,0.8,4.8,2c1.2,1.2,2,2.8,2,4.8V301.6z"/>
	</g>
</g>
<g>
	<g>
		<path d="M247.8,47.6c-4-4-9.2-6.4-15.2-6.4H90.2c-6,0-11.2,2.4-15.2,6.4s-6.4,9.2-6.4,15.2v188.8c0,6,2.4,11.2,6.4,15.2
			s9.2,6.4,15.2,6.4h142.4c6,0,11.2-2.4,15.2-6.4s6.4-9.2,6.4-15.2V62.8C254.2,56.8,251.8,51.6,247.8,47.6z M239.4,251.6
			c0,2-0.8,3.6-2,4.8s-2.8,2-4.8,2H90.2c-2,0-3.6-0.8-4.8-2s-2-2.8-2-4.8V62.8c0-2,0.8-3.6,2-4.8c1.2-1.2,2.8-2,4.8-2h142.4
			c2,0,3.6,0.8,4.8,2c1.2,1.2,2,2.8,2,4.8V251.6z"/>
	</g>
</g>
<g>
	<g>
		<path d="M171,283.2h-19.2c-4.4,0-7.6,3.6-7.6,7.6c0,4.4,3.6,7.6,7.6,7.6H171c4.4,0,7.6-3.6,7.6-7.6S175,283.2,171,283.2z"/>
	</g>
</g>
<g>
	<g>
		<circle cx="139.8" cy="28.4" r="7.6"/>
	</g>
</g>
<g>
	<g>
		<circle cx="161.4" cy="28.4" r="7.6"/>
	</g>
</g>
<g>
	<g>
		<circle cx="183" cy="28.4" r="7.6"/>
	</g>
</g>
<g>
</g>
<g>
</g>
<g>
</g>
<g>
</g>
<g>
</g>
<g>
</g>
<g>
</g>
<g>
</g>
<g>
</g>
<g>
</g>
<g>
</g>
<g>
</g>
<g>
</g>
<g>
</g>
<g>
</g>
</svg>
