<?xml version="1.0" encoding="iso-8859-1"?>
<!-- Generator: Adobe Illustrator 19.0.0, SVG Export Plug-In . SVG Version: 6.00 Build 0)  -->
<svg version="1.1" id="Capa_1" xmlns="http://www.w3.org/2000/svg" xmlns:xlink="http://www.w3.org/1999/xlink" x="0px" y="0px"
	 viewBox="0 0 382.4 382.4" style="enable-background:new 0 0 382.4 382.4;" xml:space="preserve">
<g>
	<g>
		<path d="M196,34.4C140,34.4,93.6,80,93.6,136S139.2,238.4,196,238.4S297.6,192,297.6,136S252,34.4,196,34.4z M196,222.4
			c-47.2,0-86.4-39.2-86.4-86.4s38.4-85.6,85.6-85.6s86.4,38.4,86.4,85.6S243.2,222.4,196,222.4z"/>
	</g>
</g>
<g>
	<g>
		<path d="M196,64.8c-39.2,0-71.2,32-71.2,71.2s32,71.2,71.2,71.2s71.2-32,71.2-71.2S235.2,64.8,196,64.8z M196,191.2
			c-30.4,0-55.2-24.8-55.2-55.2c0-30.4,24.8-55.2,55.2-55.2c30.4,0,55.2,24.8,55.2,55.2C251.2,166.4,226.4,191.2,196,191.2z"/>
	</g>
</g>
<g>
	<g>
		<circle cx="196" cy="136" r="21.6"/>
	</g>
</g>
<g>
	<g>
		<path d="M335.2,320h-10.4c-9.6-28.8-28-53.6-53.6-70.4c36-24.8,60-66.4,60-112.8C332,60.8,271.2,0,196,0S59.2,60.8,59.2,136
			c0,47.2,24,88.8,60,112.8c-24.8,16.8-44,42.4-53.6,70.4H47.2c-9.6,0-17.6,8-17.6,17.6v28c0,9.6,8,17.6,17.6,17.6h288
			c9.6,0,17.6-8,17.6-17.6v-28C352.8,328,344.8,320,335.2,320z M75.2,136c0-66.4,54.4-120,120.8-120s120.8,54.4,120.8,120.8
			S262.4,257.6,196,257.6C129.6,256.8,75.2,202.4,75.2,136z M135.2,258.4c18.4,8.8,38.4,14.4,60.8,14.4c21.6,0,42.4-5.6,60.8-14.4
			c24,13.6,42.4,36,52,61.6H83.2C92.8,294.4,111.2,272,135.2,258.4z M336.8,364.8c0,0.8-0.8,1.6-1.6,1.6h-288
			c-0.8,0-1.6-0.8-1.6-1.6v-28c0-0.8,0.8-1.6,1.6-1.6h288c0.8,0,1.6,0.8,1.6,1.6V364.8z"/>
	</g>
</g>
<g>
</g>
<g>
</g>
<g>
</g>
<g>
</g>
<g>
</g>
<g>
</g>
<g>
</g>
<g>
</g>
<g>
</g>
<g>
</g>
<g>
</g>
<g>
</g>
<g>
</g>
<g>
</g>
<g>
</g>
</svg>
