<?xml version="1.0" encoding="iso-8859-1"?>
<!-- Generator: Adobe Illustrator 19.0.0, SVG Export Plug-In . SVG Version: 6.00 Build 0)  -->
<svg version="1.1" id="Capa_1" xmlns="http://www.w3.org/2000/svg" xmlns:xlink="http://www.w3.org/1999/xlink" x="0px" y="0px"
	 viewBox="0 0 431.2 431.2" style="enable-background:new 0 0 431.2 431.2;" xml:space="preserve">
<g>
	<g>
		<path d="M324.8,0H106.4c-9.6,0-16.8,8-16.8,16.8v397.6c0,9.6,8,16.8,16.8,16.8h218.4c9.6,0,16.8-8,16.8-16.8V16.8
			C341.6,7.2,334.4,0,324.8,0z M325.6,413.6c0,0.8-0.8,0.8-0.8,0.8H106.4c-0.8,0-0.8-0.8-0.8-0.8V16.8c0-0.8,0.8-0.8,0.8-0.8h218.4
			c0.8,0,0.8,0.8,0.8,0.8V413.6z"/>
	</g>
</g>
<g>
	<g>
		<path d="M294.4,30.4H137.6c-9.6,0-16.8,8-16.8,16.8v62.4c0,9.6,8,16.8,16.8,16.8h156.8c9.6,0,16.8-8,16.8-16.8V47.2
			C311.2,37.6,303.2,30.4,294.4,30.4z M295.2,109.6c0,0.8-0.8,0.8-0.8,0.8H137.6c-0.8,0-0.8-0.8-0.8-0.8V47.2c0-0.8,0.8-0.8,0.8-0.8
			h156.8c0.8,0,0.8,0.8,0.8,0.8V109.6z"/>
	</g>
</g>
<g>
	<g>
		<path d="M294.4,140.8H137.6c-9.6,0-16.8,8-16.8,16.8v28c0,9.6,8,16.8,16.8,16.8h156.8c9.6,0,16.8-8,16.8-16.8v-28
			C311.2,148,303.2,140.8,294.4,140.8z M295.2,186.4c0,0.8-0.8,0.8-0.8,0.8H137.6c-0.8,0-0.8-0.8-0.8-0.8v-28c0-0.8,0.8-0.8,0.8-0.8
			h156.8c0.8,0,0.8,0.8,0.8,0.8V186.4z"/>
	</g>
</g>
<g>
	<g>
		<path d="M294.4,245.6H137.6c-9.6,0-16.8,8-16.8,16.8v116c0,9.6,8,16.8,16.8,16.8h156.8c9.6,0,16.8-8,16.8-16.8v-116
			C311.2,252.8,303.2,245.6,294.4,245.6z M295.2,377.6c0,0.8-0.8,0.8-0.8,0.8H137.6c-0.8,0-0.8-0.8-0.8-0.8V262.4
			c0-0.8,0.8-0.8,0.8-0.8h156.8c0.8,0,0.8,0.8,0.8,0.8V377.6z"/>
	</g>
</g>
<g>
	<g>
		<path d="M216,272c-17.6,0-32,14.4-32,32c0,17.6,14.4,32,32,32c17.6,0,32-14.4,32-32C248,286.4,233.6,272,216,272z M216,320
			c-8.8,0-16-7.2-16-16s7.2-16,16-16s16,7.2,16,16S224.8,320,216,320z"/>
	</g>
</g>
<g>
	<g>
		<rect x="240.8" y="84.8" width="34.4" height="16"/>
	</g>
</g>
<g>
	<g>
		<rect x="247.2" y="351.2" width="34.4" height="16"/>
	</g>
</g>
<g>
</g>
<g>
</g>
<g>
</g>
<g>
</g>
<g>
</g>
<g>
</g>
<g>
</g>
<g>
</g>
<g>
</g>
<g>
</g>
<g>
</g>
<g>
</g>
<g>
</g>
<g>
</g>
<g>
</g>
</svg>
