<?xml version="1.0" encoding="iso-8859-1"?>
<!-- Generator: Adobe Illustrator 19.0.0, SVG Export Plug-In . SVG Version: 6.00 Build 0)  -->
<svg version="1.1" id="Capa_1" xmlns="http://www.w3.org/2000/svg" xmlns:xlink="http://www.w3.org/1999/xlink" x="0px" y="0px"
	 viewBox="0 0 420 420" style="enable-background:new 0 0 420 420;" xml:space="preserve">
<g>
	<g>
		<path d="M348.4,0h-188c-2.4,0-4,0.8-5.6,2.4L66,92.8c-1.6,1.6-2.4,3.2-2.4,5.6V412c0,4.8,3.2,8,8,8h276.8c4.8,0,8-3.2,8-8V8
			C356.4,3.2,353.2,0,348.4,0z M340.4,404H79.6V101.6l84-85.6h176.8V404z"/>
	</g>
</g>
<g>
	<g>
		<path d="M271.6,121.6H150.8c-24,0-37.6,14.4-37.6,37.6v177.6c0,24,14.4,37.6,37.6,37.6h120.8c24,0,37.6-14.4,37.6-37.6V159.2
			C309.2,135.2,294.8,121.6,271.6,121.6z M172.4,358.4h-21.6c-15.2,0-21.6-7.2-21.6-21.6v-41.6h43.2V358.4z M172.4,279.2h-43.2
			v-58.4h43.2V279.2z M172.4,204.8h-43.2v-45.6c0-14.4,6.4-21.6,21.6-21.6h21.6V204.8z M231.6,358.4h-43.2v-63.2h43.2V358.4z
			 M231.6,279.2h-43.2v-58.4h43.2V279.2z M231.6,204.8h-43.2v-67.2h43.2V204.8z M293.2,336.8c0,14.4-6.4,21.6-21.6,21.6h-24v-63.2
			h45.6V336.8z M293.2,279.2h-45.6v-58.4h45.6V279.2z M293.2,204.8h-45.6v-67.2h24c15.2,0,21.6,7.2,21.6,21.6V204.8z"/>
	</g>
</g>
<g>
</g>
<g>
</g>
<g>
</g>
<g>
</g>
<g>
</g>
<g>
</g>
<g>
</g>
<g>
</g>
<g>
</g>
<g>
</g>
<g>
</g>
<g>
</g>
<g>
</g>
<g>
</g>
<g>
</g>
</svg>
