<?xml version="1.0" encoding="iso-8859-1"?>
<!-- Generator: Adobe Illustrator 19.0.0, SVG Export Plug-In . SVG Version: 6.00 Build 0)  -->
<svg version="1.1" id="Capa_1" xmlns="http://www.w3.org/2000/svg" xmlns:xlink="http://www.w3.org/1999/xlink" x="0px" y="0px"
	 viewBox="0 0 406.4 406.4" style="enable-background:new 0 0 406.4 406.4;" xml:space="preserve">
<g>
	<g>
		<path d="M203.2,0C91.2,0,0,91.2,0,203.2s91.2,203.2,203.2,203.2s203.2-91.2,203.2-203.2S315.2,0,203.2,0z M358.4,99.2l-103.2,60
			c-5.6-7.2-12.8-12.8-20.8-16.8l34.4-115.2C305.6,41.6,336.8,67.2,358.4,99.2z M255.2,203.2c0,28.8-23.2,52-52,52s-52-23.2-52-52
			s23.2-52,52-52S255.2,174.4,255.2,203.2z M224,17.6c9.6,0.8,19.2,3.2,28.8,5.6l-33.6,114.4c-2.4-0.8-4.8-1.6-7.2-1.6L224,17.6z
			 M16,203.2C16,100,100,16,203.2,16c1.6,0,3.2,0,4.8,0l-12.8,119.2c-34.4,4-60.8,32.8-60.8,68c0,25.6,13.6,47.2,34.4,59.2
			l-45.6,110.4C60,342.4,16,277.6,16,203.2z M138.4,378.4L184,268c1.6,0.8,3.2,1.6,4.8,1.6l-26.4,116
			C154.4,384,146.4,381.6,138.4,378.4z M203.2,389.6c-8.8,0.8-16.8,0-24.8-0.8l26.4-117.6c4.8,0,10.4-0.8,15.2-2.4l38.4,112.8
			C240.8,387.2,222.4,389.6,203.2,389.6z M273.6,376.8L235.2,264c21.6-11.2,36.8-34.4,36.8-60c0-11.2-2.4-20.8-7.2-30.4l103.2-60
			c14.4,26.4,23.2,57.6,23.2,90.4C390.4,281.6,341.6,348.8,273.6,376.8z"/>
	</g>
</g>
<g>
	<g>
		<path d="M203.2,169.6c-18.4,0-34.4,15.2-34.4,34.4s15.2,34.4,34.4,34.4s34.4-15.2,34.4-34.4C237.6,184.8,221.6,169.6,203.2,169.6z
			 M203.2,221.6c-9.6,0-18.4-8-18.4-18.4c0-10.4,8-18.4,18.4-18.4c10.4,0,18.4,8,18.4,18.4C221.6,213.6,212.8,221.6,203.2,221.6z"/>
	</g>
</g>
<g>
</g>
<g>
</g>
<g>
</g>
<g>
</g>
<g>
</g>
<g>
</g>
<g>
</g>
<g>
</g>
<g>
</g>
<g>
</g>
<g>
</g>
<g>
</g>
<g>
</g>
<g>
</g>
<g>
</g>
</svg>
