<?xml version="1.0" encoding="iso-8859-1"?>
<!-- Generator: Adobe Illustrator 19.0.0, SVG Export Plug-In . SVG Version: 6.00 Build 0)  -->
<svg version="1.1" id="Capa_1" xmlns="http://www.w3.org/2000/svg" xmlns:xlink="http://www.w3.org/1999/xlink" x="0px" y="0px"
	 viewBox="0 0 352 352" style="enable-background:new 0 0 352 352;" xml:space="preserve">
<g>
	<g>
		<path d="M306,246.4l-25.6-20.8V188h20.8c2.4,0,4-0.8,5.6-2.4c1.6-1.6,2.4-3.2,2.4-5.6v-48c0-2.4-0.8-4-2.4-5.6l-26.4-24.8V18.4
			c0-10.4-8-18.4-17.6-18.4H60.4c-9.6,0-17.6,8-17.6,18.4v315.2c0.8,9.6,8,18.4,17.6,18.4h231.2c9.6,0,17.6-8,17.6-18.4v-80.8
			C309.2,250.4,308.4,248,306,246.4z M293.2,333.6c0,1.6-0.8,2.4-1.6,2.4H60.4c-0.8,0-1.6-0.8-1.6-2.4V18.4h0.8
			c0-1.6,0.8-2.4,1.6-2.4h202.4c0.8,0,1.6,0.8,1.6,2.4v87.2c0,2.4,0.8,4,2.4,5.6l25.6,24.8v36h-20.8c-2.4,0-4,0.8-5.6,2.4
			c-1.6,1.6-2.4,3.2-2.4,5.6v49.6c0,2.4,0.8,4.8,3.2,6.4l25.6,20.8V333.6z"/>
	</g>
</g>
<g>
	<g>
		<path d="M84.4,37.6c-4.8,0-8,3.2-8,8v52.8c0,4,4,8,8,8c4.8,0,8-3.2,8-8V45.6C92.4,40.8,89.2,37.6,84.4,37.6z"/>
	</g>
</g>
<g>
	<g>
		<path d="M122.8,37.6c-4.8,0-8,3.2-8,8v52.8c0,4,4,8,8,8c4.8,0,8-3.2,8-8V45.6C130.8,40.8,127.6,37.6,122.8,37.6z"/>
	</g>
</g>
<g>
	<g>
		<path d="M161.2,37.6c-4.8,0-8,3.2-8,8v52.8c0,4,4,8,8,8c4.8,0,8-3.2,8-8V45.6C169.2,40.8,166,37.6,161.2,37.6z"/>
	</g>
</g>
<g>
	<g>
		<path d="M199.6,37.6c-4.8,0-8,3.2-8,8v52.8c0,4,4,8,8,8c4.8,0,8-3.2,8-8V45.6C207.6,40.8,204.4,37.6,199.6,37.6z"/>
	</g>
</g>
<g>
	<g>
		<path d="M238,37.6c-4.8,0-8,3.2-8,8v52.8c0,4,4,8,8,8c4.8,0,8-3.2,8-8V45.6C246,40.8,242.8,37.6,238,37.6z"/>
	</g>
</g>
<g>
</g>
<g>
</g>
<g>
</g>
<g>
</g>
<g>
</g>
<g>
</g>
<g>
</g>
<g>
</g>
<g>
</g>
<g>
</g>
<g>
</g>
<g>
</g>
<g>
</g>
<g>
</g>
<g>
</g>
</svg>
