<?xml version="1.0" encoding="iso-8859-1"?>
<!-- Generator: Adobe Illustrator 19.0.0, SVG Export Plug-In . SVG Version: 6.00 Build 0)  -->
<svg version="1.1" id="Capa_1" xmlns="http://www.w3.org/2000/svg" xmlns:xlink="http://www.w3.org/1999/xlink" x="0px" y="0px"
	 viewBox="0 0 409.6 409.6" style="enable-background:new 0 0 409.6 409.6;" xml:space="preserve">
<g>
	<g>
		<path d="M212.8,68.8V8c0-4.8-3.2-8-8-8s-8,3.2-8,8v60.8c-64,4-115.2,57.6-115.2,122.4v95.2c0,68,55.2,123.2,123.2,123.2
			S328,354.4,328,286.4v-95.2C328,126.4,276.8,72.8,212.8,68.8z M204,148c6.4,0,16.8,16,16.8,41.6c0,25.6-9.6,41.6-16.8,41.6
			c-7.2,0-16.8-16-16.8-41.6C188,164,197.6,148,204,148z M312,286.4c0,59.2-48,107.2-107.2,107.2s-107.2-48-107.2-107.2v-95.2h0
			c0-56,44-102.4,99.2-106.4v48.8c-14.4,5.6-24.8,28-24.8,56c0,32.8,13.6,57.6,32.8,57.6c19.2,0,32.8-24.8,32.8-57.6
			c0-28-10.4-49.6-24.8-56V84.8c55.2,4,99.2,50.4,99.2,106.4V286.4z"/>
	</g>
</g>
<g>
</g>
<g>
</g>
<g>
</g>
<g>
</g>
<g>
</g>
<g>
</g>
<g>
</g>
<g>
</g>
<g>
</g>
<g>
</g>
<g>
</g>
<g>
</g>
<g>
</g>
<g>
</g>
<g>
</g>
</svg>
