<?xml version="1.0" encoding="iso-8859-1"?>
<!-- Generator: Adobe Illustrator 19.0.0, SVG Export Plug-In . SVG Version: 6.00 Build 0)  -->
<svg version="1.1" id="Capa_1" xmlns="http://www.w3.org/2000/svg" xmlns:xlink="http://www.w3.org/1999/xlink" x="0px" y="0px"
	 viewBox="0 0 390.4 390.4" style="enable-background:new 0 0 390.4 390.4;" xml:space="preserve">
<g>
	<g>
		<path d="M263.2,128L254.4,7.2c0-4-4-7.2-8-7.2h-51.2H144c-4,0-8,3.2-8,7.2L127.2,128c-16,16.8-26.4,40-26.4,65.6
			c0,25.6,10.4,48,26.4,65.6l8.8,124c0,4,4,7.2,8,7.2h51.2h51.2c4,0,8-3.2,8-7.2l8.8-124c16-16.8,26.4-40,26.4-65.6
			C289.6,168.8,279.2,145.6,263.2,128z M151.2,16h44h44l0.8,16h-89.6L151.2,16z M149.6,48h92l4.8,66.4c-14.4-9.6-32-15.2-50.4-15.2
			c-18.4,0-36,5.6-50.4,15.2L149.6,48z M239.2,374.4h-44v0.8h-44L144,272.8c14.4,9.6,32,15.2,51.2,15.2c18.4,0,36-5.6,51.2-15.2
			L239.2,374.4z M195.2,272c-43.2,0-78.4-35.2-78.4-78.4c0-43.2,35.2-78.4,78.4-78.4s78.4,35.2,78.4,78.4S238.4,272,195.2,272z"/>
	</g>
</g>
<g>
	<g>
		<circle cx="195.2" cy="315.2" r="8"/>
	</g>
</g>
<g>
	<g>
		<circle cx="195.2" cy="346.4" r="8"/>
	</g>
</g>
<g>
</g>
<g>
</g>
<g>
</g>
<g>
</g>
<g>
</g>
<g>
</g>
<g>
</g>
<g>
</g>
<g>
</g>
<g>
</g>
<g>
</g>
<g>
</g>
<g>
</g>
<g>
</g>
<g>
</g>
</svg>
