<?xml version="1.0" encoding="iso-8859-1"?>
<!-- Generator: Adobe Illustrator 19.0.0, SVG Export Plug-In . SVG Version: 6.00 Build 0)  -->
<svg version="1.1" id="Capa_1" xmlns="http://www.w3.org/2000/svg" xmlns:xlink="http://www.w3.org/1999/xlink" x="0px" y="0px"
	 viewBox="0 0 416.055 416.055" style="enable-background:new 0 0 416.055 416.055;" xml:space="preserve">
<g>
	<g>
		<path d="M321.628,0h-227.2c-9.6,0-17.6,8-17.6,17.6v380.8c0,9.6,8,17.6,17.6,17.6h226.4c10.4,0.8,18.4-7.2,18.4-17.6V17.6
			C339.228,8,331.228,0,321.628,0z M322.428,398.4c0,0.8-0.8,1.6-1.6,1.6h-226.4c-0.8,0.8-1.6,0-1.6-1.6V17.6c0-0.8,0.8-1.6,1.6-1.6
			h226.4c0.8,0,1.6,0.8,1.6,1.6V398.4z"/>
	</g>
</g>
<g>
	<g>
		<path d="M286.428,54.4h-156.8c-9.6,0-17.6,8-17.6,17.6v228c0,9.6,8,17.6,17.6,17.6h156c9.6,0,17.6-8,17.6-17.6V72
			C304.028,62.4,296.028,54.4,286.428,54.4z M286.428,301.6h-156.8c-0.8,0-1.6-0.8-1.6-1.6V72c0-0.8,0.8-1.6,1.6-1.6h156
			c0.8,0,1.6,0.8,1.6,1.6v228h0.8C288.028,300.8,287.228,301.6,286.428,301.6z"/>
	</g>
</g>
<g>
	<g>
		<path d="M208.028,328c-17.6,0-32,14.4-32,32c0,17.6,14.4,32,32,32c17.6,0,32-14.4,32-32C240.028,342.4,225.628,328,208.028,328z
			 M208.028,375.2c-8.8,0-16-7.2-16-16s7.2-16,16-16s16,7.2,16,16C224.028,368,216.828,375.2,208.028,375.2z"/>
	</g>
</g>
<g>
	<g>
		<path d="M236.028,28.8h-57.6c-4.8,0-8,3.2-8,8s4,8,8,8h57.6c4.8,0,8-3.2,8-8S240.828,28.8,236.028,28.8z"/>
	</g>
</g>
<g>
</g>
<g>
</g>
<g>
</g>
<g>
</g>
<g>
</g>
<g>
</g>
<g>
</g>
<g>
</g>
<g>
</g>
<g>
</g>
<g>
</g>
<g>
</g>
<g>
</g>
<g>
</g>
<g>
</g>
</svg>
