<?xml version="1.0" encoding="iso-8859-1"?>
<!-- Generator: Adobe Illustrator 19.0.0, SVG Export Plug-In . SVG Version: 6.00 Build 0)  -->
<svg version="1.1" id="Capa_1" xmlns="http://www.w3.org/2000/svg" xmlns:xlink="http://www.w3.org/1999/xlink" x="0px" y="0px"
	 viewBox="0 0 406.4 406.4" style="enable-background:new 0 0 406.4 406.4;" xml:space="preserve">
<g>
	<g>
		<path d="M308,0H98.4c-9.6,0-16.8,7.2-16.8,16.8v372.8c0,9.6,8,16.8,16.8,16.8H308c9.6,0,16.8-7.2,16.8-16.8V16.8
			C324.8,7.2,317.6,0,308,0z M308.8,389.6c0,0.8,0,0.8-0.8,0.8H98.4c-0.8,0-0.8,0-0.8-0.8V16.8L308,16c0.8,0,0.8,0,0.8,0.8V389.6z"
			/>
	</g>
</g>
<g>
	<g>
		<path d="M275.2,34.4h-144c-9.6,0-16.8,7.2-16.8,16v144.8c0,8.8,7.2,16,16.8,16h144c9.6,0,16.8-7.2,16.8-16V50.4
			C292,41.6,284.8,34.4,275.2,34.4z M276.8,194.4c0,0,0,0-0.8,0H130.4l0.8-144.8h145.6V194.4z"/>
	</g>
</g>
<g>
	<g>
		<path d="M203.2,222.4c-43.2,0-78.4,35.2-78.4,78.4c0,43.2,35.2,78.4,78.4,78.4s78.4-35.2,78.4-78.4
			C281.6,257.6,246.4,222.4,203.2,222.4z M203.2,363.2c-34.4,0-62.4-28-62.4-62.4c0-34.4,28-62.4,62.4-62.4
			c34.4,0,62.4,28,62.4,62.4C265.6,335.2,237.6,363.2,203.2,363.2z"/>
	</g>
</g>
<g>
	<g>
		<path d="M203.2,253.6c-26.4,0-47.2,21.6-47.2,47.2c0,26.4,21.6,47.2,47.2,47.2c26.4,0,47.2-21.6,47.2-47.2
			C250.4,274.4,229.6,253.6,203.2,253.6z M203.2,332.8c-17.6,0-31.2-14.4-31.2-31.2c0-17.6,14.4-31.2,31.2-31.2
			c17.6,0,31.2,14.4,31.2,31.2C234.4,318.4,220.8,332.8,203.2,332.8z"/>
	</g>
</g>
<g>
</g>
<g>
</g>
<g>
</g>
<g>
</g>
<g>
</g>
<g>
</g>
<g>
</g>
<g>
</g>
<g>
</g>
<g>
</g>
<g>
</g>
<g>
</g>
<g>
</g>
<g>
</g>
<g>
</g>
</svg>
