<?xml version="1.0" encoding="iso-8859-1"?>
<!-- Generator: Adobe Illustrator 19.0.0, SVG Export Plug-In . SVG Version: 6.00 Build 0)  -->
<svg version="1.1" id="Capa_1" xmlns="http://www.w3.org/2000/svg" xmlns:xlink="http://www.w3.org/1999/xlink" x="0px" y="0px"
	 viewBox="0 0 440 440" style="enable-background:new 0 0 440 440;" xml:space="preserve">
<g>
	<g>
		<path d="M388,42H52C27.2,42,0,55.6,0,94v211.2c0,24.8,13.6,52,52,52h125.6L162.4,382h-24c-4.8,0-8,3.2-8,8s3.2,8,8,8h28h98.4h28
			c4.8,0,8-3.2,8-8s-3.2-8-8-8h-24l-15.2-24.8H388c38.4,0,52-26.4,52-52v-212C439.2,55.6,412.8,42,388,42z M181.6,381.2l15.2-24.8
			H236l15.2,24.8H181.6z M424,305.2h-0.8c0,13.6-4.8,36-36,36H240h-48H52c-31.2,0-36-22.4-36-36v-212c0-31.2,22.4-36,36-36h336
			c13.6,0,36,4.8,36,36V305.2z"/>
	</g>
</g>
<g>
	<g>
		<path d="M379.2,78.8H60.8c-9.6,0-16.8,8-16.8,16.8v180.8c0,9.6,8,16.8,16.8,16.8h317.6c9.6,0,16.8-8,16.8-16.8V95.6
			C396,86,388,78.8,379.2,78.8z M379.2,277.2H60.8c-0.8,0-0.8-0.8-0.8-0.8V95.6c0-0.8,0.8-0.8,0.8-0.8h317.6c0.8,0,0.8,0.8,0.8,0.8
			v180.8h0.8C380,277.2,379.2,277.2,379.2,277.2z"/>
	</g>
</g>
<g>
	<g>
		<circle cx="216" cy="316.4" r="12"/>
	</g>
</g>
<g>
</g>
<g>
</g>
<g>
</g>
<g>
</g>
<g>
</g>
<g>
</g>
<g>
</g>
<g>
</g>
<g>
</g>
<g>
</g>
<g>
</g>
<g>
</g>
<g>
</g>
<g>
</g>
<g>
</g>
</svg>
