<?xml version="1.0" encoding="iso-8859-1"?>
<!-- Generator: Adobe Illustrator 19.0.0, SVG Export Plug-In . SVG Version: 6.00 Build 0)  -->
<svg version="1.1" id="Capa_1" xmlns="http://www.w3.org/2000/svg" xmlns:xlink="http://www.w3.org/1999/xlink" x="0px" y="0px"
	 viewBox="0 0 430.4 430.4" style="enable-background:new 0 0 430.4 430.4;" xml:space="preserve">
<g>
	<g>
		<path d="M415.2,88H114.4V71.2c0-4.8-3.2-8-8-8H48c-4.8,0-8,3.2-8,8v17.6H15.2C7.2,88.8,0,95.2,0,104v248c0,8,6.4,15.2,15.2,15.2
			h400c8,0,15.2-6.4,15.2-15.2V103.2C430.4,95.2,423.2,88,415.2,88z M56,79.2h42.4v9.6H56V79.2z M412.8,350.4H16V201.6h85.6
			c-1.6,8-3.2,16.8-3.2,25.6c0,64,52,116,116,116s116-52,116-116c0-8.8-0.8-17.6-3.2-25.6h85.6V350.4z M115.2,227.2
			c0-55.2,44.8-100,100-100c55.2,0,100,44.8,100,100s-44.8,100-100,100S115.2,282.4,115.2,227.2z M413.6,185.6H324
			c-16.8-43.2-59.2-74.4-108.8-74.4c-49.6,0-92,31.2-108.8,75.2H16V104h32h58.4h307.2V185.6z"/>
	</g>
</g>
<g>
	<g>
		<path d="M215.2,134.4c-51.2,0-92.8,41.6-92.8,92.8S164,320,215.2,320s92.8-41.6,92.8-92.8C308,176,266.4,134.4,215.2,134.4z
			 M215.2,304c-42.4,0-76.8-34.4-76.8-76.8c0-42.4,34.4-76.8,76.8-76.8c42.4,0,76.8,34.4,76.8,76.8C292,269.6,257.6,304,215.2,304z"
			/>
	</g>
</g>
<g>
	<g>
		<path d="M389.6,110.4h-59.2c-8,0-15.2,6.4-15.2,15.2v23.2c0,8,7.2,15.2,15.2,15.2h59.2c8,0,15.2-6.4,15.2-15.2v-23.2
			C404.8,117.6,398.4,110.4,389.6,110.4z M388.8,148h-57.6v-20.8h57.6V148z"/>
	</g>
</g>
<g>
</g>
<g>
</g>
<g>
</g>
<g>
</g>
<g>
</g>
<g>
</g>
<g>
</g>
<g>
</g>
<g>
</g>
<g>
</g>
<g>
</g>
<g>
</g>
<g>
</g>
<g>
</g>
<g>
</g>
</svg>
