<?xml version="1.0" encoding="iso-8859-1"?>
<!-- Generator: Adobe Illustrator 19.0.0, SVG Export Plug-In . SVG Version: 6.00 Build 0)  -->
<svg version="1.1" id="Capa_1" xmlns="http://www.w3.org/2000/svg" xmlns:xlink="http://www.w3.org/1999/xlink" x="0px" y="0px"
	 viewBox="0 0 445.6 445.6" style="enable-background:new 0 0 445.6 445.6;" xml:space="preserve">
<g>
	<g>
		<path d="M366.8,0h-288C56.4,0,33.2,12,33.2,45.6v181.6c0.8,21.6,12.8,45.6,46.4,45.6h105.6l-12,19.2h-20c-4.8,0-8,3.2-8,8
			s3.2,8,8,8h24H262h24c4.8,0,8-3.2,8-8s-3.2-8-8-8h-20l-12-19.2h112.8c33.6,0,45.6-23.2,45.6-45.6V45.6C412.4,12,389.2,0,366.8,0z
			 M192.4,291.2l12-19.2h32l12,19.2H192.4z M397.2,227.2c0,11.2-4,29.6-29.6,29.6H241.2h-40.8h-120c-25.6,0-29.6-18.4-29.6-29.6
			V45.6H50C50,20,68.4,16,79.6,16h288c11.2,0,29.6,4,29.6,29.6V227.2z"/>
	</g>
</g>
<g>
	<g>
		<path d="M357.2,31.2H84.4c-8.8,0-16,7.2-16,16v155.2c0,8.8,7.2,16,16,16h272.8c8.8,0,16-7.2,16-16V47.2
			C373.2,38.4,366,31.2,357.2,31.2z M356.4,202.4h-272V47.2h272V202.4z"/>
	</g>
</g>
<g>
	<g>
		<circle cx="346.8" cy="239.2" r="7.2"/>
	</g>
</g>
<g>
	<g>
		<path d="M394.8,319.2H65.2v0.8c-8.8,0-15.2,7.2-15.2,16v93.6c0,8.8,7.2,16,15.2,16h329.6c8.8,0,15.2-7.2,15.2-16v-94.4
			C410,326.4,402.8,319.2,394.8,319.2z M270,335.2h15.2v16H270V335.2z M236.4,335.2h18.4v16H254h-17.6V335.2z M236.4,367.2h18.4v20
			h-18.4V367.2z M202,335.2h18.4v16H202V335.2z M202,367.2h18.4v20H202V367.2z M170.8,335.2H186v16h-15.2V335.2z M170,367.2h15.2v20
			H170V367.2z M135.6,335.2H154v16h-18.4V335.2z M65.2,336h21.6v16H65.2V336z M86,428.8H65.2v-25.6H86V428.8z M87.6,387.2h-0.8H66
			v-20h21.6V387.2z M120.4,428.8h-17.6v-25.6h17.6V428.8z M120.4,387.2h-17.6v-20h17.6V387.2z M120.4,351.2h-17.6v-16h17.6V351.2z
			 M135.6,367.2H154v20h-18.4V367.2z M154.8,428.8h-18.4v-25.6h18.4V428.8z M285.2,428.8H170v-25.6h0h115.2V428.8z M285.2,387.2H270
			v-20h15.2V387.2z M319.6,428.8h-18.4v-25.6h18.4V428.8z M319.6,387.2h-18.4v-20h18.4V387.2z M320.4,351.2H302v-16h18.4V351.2z
			 M355.6,428.8h-19.2v-25.6h19.2V428.8z M355.6,387.2h-19.2v-20h19.2V387.2z M355.6,351.2h-19.2v-16h19.2V351.2z M394,428.8h-23.2
			v-25.6H394V428.8z M394,387.2h-23.2v-20H394V387.2z M394,351.2h-23.2v-16H394V351.2z"/>
	</g>
</g>
<g>
</g>
<g>
</g>
<g>
</g>
<g>
</g>
<g>
</g>
<g>
</g>
<g>
</g>
<g>
</g>
<g>
</g>
<g>
</g>
<g>
</g>
<g>
</g>
<g>
</g>
<g>
</g>
<g>
</g>
</svg>
