<svg id="Layer_1" enable-background="new 0 0 128 128" height="512" viewBox="0 0 128 128" width="512" xmlns="http://www.w3.org/2000/svg"><g><path d="m103.2 68.1-8.3-31.6c-.7-2.8-3.3-4.8-6.2-4.8h-3.9c-1 0-1.8.8-1.8 1.8s.8 1.8 1.8 1.8h3.9c1.3 0 2.5.9 2.8 2.1l7.7 29.4h-70.4l7.7-29.4c.3-1.3 1.5-2.2 2.8-2.2h3.9c1 0 1.8-.8 1.8-1.8s-.8-1.8-1.8-1.8h-3.9c-2.9 0-5.4 2-6.2 4.8 0 0-8.1 31-8.4 32v32.9c0 1 .8 1.7 1.7 1.8h22.3c5.3 0 10.2-3 12.5-7.7 1.1-2.3 4.2-2.1 5.3 0 2.4 4.8 7.2 7.8 12.6 7.8h22.3c1 0 1.7-.8 1.8-1.7 0-21.1 0-23.6 0-33.4zm-3.5 31.6h-20.5c-4 0-7.6-2.2-9.4-5.8-2.5-4.9-9.5-4.6-11.6 0-1.8 3.6-5.4 5.8-9.4 5.8h-20.5v-29.4h71.4z"/><path d="m33.5 96.2h15.3c2.7 0 5.1-1.5 6.3-3.9 3.7-7.3 14.2-7.4 17.9 0 1.2 2.4 3.6 3.9 6.3 3.9h15.3c1 0 1.7-.8 1.8-1.7v-18.9c0-1-.8-1.8-1.8-1.8h-61.1c-1 0-1.8.8-1.8 1.8v18.9c.1.9.9 1.7 1.8 1.7zm1.8-18.9h57.4v15.4h-13.5c-1.3 0-2.6-.8-3.2-1.9-4.9-9.9-19.2-9.8-24.1 0-.6 1.2-1.8 2-3.2 1.9h-13.4z"/></g></svg>