<svg height="512" viewBox="0 0 128 128" width="512" xmlns="http://www.w3.org/2000/svg"><g><path d="m90.876 93.054-12.776-23.679a24.533 24.533 0 1 0 -28.208 0l-12.768 23.679a1.75 1.75 0 0 0 2.116 2.483l9.36-3.265 2.413 9.616a1.751 1.751 0 0 0 1.48 1.311 1.783 1.783 0 0 0 .218.013 1.748 1.748 0 0 0 1.539-.919l9.75-18.071 9.749 18.071a1.748 1.748 0 0 0 1.539.919 1.783 1.783 0 0 0 .218-.013 1.751 1.751 0 0 0 1.48-1.311l2.414-9.616 9.361 3.265a1.75 1.75 0 0 0 2.116-2.483zm-47.909-43.734a21.033 21.033 0 1 1 21.033 21.033 21.056 21.056 0 0 1 -21.033-21.033zm10.345 47.344-1.782-7.1a1.751 1.751 0 0 0 -2.274-1.227l-6.912 2.411 10.556-19.563a24.346 24.346 0 0 0 5.109 1.924l4.007 7.427zm25.432-8.327a1.751 1.751 0 0 0 -2.274 1.227l-1.782 7.1-12.338-22.873c.546.036 1.095.062 1.65.062a24.375 24.375 0 0 0 11.1-2.668l10.556 19.563z"/><path d="m71.513 62.628a1.749 1.749 0 0 0 2.539-1.844l-1.435-8.366 6.078-5.924a1.75 1.75 0 0 0 -.97-2.985l-8.4-1.221-3.757-7.611a1.75 1.75 0 0 0 -3.138 0l-3.757 7.611-8.4 1.221a1.75 1.75 0 0 0 -.97 2.985l6.078 5.924-1.435 8.366a1.749 1.749 0 0 0 2.539 1.844l7.515-3.949zm-13.513-4.748.991-5.777a1.752 1.752 0 0 0 -.5-1.549l-4.2-4.092 5.8-.842a1.751 1.751 0 0 0 1.318-.958l2.591-5.256 2.594 5.256a1.751 1.751 0 0 0 1.318.958l5.8.842-4.2 4.092a1.752 1.752 0 0 0 -.5 1.549l.988 5.777-5.189-2.727a1.749 1.749 0 0 0 -1.628 0z"/></g></svg>