<svg id="Layer_1" enable-background="new 0 0 128 128" height="512" viewBox="0 0 128 128" width="512" xmlns="http://www.w3.org/2000/svg"><g><path d="m79.5 75.7-2.5-2.5c2.1-2.8 3.2-6.1 3.2-9.6 4-1 6.5-5 5.5-9-.4-1.7-1.4-3.2-2.8-4.2 5.5-6.8 4.3-16.8-2.5-22.3s-16.8-4.3-22.3 2.5c-1 1.2-1.8 2.6-2.4 4.1-1.3-.6-2.7-.8-4-.8-5.6 0-10.1 4.5-10.1 10.1 0 2.6 1 5.1 2.8 7-3 2.8-3.1 7.5-.2 10.5 1 1 2.2 1.8 3.6 2.1 0 3.5 1.1 6.8 3.2 9.6l-2.5 2.5c-10 4.7-16.5 14.7-16.5 25.8 0 1 .8 1.8 1.8 1.8s1.8-.8 1.8-1.8c0-9.3 5.2-17.8 13.5-22.1l6.8 8.8c.3.4.8.7 1.4.7.5 0 1.1-.3 1.4-.7l5.4-7.2 5.4 7.2c.3.4.8.7 1.4.7.5 0 1.1-.3 1.4-.7l6.8-8.8c8.3 4.3 13.5 12.8 13.5 22.1 0 1 .8 1.8 1.8 1.8s1.8-.8 1.8-1.8c-.2-11.1-6.7-21.1-16.7-25.8zm-15.5.6c-7 0-12.7-5.7-12.7-12.7v-9.4h.4c2.7 0 5.2-1 7.1-2.9 4.5 4.9 11.7 6.5 17.9 3.9v8.3c0 7.1-5.7 12.8-12.7 12.8zm16.2-16.3v-6.8c.1-.1.1-.1.2-.2 1.9 1.1 2.5 3.5 1.5 5.3-.4.8-1 1.3-1.7 1.7zm-28.5-22.5c1.4 0 2.9.5 4 1.4.8.6 1.9.4 2.5-.3.1-.2.3-.4.3-.7 1.6-6.6 8.2-10.7 14.8-9.2 6.6 1.6 10.7 8.2 9.2 14.8-1.6 6.6-8.2 10.7-14.8 9.2-3-.7-5.7-2.5-7.4-5.1-.3-.5-.9-.8-1.4-.8-.6 0-1.1.3-1.5.8-1.9 3.1-6 4-9.1 2.1s-4-6-2.1-9.1c1.1-2 3.3-3.1 5.5-3.1zm-6.1 18.9c0-1.3.6-2.5 1.7-3.2.2.1.3.2.5.2v6.6c-1.3-.7-2.2-2.1-2.2-3.6zm11.6 27.8-5.3-6.8 1.5-1.5c2.1 1.8 4.6 3.1 7.3 3.6zm13.6 0-3.6-4.7c2.7-.6 5.2-1.8 7.3-3.6l1.5 1.5z"/></g></svg>