<svg id="Layer_1" enable-background="new 0 0 128 128" height="512" viewBox="0 0 128 128" width="512" xmlns="http://www.w3.org/2000/svg"><g><path d="m78.3 75.2c4.6-.4 8.1-4.2 8.1-8.8v-25.3c0-8.7-6.9-16-15.3-16.3-6.7-.2-12.8 3.8-15.3 10-1.5-.6-3-.9-4.6-.8-5.4.4-9.6 5-9.5 10.4v22c0 4.6 3.5 8.4 8.1 8.8-10.8 4.4-17.8 14.7-17.8 26.3 0 1 .8 1.8 1.8 1.8s1.8-.8 1.8-1.8c0-9.6 5.5-18.3 14.1-22.4l13.1 13.7c.7.7 1.8.7 2.5 0l13.1-13.7c8.6 4.1 14.1 12.8 14.1 22.4 0 1 .8 1.8 1.8 1.8s1.8-.8 1.8-1.8c-.1-11.6-7.1-21.9-17.8-26.3zm-27-11.6v-9.4c2.8.1 5.5-.9 7.5-2.9 4.5 4.9 11.7 6.5 17.9 3.9v8.3c0 7-5.7 12.7-12.7 12.7-7 .1-12.7-5.6-12.7-12.6zm-6.2 2.8v-22c-.1-3.6 2.7-6.6 6.2-6.9 1.6-.1 3.1.4 4.4 1.3.8.6 1.9.4 2.5-.3.1-.2.3-.4.3-.7 1.4-5.7 6.6-9.7 12.5-9.5 6.7.4 12 6 11.9 12.8v25.4c0 2.8-2.1 5.1-4.9 5.3 1.4-2.5 2.2-5.3 2.2-8.1v-11.4c0-1-.8-1.7-1.8-1.7-.3 0-.7.1-1 .3-5.7 3.8-13.3 2.3-17.2-3.3-.3-.5-.9-.8-1.5-.8s-1.1.3-1.5.8c-1.5 2.5-4.5 3.7-7.3 2.9-.9-.3-1.9.3-2.1 1.2 0 .1-.1.3-.1.5v11.4c0 2.8.8 5.6 2.2 8.1-2.6-.2-4.8-2.5-4.8-5.3zm18.9 22.6-10.8-11.3c.7-.2 1.4-.4 2-.5 5.3 3.5 12.2 3.5 17.6 0 .7.1 1.4.3 2 .5z"/></g></svg>