<svg id="Layer_1" enable-background="new 0 0 128 128" height="512" viewBox="0 0 128 128" width="512" xmlns="http://www.w3.org/2000/svg"><path d="m64 24.8c-21.7 0-39.2 17.6-39.2 39.2 0 21.7 17.6 39.2 39.2 39.2 21.7 0 39.2-17.6 39.2-39.2s-17.6-39.2-39.2-39.2zm0 74.9c-19.7 0-35.7-16-35.7-35.7s16-35.7 35.7-35.7 35.7 16 35.7 35.7-16 35.7-35.7 35.7z"/><path d="m64 34.2c-16.5 0-29.8 13.4-29.8 29.8s13.3 29.8 29.8 29.8 29.8-13.3 29.8-29.8c0-16.5-13.3-29.8-29.8-29.8zm0 56.1c-14.5 0-26.3-11.8-26.3-26.3s11.8-26.3 26.3-26.3 26.3 11.8 26.3 26.3-11.8 26.3-26.3 26.3z"/><g><path d="m53.9 55.8c-.6-.3-1.3-.3-1.8.1l-4 2.7c-.8.5-1 1.6-.5 2.4s1.6 1 2.4.5l1.3-.8v13.3c0 1 .8 1.8 1.8 1.8s1.8-.8 1.8-1.8v-16.7c-.1-.6-.4-1.2-1-1.5z"/><path d="m64.8 55.6h-3.4c-2.3 0-4.2 1.9-4.2 4.2v3.4c0 .9.3 1.8.8 2.4-.5.7-.8 1.5-.8 2.4v3.4c0 2.3 1.9 4.2 4.2 4.2h3.4c2.3 0 4.2-1.9 4.2-4.2v-3.4c0-.9-.3-1.8-.8-2.4.5-.7.8-1.5.8-2.4v-3.4c0-2.3-1.9-4.2-4.2-4.2zm-4.1 4.2c0-.4.3-.7.7-.7h3.4c.4 0 .7.3.7.7v3.4c0 .4-.3.7-.7.7h-3.4c-.4 0-.7-.3-.7-.7zm4.8 11.7c0 .4-.3.7-.7.7h-3.4c-.4 0-.7-.3-.7-.7v-3.4c0-.4.3-.7.7-.7h3.4c.4 0 .7.3.7.7z"/><path d="m78.9 55.4h-1.3v-1.3c0-1-.8-1.8-1.8-1.8s-1.8.8-1.8 1.8v1.3h-1.3c-1 0-1.8.8-1.8 1.8s.8 1.8 1.8 1.8h1.3v1.3c0 1 .8 1.8 1.8 1.8s1.8-.8 1.8-1.8v-1.3h1.3c1 0 1.8-.8 1.8-1.8s-.8-1.8-1.8-1.8z"/></g></svg>