<svg height="512" viewBox="0 0 128 128" width="512" xmlns="http://www.w3.org/2000/svg"><g><path d="m101.462 35.356h-74.924a1.75 1.75 0 0 0 -1.75 1.75v53.788a1.75 1.75 0 0 0 1.75 1.75h74.924a1.75 1.75 0 0 0 1.75-1.75v-53.788a1.75 1.75 0 0 0 -1.75-1.75zm-73.174 42.12v-26.952h71.424v26.952zm71.424-30.452h-15.231v-8.168h15.231zm-18.731 0h-15.231v-8.168h15.231zm-18.731 0h-15.231v-8.168h15.231zm-33.962-8.168h15.231v8.168h-15.231zm0 42.12h15.231v8.168h-15.231zm18.731 0h15.231v8.168h-15.231zm18.731 0h15.231v8.168h-15.231zm33.962 8.168h-15.231v-8.168h15.231z"/><path d="m48.093 53.027a8.343 8.343 0 1 0 8.343 8.343 8.353 8.353 0 0 0 -8.343-8.343zm0 13.186a4.843 4.843 0 1 1 4.843-4.843 4.848 4.848 0 0 1 -4.843 4.843z"/><path d="m88.221 64.938a1.745 1.745 0 0 0 -2.038-1.4c-4.709.866-8.367 4.128-10.42 6.409a19.1 19.1 0 0 0 -1.128-1.769 1.75 1.75 0 0 0 -2.843 2.043 16.5 16.5 0 0 1 1.961 3.641 1.75 1.75 0 0 0 3.087.334c.041-.061 4.165-6.146 9.977-7.216a1.75 1.75 0 0 0 1.404-2.042z"/><path d="m69.779 63.5c-.336-.224-.672-.432-1-.625a1.75 1.75 0 1 0 -1.764 3.025c.275.161.55.331.826.515a1.75 1.75 0 1 0 1.938-2.915z"/><path d="m62.5 60.489c-.6-.124-1.086-.2-1.424-.236a1.75 1.75 0 0 0 -.424 3.475c.271.033.661.09 1.141.189a1.814 1.814 0 0 0 .356.036 1.75 1.75 0 0 0 .351-3.464z"/></g></svg>