<svg height="512" viewBox="0 0 128 128" width="512" xmlns="http://www.w3.org/2000/svg"><g><path d="m50.667 86.128a5.516 5.516 0 0 0 -7.333 2.631 5.509 5.509 0 1 0 7.333-2.632zm-.534 5.84a2.009 2.009 0 1 1 -.959-2.674 2.007 2.007 0 0 1 .959 2.674z"/><path d="m101.462 24.787h-74.924a1.749 1.749 0 0 0 -1.75 1.75v53.782a1.749 1.749 0 0 0 1.75 1.75h13.733a12.1 12.1 0 1 0 18.992 14.207l4.15-8.794.587-.275.587.275 4.15 8.794a12.1 12.1 0 1 0 18.992-14.207h13.733a1.749 1.749 0 0 0 1.75-1.75v-53.782a1.749 1.749 0 0 0 -1.75-1.75zm-45.364 70a8.6 8.6 0 1 1 -4.111-11.454l2.286 1.08a1.75 1.75 0 0 0 2.33-.836l.415-.879.482 1.022a1.755 1.755 0 0 0 .841.838l2.113.989zm27.258 4.11a8.615 8.615 0 0 1 -11.456-4.115l-4.419-9.364a1.749 1.749 0 0 0 -.84-.838l-6.241-2.925-8.53-18.074a10.9 10.9 0 0 1 3.672-13.606l15.858 33.597a1.75 1.75 0 0 0 2.33.836l2.286-1.08a8.6 8.6 0 0 1 7.343 15.564zm16.356-20.328h-26.805l-2.746-5.819h22.3a1.75 1.75 0 0 0 0-3.5h-23.952l-10.609-22.479a1.75 1.75 0 0 0 -2.33-.836 14.394 14.394 0 0 0 -6.866 19.14l1.97 4.175h-4.617a3.786 3.786 0 0 0 -6.746 0h-3.773a1.75 1.75 0 0 0 0 3.5h3.773a3.786 3.786 0 0 0 6.746 0h6.269l2.746 5.819h-26.784v-50.282h71.424z"/><path d="m84.666 88.759a5.508 5.508 0 1 0 -2.632 7.334 5.519 5.519 0 0 0 2.632-7.334zm-4.125 4.168a2.009 2.009 0 1 1 .959-2.674 2.011 2.011 0 0 1 -.959 2.674z"/><path d="m72.913 53.926h4.217l12.879 5.291a1.75 1.75 0 0 0 2.415-1.617v-21.554a1.75 1.75 0 0 0 -2.415-1.619l-12.879 5.291h-4.217a7.1 7.1 0 1 0 0 14.208zm16.011 1.06-9.698-3.986v-8.359l9.7-3.984zm-16.011-11.768h2.813v7.208h-2.813a3.6 3.6 0 1 1 0-7.208z"/></g></svg>