<svg height="512" viewBox="0 0 128 128" width="512" xmlns="http://www.w3.org/2000/svg"><g><path d="m73.529 46.123-5.5-.8-2.46-4.983a1.749 1.749 0 0 0 -3.138 0l-2.46 4.983-5.5.8a1.75 1.75 0 0 0 -.97 2.984l3.979 3.88-.939 5.478a1.75 1.75 0 0 0 2.539 1.845l4.92-2.586 4.92 2.586a1.75 1.75 0 0 0 2.539-1.845l-.939-5.478 3.979-3.88a1.75 1.75 0 0 0 -.97-2.984zm-6.112 5a1.748 1.748 0 0 0 -.5 1.549l.5 2.891-2.6-1.365a1.749 1.749 0 0 0 -1.628 0l-2.6 1.365.5-2.891a1.748 1.748 0 0 0 -.5-1.549l-2.1-2.047 2.9-.422a1.747 1.747 0 0 0 1.311-.954l1.3-2.632 1.3 2.632a1.747 1.747 0 0 0 1.317.957l2.9.422z"/><path d="m83.319 61.109a11.3 11.3 0 0 0 .056-22.334v-1.525h1.832a1.749 1.749 0 0 0 1.75-1.75v-8.963a1.749 1.749 0 0 0 -1.75-1.75h-42.414a1.749 1.749 0 0 0 -1.75 1.75v8.963a1.749 1.749 0 0 0 1.75 1.75h1.832v1.525a11.3 11.3 0 0 0 .056 22.334 19.381 19.381 0 0 0 10.257 16 6.193 6.193 0 0 0 -1.88 7.725h-7.641a1.749 1.749 0 0 0 -1.75 1.75v14.875a1.749 1.749 0 0 0 1.75 1.75h37.166a1.749 1.749 0 0 0 1.75-1.75v-14.871a1.749 1.749 0 0 0 -1.75-1.75h-7.641a6.193 6.193 0 0 0 -1.88-7.725 19.381 19.381 0 0 0 10.257-16.004zm6.118-11.171a7.82 7.82 0 0 1 -6.062 7.607v-15.215a7.82 7.82 0 0 1 6.062 7.608zm-44.894-21.651h38.914v5.463h-38.914zm-5.981 21.651a7.821 7.821 0 0 1 6.063-7.608v15.215a7.82 7.82 0 0 1 -6.063-7.607zm42.271 49.775h-33.666v-11.375h33.666zm-11.483-20.338a2.732 2.732 0 0 1 0 5.463h-10.7a2.732 2.732 0 0 1 0-5.463zm-5.35-3.5a15.892 15.892 0 0 1 -15.875-15.875v-22.75h31.75v22.75a15.892 15.892 0 0 1 -15.875 15.875z"/></g></svg>