<svg height="512" viewBox="0 0 128 128" width="512" xmlns="http://www.w3.org/2000/svg"><g><path d="m96.285 42.734h-16.714l-1.767-6a1.751 1.751 0 0 0 -1.679-1.255h-24.25a1.751 1.751 0 0 0 -1.675 1.26l-1.767 6h-5.349v-3.63a1.75 1.75 0 0 0 -1.75-1.75h-6.875a1.75 1.75 0 0 0 -1.75 1.75v3.625h-.994a6.937 6.937 0 0 0 -6.928 6.929v35.924a6.937 6.937 0 0 0 6.928 6.929h64.57a6.937 6.937 0 0 0 6.928-6.929v-35.924a6.937 6.937 0 0 0 -6.928-6.929zm-60.076-1.875h3.375v1.875h-3.375zm63.5 44.728a3.432 3.432 0 0 1 -3.428 3.429h-64.566a3.432 3.432 0 0 1 -3.428-3.429v-35.924a3.432 3.432 0 0 1 3.428-3.429h18.022a1.749 1.749 0 0 0 1.679-1.255l1.768-5.995h21.632l1.768 5.995a1.749 1.749 0 0 0 1.679 1.255h18.022a3.432 3.432 0 0 1 3.428 3.429z"/><path d="m64 50.234a17.375 17.375 0 1 0 17.375 17.375 17.394 17.394 0 0 0 -17.375-17.375zm0 31.25a13.875 13.875 0 1 1 13.875-13.875 13.891 13.891 0 0 1 -13.875 13.875z"/><path d="m94.875 48.984h-6.5a1.75 1.75 0 0 0 -1.75 1.75v6.5a1.749 1.749 0 0 0 1.75 1.75h6.5a1.749 1.749 0 0 0 1.75-1.75v-6.5a1.75 1.75 0 0 0 -1.75-1.75zm-1.75 6.5h-3v-3h3z"/><path d="m64 56.813a10.808 10.808 0 0 0 -10.8 10.8 1.75 1.75 0 0 0 3.5 0 7.3 7.3 0 0 1 7.3-7.3 1.75 1.75 0 0 0 0-3.5z"/></g></svg>