<svg height="512" viewBox="0 0 128 128" width="512" xmlns="http://www.w3.org/2000/svg"><g><path d="m64.681 62.813h13.019a1.75 1.75 0 0 0 1.75-1.75v-7.171a1.749 1.749 0 0 0 -1.75-1.75h-13.019a1.75 1.75 0 0 0 -1.75 1.75v7.171a1.751 1.751 0 0 0 1.75 1.75zm1.75-7.171h9.518v3.671h-9.518z"/><path d="m94.255 85.3a8.971 8.971 0 0 0 -8.784 7.208h-16.054v-9.76h2.32a1.75 1.75 0 0 0 1.75-1.748v-5.5h11.935a1.751 1.751 0 0 0 1.75-1.75v-7.707l7.333 5.068a1.75 1.75 0 0 0 2.745-1.44v-20.581a1.75 1.75 0 0 0 -2.745-1.439l-7.333 5.068v-6.55a1.751 1.751 0 0 0 -1.75-1.75h-20.407l-5.505-3.873a1.748 1.748 0 0 0 -1.007-.319h-7.253v-3.527a4.516 4.516 0 0 1 4.512-4.511h12.269a5.656 5.656 0 0 0 5.367 3.9h8.126a5.648 5.648 0 1 0 0-11.295h-8.124a5.655 5.655 0 0 0 -5.367 3.9h-12.271a8.02 8.02 0 0 0 -8.012 8.006v3.53h-7.172a1.751 1.751 0 0 0 -1.75 1.75v3.545h-6.328a1.751 1.751 0 0 0 -1.75 1.75v8.079a1.751 1.751 0 0 0 1.75 1.746h6.328v16.65a1.751 1.751 0 0 0 1.75 1.75h13.935v5.5a1.75 1.75 0 0 0 1.75 1.75h2.32v9.757h-16.054a8.957 8.957 0 1 0 0 3.5h42.942a8.957 8.957 0 1 0 8.784-10.707zm-20.855-57.012h8.126a2.148 2.148 0 1 1 0 4.295h-8.126a2.148 2.148 0 1 1 0-4.295zm20.35 24.139v13.907l-6.578-4.546v-4.815zm-59.5 1.173v-4.578h4.578v4.578zm8.078-9.874h15.621l5.5 3.874a1.754 1.754 0 0 0 1.007.318h19.216v8.156 15.926h-41.344zm15.685 31.774h11.974v3.748h-11.974zm4.07 7.248h3.834v9.757h-3.834zm-28.338 16.964a5.458 5.458 0 1 1 5.455-5.457 5.463 5.463 0 0 1 -5.455 5.457zm60.51 0a5.458 5.458 0 1 1 5.457-5.457 5.463 5.463 0 0 1 -5.457 5.457z"/></g></svg>