<svg height="512" viewBox="0 0 128 128" width="512" xmlns="http://www.w3.org/2000/svg"><g><path d="m101.463 53.892h-19a1.75 1.75 0 0 0 -1.75 1.75v6.334a1.75 1.75 0 0 0 1.75 1.75h7.75v3.58h-5.25a1.75 1.75 0 0 0 -1.75 1.75v6h-3.713v-7.414a1.75 1.75 0 0 0 -1.75-1.75h-2.75v-3.916a1.749 1.749 0 0 0 -1.75-1.75h-18.5a1.749 1.749 0 0 0 -1.75 1.75v3.916h-2.75a1.75 1.75 0 0 0 -1.75 1.75v7.417h-3.713v-6a1.75 1.75 0 0 0 -1.75-1.75h-5.25v-3.58h7.75a1.75 1.75 0 0 0 1.75-1.75v-6.337a1.75 1.75 0 0 0 -1.75-1.75h-19a1.75 1.75 0 0 0 -1.75 1.75v6.334a1.75 1.75 0 0 0 1.75 1.75h7.75v3.58h-5.25a1.75 1.75 0 0 0 -1.75 1.75v14.25a8.745 8.745 0 0 0 16.53 3.987 21.585 21.585 0 0 0 40.366 0 8.745 8.745 0 0 0 16.53-3.987v-14.25a1.75 1.75 0 0 0 -1.75-1.75h-5.25v-3.58h7.75a1.75 1.75 0 0 0 1.75-1.75v-6.334a1.75 1.75 0 0 0 -1.75-1.75zm-73.176 3.5h15.5v2.834h-15.5zm28.213 6.334h15v2.166h-15zm-4.5 5.666h24v5.667h-24zm-10.713 13.914a5.25 5.25 0 0 1 -10.5 0v-12.5h10.5zm40.4.2a18.117 18.117 0 0 1 -35.384 0l-1.093-4.952h37.57zm15.521-.2a5.25 5.25 0 1 1 -10.5 0v-12.5h10.5zm2.5-23.08h-15.5v-2.834h15.5z"/><path d="m64 80.559a5.334 5.334 0 1 0 5.333 5.333 5.339 5.339 0 0 0 -5.333-5.333zm0 7.167a1.834 1.834 0 1 1 1.833-1.834 1.836 1.836 0 0 1 -1.833 1.834z"/><path d="m57.591 47.916a1.75 1.75 0 0 0 2.474 2.476 5.565 5.565 0 0 1 7.87 0 1.749 1.749 0 0 0 2.474-2.474 9.063 9.063 0 0 0 -12.818 0z"/><path d="m77.013 43.787a1.751 1.751 0 0 0 0-2.475 18.4 18.4 0 0 0 -26.026 0 1.75 1.75 0 0 0 2.475 2.475 14.9 14.9 0 0 1 21.076 0 1.751 1.751 0 0 0 2.475 0z"/><path d="m45.756 37.832a1.745 1.745 0 0 0 1.237-.513 24.052 24.052 0 0 1 34.014 0 1.75 1.75 0 0 0 2.474-2.476 27.551 27.551 0 0 0 -38.962 0 1.751 1.751 0 0 0 1.237 2.988z"/></g></svg>