<?xml version="1.0" encoding="UTF-8"?>
<svg xmlns="http://www.w3.org/2000/svg" width="512" height="512" viewBox="0 0 128 128"><g><path d="M72.98,49.771l-16.151-9.75a1.749,1.749,0,0,0-2.655,1.5v19.5a1.75,1.75,0,0,0,2.655,1.5l16.151-9.75a1.749,1.749,0,0,0,0-3ZM57.674,57.918v-13.3l11.015,6.65Z"/><path d="M101.462,24.787H26.538a1.749,1.749,0,0,0-1.75,1.75V76a1.749,1.749,0,0,0,1.75,1.75h74.924a1.749,1.749,0,0,0,1.75-1.75V26.537A1.749,1.749,0,0,0,101.462,24.787ZM89.5,74.25h-51V72.766a11.954,11.954,0,0,0-5.765-10.212A11.957,11.957,0,0,0,38.5,52.341V28.287h51V52.341a11.957,11.957,0,0,0,5.765,10.213A11.954,11.954,0,0,0,89.5,72.766ZM99.712,60.619A8.475,8.475,0,0,1,93,52.341V28.287h6.712ZM35,28.287V52.341a8.475,8.475,0,0,1-6.712,8.278V28.287Zm-6.712,36.2A8.476,8.476,0,0,1,35,72.766V74.25H28.288ZM93,74.25V72.766a8.476,8.476,0,0,1,6.712-8.278V74.25Z"/><path d="M86.312,82.953H80.687A5.413,5.413,0,0,0,77,84.406a5.414,5.414,0,0,0-3.688-1.453H67.687A5.413,5.413,0,0,0,64,84.406a5.414,5.414,0,0,0-3.688-1.453H54.687A5.413,5.413,0,0,0,51,84.406a5.414,5.414,0,0,0-3.688-1.453H41.687a5.444,5.444,0,0,0-5.437,5.438v13.072a1.75,1.75,0,0,0,1.75,1.75H90a1.75,1.75,0,0,0,1.75-1.75V88.391A5.444,5.444,0,0,0,86.312,82.953ZM39.75,88.391a1.939,1.939,0,0,1,1.937-1.938h5.625a1.94,1.94,0,0,1,1.938,1.938V99.713h-9.5Zm13,0a1.939,1.939,0,0,1,1.937-1.938h5.625a1.94,1.94,0,0,1,1.938,1.938V99.713h-9.5Zm13,0a1.939,1.939,0,0,1,1.937-1.938h5.625a1.94,1.94,0,0,1,1.938,1.938V99.713h-9.5Zm22.5,11.322h-9.5V88.391a1.939,1.939,0,0,1,1.937-1.938h5.625a1.94,1.94,0,0,1,1.938,1.938Z"/></g></svg>
