<svg height="512" viewBox="0 0 128 128" width="512" xmlns="http://www.w3.org/2000/svg"><g><path d="m73.717 82.51-15.517-9.365a1.749 1.749 0 0 0 -2.654 1.5v18.73a1.749 1.749 0 0 0 2.654 1.5l15.514-9.365a1.75 1.75 0 0 0 0-3zm-14.668 7.762v-12.528l10.377 6.264z"/><path d="m102.948 40.381a1.747 1.747 0 0 0 .219-1.321l-2.723-11.7a1.755 1.755 0 0 0 -2.1-1.307l-70.092 16.319a1.751 1.751 0 0 0 -1.308 2.1l.941 4.04a7.127 7.127 0 0 0 -.562 11.33v40.394a1.75 1.75 0 0 0 1.75 1.75h71.965a1.75 1.75 0 0 0 1.75-1.75v-44.465a1.75 1.75 0 0 0 -1.75-1.75h-54.43l55.251-12.86a1.747 1.747 0 0 0 1.089-.78zm-28.784 3.633 2.38-9.289 11.749-2.734-2.38 9.288zm-16.754 3.9 2.38-9.288 12.91-3.006-2.38 9.288zm-15.591 3.628 2.381-9.288 11.75-2.735-2.381 9.289zm-13.532 2.858a3.644 3.644 0 1 1 3.645 3.643 3.648 3.648 0 0 1 -3.645-3.643zm2.463-9.011 9.606-2.236-2.056 8.022a7.135 7.135 0 0 0 -7.107-3.886zm1.182 16.154a7.145 7.145 0 0 0 6.413-4.017h2.341l-4.423 8.507h-5.44v-4.59a7.111 7.111 0 0 0 1.109.095zm24.762-4.017-4.423 8.507h-12.063l4.423-8.507zm17.2 0-4.423 8.507h-13.256l4.424-8.507zm16.008 0-4.422 8.502h-12.062l4.423-8.507zm-59.079 40.962v-28.96h68.465v28.96zm68.465-32.46h-9.863l4.424-8.507h5.439zm-9.533-25.643 2.38-9.289 5.3-1.233 1.928 8.286z"/></g></svg>