<svg height="512" viewBox="0 0 128 128" width="512" xmlns="http://www.w3.org/2000/svg"><g><path d="m102.225 46.563c-8.16-3.948-19.871-3.993-20.366-3.993a64.024 64.024 0 0 0 -14.359 1.853v-6.823a1.75 1.75 0 0 0 -.988-1.575c-8.16-3.948-19.871-3.994-20.366-3.994s-12.206.046-20.366 3.994a1.749 1.749 0 0 0 -.987 1.575v15.245a35.831 35.831 0 0 0 20.13 32.192l.48.228a1.755 1.755 0 0 0 1.488 0l.482-.229a35.323 35.323 0 0 0 14.282-12.63 35.319 35.319 0 0 0 18.975 23.168l.488.231a1.747 1.747 0 0 0 1.48 0l.488-.231a35.828 35.828 0 0 0 20.126-32.191v-15.244a1.75 1.75 0 0 0 -.987-1.576zm-56.084 35.177a32.321 32.321 0 0 1 -17.853-28.895v-14.119c7.4-3.149 17.732-3.2 17.854-3.2s10.446.042 17.853 3.2v14.119a32.321 32.321 0 0 1 -17.854 28.895zm53.571-18.356a32.32 32.32 0 0 1 -17.853 28.9 31.923 31.923 0 0 1 -17.567-24.668 35.813 35.813 0 0 0 3.2-14.771v-4.8a60.593 60.593 0 0 1 14.366-1.975c.109 0 10.453.045 17.854 3.2z"/><path d="m89.835 61.123a5.226 5.226 0 0 0 5.219-5.223 1.75 1.75 0 1 0 -3.5 0 1.719 1.719 0 0 1 -3.438 0 1.75 1.75 0 0 0 -3.5 0 5.226 5.226 0 0 0 5.219 5.223z"/><path d="m79.1 55.9a1.75 1.75 0 1 0 -3.5 0 1.719 1.719 0 1 1 -3.437 0 1.75 1.75 0 0 0 -3.5 0 5.219 5.219 0 1 0 10.437 0z"/><path d="m72.046 77.645a1.75 1.75 0 0 0 3.5 0 6.313 6.313 0 1 1 12.626 0 1.75 1.75 0 1 0 3.5 0 9.813 9.813 0 0 0 -19.626 0z"/><path d="m38.165 47.114a1.721 1.721 0 0 1 1.719 1.719 1.75 1.75 0 0 0 3.5 0 5.219 5.219 0 0 0 -10.438 0 1.75 1.75 0 0 0 3.5 0 1.721 1.721 0 0 1 1.719-1.719z"/><path d="m54.117 43.614a5.225 5.225 0 0 0 -5.217 5.219 1.75 1.75 0 0 0 3.5 0 1.719 1.719 0 1 1 3.437 0 1.75 1.75 0 0 0 3.5 0 5.225 5.225 0 0 0 -5.22-5.219z"/><path d="m54.2 57.292a1.751 1.751 0 0 0 -1.75 1.75 6.313 6.313 0 0 1 -12.626 0 1.75 1.75 0 0 0 -3.5 0 9.813 9.813 0 0 0 19.626 0 1.751 1.751 0 0 0 -1.75-1.75z"/></g></svg>