<svg id="Layer_1" enable-background="new 0 0 128 128" height="512" viewBox="0 0 128 128" width="512" xmlns="http://www.w3.org/2000/svg"><g><path d="m64 24.8c-21.7 0-39.2 17.6-39.2 39.2 0 21.7 17.6 39.2 39.2 39.2 21.7 0 39.2-17.6 39.2-39.2s-17.6-39.2-39.2-39.2zm0 74.9c-19.7 0-35.7-16-35.7-35.7s16-35.7 35.7-35.7 35.7 16 35.7 35.7-16 35.7-35.7 35.7z"/><path d="m88.4 78c-.8-.5-1.9-.3-2.4.5-1.9 2.9-4.3 5.3-7.1 7.3-.8.5-1 1.6-.4 2.4s1.6 1 2.4.4c3.2-2.2 5.9-5 8-8.2.6-.8.4-1.9-.5-2.4.1 0 .1 0 0 0z"/><path d="m78.9 42.3c2.8 1.9 5.2 4.4 7.1 7.2.5.8 1.6 1 2.4.5s1-1.6.5-2.4c-2.1-3.2-4.9-6-8-8.2-.8-.6-1.9-.4-2.4.4-.6.8-.4 1.9.4 2.5z"/><path d="m93.3 58.2c-.2-.9-1.1-1.6-2-1.4s-1.6 1.1-1.4 2c.7 3.4.7 6.8 0 10.2-.2.9.4 1.9 1.4 2.1.9.2 1.9-.4 2.1-1.4.6-3.8.6-7.7-.1-11.5z"/><path d="m69.6 89.7c-14.2 3.1-28.2-6-31.3-20.2s6-28.2 20.2-31.3c3.7-.8 7.5-.8 11.1 0 .9.2 1.9-.4 2.1-1.3s-.4-1.9-1.3-2.1c-16.1-3.5-32 6.8-35.5 22.9s6.8 32 22.9 35.5c4.2.9 8.5.9 12.6 0 .9-.2 1.5-1.1 1.3-2.1s-1.2-1.6-2.1-1.4z"/><g><path d="m66 79.8h-7.6c-2.5 0-4.5-2-4.5-4.5s2-4.5 4.5-4.5h6.9v-2.5h-6.9c-2.5 0-4.5-2-4.5-4.5v-11.2c0-2.5 2-4.5 4.5-4.5h11.4c2.5 0 4.5 2 4.5 4.5s-2 4.5-4.5 4.5h-6.9v2.5h3.1c4.5 0 8.2 3.7 8.2 8.2v3.9c-.1 4.5-3.7 8.1-8.2 8.1zm-7.7-5.4c-.5 0-1 .4-1 1 0 .5.4 1 1 1h7.7c2.6 0 4.7-2.1 4.7-4.7v-3.9c0-2.6-2.1-4.7-4.7-4.7h-5c-1 0-1.8-.8-1.8-1.8v-6c0-1 .8-1.8 1.8-1.8h8.7c.5 0 1-.4 1-1s-.4-1-1-1h-11.4c-.5 0-1 .4-1 1v11.5c0 .5.4 1 1 1h7.7c1.5 0 2.8 1.2 2.8 2.8v3.9c0 1.5-1.2 2.8-2.8 2.8h-7.7z"/></g></g></svg>