<svg height="512" viewBox="0 0 128 128" width="512" xmlns="http://www.w3.org/2000/svg"><path d="m79.3 75.649.311-2.609a1.736 1.736 0 0 0 -1.3-1.9 16.2 16.2 0 0 0 1.876-7.465 7.434 7.434 0 0 0 2.741-13.162 15.848 15.848 0 1 0 -27.131-15.7 10.033 10.033 0 0 0 -4.046-.844 10.123 10.123 0 0 0 -7.331 17.119 7.427 7.427 0 0 0 3.4 12.59 16.2 16.2 0 0 0 1.876 7.465 1.736 1.736 0 0 0 -1.3 1.9l.311 2.609a28.274 28.274 0 0 0 -16.664 25.814 1.75 1.75 0 0 0 3.5 0 24.791 24.791 0 0 1 13.596-22.166l1.272 10.661h-7.052a1.75 1.75 0 1 0 0 3.5h4.011a6.6 6.6 0 0 0 0 6.251h-4.025a1.75 1.75 0 0 0 0 3.5h41.31a1.75 1.75 0 0 0 0-3.5h-4.025a6.6 6.6 0 0 0 0-6.251h4.011a1.75 1.75 0 0 0 0-3.5h-7.052l1.271-10.651a24.7 24.7 0 0 1 13.6 22.153 1.75 1.75 0 0 0 3.5 0 28.18 28.18 0 0 0 -16.66-25.814zm-11.134 20.938a6.582 6.582 0 0 0 .786 3.126h-9.9a6.619 6.619 0 0 0 -5.107-9.708l-1.845-15.422h23.8l-1.84 15.422a6.632 6.632 0 0 0 -5.894 6.582zm-16.851-32.979v-9.386c.144.006.286.022.431.022a10.062 10.062 0 0 0 7.087-2.9 15.853 15.853 0 0 0 17.852 3.916v8.348a12.7 12.7 0 0 1 -2.448 7.475h-20.474a12.7 12.7 0 0 1 -2.448-7.475zm28.87-3.641v-6.767c.07-.054.144-.1.213-.16a3.921 3.921 0 0 1 -.213 6.928zm-28.439-22.497a6.579 6.579 0 0 1 4 1.353 1.75 1.75 0 0 0 2.762-.995 12.344 12.344 0 1 1 1.792 9.741 1.752 1.752 0 0 0 -1.449-.767h-.031a1.751 1.751 0 0 0 -1.451.82 6.6 6.6 0 0 1 -7.444 2.862h-.007a6.634 6.634 0 0 1 1.83-13.012zm-6.125 18.98a3.957 3.957 0 0 1 1.7-3.236c.164.08.324.165.492.236v6.517a3.936 3.936 0 0 1 -2.192-3.517zm4.462 40.137a3.126 3.126 0 1 1 3.126 3.126 3.129 3.129 0 0 1 -3.126-3.126zm21.583 0a3.126 3.126 0 1 1 3.125 3.126 3.128 3.128 0 0 1 -3.125-3.126z"/></svg>