<svg height="512" viewBox="0 0 128 128" width="512" xmlns="http://www.w3.org/2000/svg"><path d="m101.462 58.208h-7.37v-31.67a1.75 1.75 0 1 0 -3.5 0v3.212h-53.184v-3.212a1.75 1.75 0 1 0 -3.5 0v31.67h-7.37a1.75 1.75 0 1 0 0 3.5h1.5v15.775a1.749 1.749 0 0 0 1.75 1.75h5.363l19.182 12.094-13.727 8.655a1.75 1.75 0 0 0 .934 3.23h12.771a1.752 1.752 0 0 0 .933-.269l8.756-5.521 8.756 5.521a1.752 1.752 0 0 0 .933.269h12.771a1.75 1.75 0 0 0 .934-3.23l-13.727-8.655 19.181-12.094h5.363a1.749 1.749 0 0 0 1.75-1.75v-15.775h1.5a1.75 1.75 0 1 0 0-3.5zm-37.462 27.024-9.514-6h19.028zm-26.592-9.5v-5.555h53.184v5.556zm53.184-9.056h-53.184v-4.968h1.5a1.75 1.75 0 0 0 0-3.5h-1.5v-7.458h53.184v7.458h-1.5a1.75 1.75 0 0 0 0 3.5h1.5zm0-33.427v14h-53.184v-14zm-59.053 28.459h2.369v14.025h-2.369zm10.176 17.525h6.208l12.8 8.068-3.1 1.957zm12.09 20.479h-6.205l32.48-20.479h6.208l-16.9 10.656zm26.6 0h-6.21l-6.914-4.359 3.1-1.957zm16.056-23.979h-2.369v-14.025h2.369z"/></svg>