<svg height="512" viewBox="0 0 128 128" width="512" xmlns="http://www.w3.org/2000/svg"><path d="m99.957 50.923-12.216-20.068a12.715 12.715 0 0 0 -10.8-6.067h-25.885a12.715 12.715 0 0 0 -10.8 6.067l-12.213 20.068a1.75 1.75 0 0 0 1.5 2.66h12.457a1.747 1.747 0 0 0 1.5-.852l2.479-4.148 1.141 8.942c-1.884 3.154-10.62 19.108-10.62 43.937a1.75 1.75 0 0 0 1.75 1.75h51.5a1.75 1.75 0 0 0 1.75-1.75c0-24.829-8.736-40.783-10.622-43.937l1.141-8.942 2.481 4.148a1.747 1.747 0 0 0 1.5.852h12.462a1.75 1.75 0 0 0 1.495-2.66zm-30.7-22.635a5.541 5.541 0 0 1 -10.518 0zm10.643 34.929h-31.8c.77-1.632 1.417-2.832 1.827-3.55h28.142c.41.718 1.057 1.918 1.831 3.55zm-39.88 36.5a92.079 92.079 0 0 1 6.554-33h34.856a92.079 92.079 0 0 1 6.554 33zm46.973-49.634-4.568-7.643a1.75 1.75 0 0 0 -3.238.677l-1.664 13.05h-27.046l-1.664-13.05a1.75 1.75 0 0 0 -3.238-.677l-4.568 7.643h-8.356l10.6-17.408a9.192 9.192 0 0 1 7.807-4.387h4.071a9.044 9.044 0 0 0 17.746 0h4.071a9.2 9.2 0 0 1 7.808 4.387l10.6 17.408z"/></svg>