<svg height="512" viewBox="0 0 128 128" width="512" xmlns="http://www.w3.org/2000/svg"><g><path d="m101.463 24.787h-74.925a1.749 1.749 0 0 0 -1.75 1.75v74.926a1.749 1.749 0 0 0 1.75 1.75h74.925a1.749 1.749 0 0 0 1.75-1.75v-74.926a1.749 1.749 0 0 0 -1.75-1.75zm-1.75 12.463h-33.963v-8.963h33.963zm-16.984 9.012 7.638 5.253h-15.328zm-54.441-17.975h33.962v71.426h-33.962zm37.462 71.426v-58.963h15.2l.021 2.471-12.585 8.6a1.751 1.751 0 0 0 .987 3.2h26.627a1.75 1.75 0 0 0 .991-3.193l-12.517-8.614-.021-2.464h15.26v58.963z"/><path d="m56.384 34.032h-22.333a1.75 1.75 0 0 0 0 3.5h22.333a1.75 1.75 0 0 0 0-3.5z"/><path d="m56.384 43.083h-22.333a1.75 1.75 0 0 0 0 3.5h22.333a1.75 1.75 0 0 0 0-3.5z"/><path d="m56.384 52.135h-22.333a1.75 1.75 0 0 0 0 3.5h22.333a1.75 1.75 0 0 0 0-3.5z"/><path d="m34.051 62.25a1.75 1.75 0 0 0 -1.751 1.75v5.667a1.75 1.75 0 0 0 3.5 0v-5.667a1.749 1.749 0 0 0 -1.749-1.75z"/></g></svg>