<svg height="512" viewBox="0 0 128 128" width="512" xmlns="http://www.w3.org/2000/svg"><g><path d="m50.667 86.133a5.508 5.508 0 1 0 2.633 7.332 5.467 5.467 0 0 0 -2.633-7.332zm-.534 5.839a2.012 2.012 0 1 1 -.959-2.674 2.009 2.009 0 0 1 .959 2.674z"/><path d="m101.463 24.788h-74.925a1.749 1.749 0 0 0 -1.75 1.75v53.786a1.75 1.75 0 0 0 1.75 1.75h13.728a12.1 12.1 0 1 0 19 14.206l4.15-8.793.584-.275.588.275 4.148 8.793a12.1 12.1 0 1 0 18.993-14.206h13.734a1.75 1.75 0 0 0 1.75-1.75v-53.786a1.749 1.749 0 0 0 -1.75-1.75zm-20.482 53.786h-8.074l-3.855-8.168h11.929zm-13.581-11.668-9.5-20.131a1.752 1.752 0 0 0 -2.33-.836 14.4 14.4 0 0 0 -6.865 19.141l.862 1.826h-21.279v-26.951h71.425v26.951zm-20.381 11.668v-8.168h4.2l3.854 8.168zm52.694-42.119h-15.232v-8.167h15.232zm-18.732 0h-15.231v-8.167h15.231zm-18.731 0h-15.231v-8.167h15.231zm-33.962-8.167h15.231v8.167h-15.231zm0 42.118h15.231v8.168h-15.231zm27.812 24.38a8.6 8.6 0 1 1 -4.109-11.452l2.284 1.078a1.75 1.75 0 0 0 2.33-.836l.415-.88.484 1.028a1.76 1.76 0 0 0 .841.838l2.113.989zm27.255 4.114a8.614 8.614 0 0 1 -11.455-4.113l-4.418-9.364a1.751 1.751 0 0 0 -.84-.839l-6.242-2.925-8.53-18.073a10.9 10.9 0 0 1 3.672-13.608l15.858 33.598a1.753 1.753 0 0 0 2.331.836l2.284-1.078a8.6 8.6 0 1 1 7.34 15.566zm16.358-20.326h-15.232v-8.168h15.232z"/><path d="m81.544 85.929a5.509 5.509 0 1 0 3.122 2.835 5.478 5.478 0 0 0 -3.122-2.835zm-1 7a2.009 2.009 0 1 1 .958-2.674 2.012 2.012 0 0 1 -.96 2.676z"/></g></svg>