<svg height="512" viewBox="0 0 128 128" width="512" xmlns="http://www.w3.org/2000/svg"><g><path d="m101.463 35.357h-74.925a1.75 1.75 0 0 0 -1.75 1.75v53.786a1.75 1.75 0 0 0 1.75 1.75h74.925a1.75 1.75 0 0 0 1.75-1.75v-53.786a1.75 1.75 0 0 0 -1.75-1.75zm-73.175 42.119v-26.952h71.425v26.952zm71.425-30.452h-15.232v-8.167h15.232zm-18.732 0h-15.231v-8.167h15.231zm-18.731 0h-15.231v-8.167h15.231zm-33.962-8.167h15.231v8.167h-15.231zm0 42.119h15.231v8.167h-15.231zm18.731 0h15.231v8.167h-15.231zm18.731 0h15.231v8.167h-15.231zm33.963 8.167h-15.232v-8.167h15.232z"/><path d="m72.98 62.5-16.151-9.75a1.75 1.75 0 0 0 -2.655 1.5v19.5a1.75 1.75 0 0 0 2.655 1.5l16.151-9.75a1.749 1.749 0 0 0 0-3zm-15.306 8.149v-13.3l11.015 6.651z"/></g></svg>