<svg height="512" viewBox="0 0 128 128" width="512" xmlns="http://www.w3.org/2000/svg"><g><path d="m46.75 31.677a6.89 6.89 0 0 0 -10.981-5.543 6.89 6.89 0 0 0 -8.963 10.415l7.725 7.725a1.749 1.749 0 0 0 2.475 0l7.726-7.726a6.844 6.844 0 0 0 2.018-4.871zm-4.493 2.4-6.488 6.49-6.489-6.49a3.389 3.389 0 0 1 4.793-4.793l.458.458a1.749 1.749 0 0 0 2.475 0l.458-.458a3.389 3.389 0 1 1 4.793 4.793z"/><path d="m101.384 87.109a6.255 6.255 0 0 0 -7.995-.7 6.246 6.246 0 0 0 -8 9.533l6.759 6.76a1.749 1.749 0 0 0 2.475 0l6.758-6.759a6.247 6.247 0 0 0 0-8.832zm-2.476 6.359-5.52 5.52-5.521-5.521a2.746 2.746 0 0 1 3.882-3.884l.4.4a1.747 1.747 0 0 0 1.238.514 1.749 1.749 0 0 0 1.238-.514l.4-.4a2.746 2.746 0 0 1 3.882 3.884z"/><path d="m88.237 63.337a8.6 8.6 0 0 0 -2.265-1.62 14.642 14.642 0 0 0 -23.826-15.968 14.647 14.647 0 0 0 -20.626 20.8l19.389 19.391a1.749 1.749 0 0 0 2.475 0l6-6 6 6a1.748 1.748 0 0 0 2.474 0l10.379-10.372a8.659 8.659 0 0 0 0-12.231zm-26.091 18.892-18.146-18.153a11.147 11.147 0 0 1 15.76-15.764l1.149 1.149a1.749 1.749 0 0 0 2.475 0l1.149-1.149a11.149 11.149 0 0 1 18.027 12.508 8.638 8.638 0 0 0 -5.932 1.951 8.65 8.65 0 0 0 -11.61 12.8l1.895 1.895zm23.616-9.135-9.134 9.135-9.135-9.135a5.149 5.149 0 0 1 7.282-7.282l.616.615a1.8 1.8 0 0 0 2.475 0l.614-.615a5.149 5.149 0 0 1 7.282 7.282z"/></g></svg>