<svg height="512" viewBox="0 0 128 128" width="512" xmlns="http://www.w3.org/2000/svg"><g><path d="m101.462 24.787h-74.924a1.749 1.749 0 0 0 -1.75 1.75v74.926a1.749 1.749 0 0 0 1.75 1.75h74.924a1.749 1.749 0 0 0 1.75-1.75v-74.926a1.749 1.749 0 0 0 -1.75-1.75zm-73.174 63.258v-48.09h71.424v48.09zm71.424-51.59h-15.231v-8.168h15.231zm-18.731 0h-15.231v-8.168h15.231zm-18.731 0h-15.231v-8.168h15.231zm-33.962-8.168h15.231v8.168h-15.231zm0 63.258h15.231v8.168h-15.231zm18.731 0h15.231v8.168h-15.231zm18.731 0h15.231v8.168h-15.231zm33.962 8.168h-15.231v-8.168h15.231z"/><path d="m64 45.375a14.923 14.923 0 0 0 -14.942 13.672l-1.926 21.673a1.749 1.749 0 0 0 1.743 1.905h30.25a1.749 1.749 0 0 0 1.743-1.905l-1.926-21.673a14.923 14.923 0 0 0 -14.942-13.672zm-13.212 33.75 1.756-19.768a11.5 11.5 0 0 1 22.912 0l1.756 19.768z"/><circle cx="59.563" cy="60.195" r="2.722"/><circle cx="68.438" cy="60.195" r="2.722"/><ellipse cx="64" cy="69.125" rx="2.358" ry="4"/></g></svg>