<svg id="Layer_1" enable-background="new 0 0 128 128" height="512" viewBox="0 0 128 128" width="512" xmlns="http://www.w3.org/2000/svg"><g><path d="m64 24.8c-21.7 0-39.2 17.6-39.2 39.2s17.6 39.2 39.2 39.2 39.2-17.6 39.2-39.2c0-21.6-17.6-39.2-39.2-39.2zm0 74.9c-19.7 0-35.7-16-35.7-35.7s16-35.7 35.7-35.7 35.7 16 35.7 35.7-16 35.7-35.7 35.7z"/><path d="m95.2 64c0-17.2-13.9-31.2-31.2-31.2-17.2 0-31.2 14.1-31.2 31.2 0 17.2 13.9 31.2 31.2 31.2 17.2 0 31.2-14 31.2-31.2zm-31.2-27.7c7.8 0 15.3 3.3 20.5 9.2h-41.1c5.3-5.9 12.8-9.2 20.6-9.2zm-23.2 12.7h46.5c5.9 9.1 5.9 20.9 0 30.1h-46.5c-6-9.2-6-21 0-30.1zm23.2 42.7c-7.8 0-15.3-3.3-20.5-9.2h41.1c-5.3 5.9-12.8 9.2-20.6 9.2z"/><path d="m64 77.5c7.4 0 13.5-6 13.5-13.5 0-7.4-6-13.5-13.5-13.5-7.4 0-13.5 6-13.5 13.5 0 7.4 6.1 13.5 13.5 13.5zm0-23.5c5.5 0 10 4.5 10 10s-4.5 10-10 10-10-4.5-10-10 4.5-10 10-10z"/><path d="m58.9 65.7c1 0 1.7-.8 1.7-1.8 0-1.9 1.5-3.4 3.4-3.4 1 0 1.8-.8 1.8-1.8s-.8-1.6-1.8-1.6c-3.8 0-6.9 3.1-6.9 6.9 0 1 .8 1.7 1.8 1.7z"/></g></svg>