<svg height="512" viewBox="0 0 128 128" width="512" xmlns="http://www.w3.org/2000/svg"><path d="m101.463 84h-6.785v-6.7a1.75 1.75 0 0 0 -1.75-1.75h-4.3a31.356 31.356 0 1 0 -49.251 0h-4.3a1.75 1.75 0 0 0 -1.75 1.75v6.7h-6.79a1.75 1.75 0 0 0 -1.75 1.75v15.712a1.749 1.749 0 0 0 1.75 1.75h74.926a1.749 1.749 0 0 0 1.75-1.75v-15.712a1.75 1.75 0 0 0 -1.75-1.75zm-65.319-27.856a27.856 27.856 0 1 1 47.832 19.4h-7.829a22.9 22.9 0 1 0 -24.294 0h-7.827a27.63 27.63 0 0 1 -7.882-19.4zm27.856 19.404a19.4 19.4 0 1 1 19.4-19.4 19.426 19.426 0 0 1 -19.4 19.4zm-27.178 3.5h54.356v4.952h-54.356zm36.778 8.452-.581 2.056a2.1 2.1 0 0 1 -2.017 1.527h-14.008a2.1 2.1 0 0 1 -2.017-1.527l-.577-2.056zm26.113 12.212h-71.426v-12.212h22.471l.849 3.007a5.618 5.618 0 0 0 5.387 4.076h14.012a5.618 5.618 0 0 0 5.387-4.076l.849-3.007h22.471z"/></svg>