<svg height="512" viewBox="0 0 128 128" width="512" xmlns="http://www.w3.org/2000/svg"><path d="m96.819 29.358a6.4 6.4 0 0 0 -6.391 6.348l-42.88 11.211h-9.548a13.207 13.207 0 0 0 -1.75 26.3v18.789a6.635 6.635 0 1 0 13.27 0v-18.146l40.907 10.7a6.393 6.393 0 0 0 12.785-.046v-48.762a6.4 6.4 0 0 0 -6.393-6.394zm-68.532 30.772a9.725 9.725 0 0 1 9.713-9.713h8.02v19.427h-8.02a9.725 9.725 0 0 1 -9.713-9.714zm14.6 35.012a3.139 3.139 0 0 1 -3.136-3.136v-18.662h6.27v18.662a3.139 3.139 0 0 1 -3.134 3.136zm6.634-45.124 40.905-10.694v41.613l-40.9-10.694zm50.192 34.491a2.894 2.894 0 0 1 -5.787 0v-48.757a2.894 2.894 0 1 1 5.787 0z"/></svg>