<svg height="512" viewBox="0 0 128 128" width="512" xmlns="http://www.w3.org/2000/svg"><g><path d="m64 77.25a15.85 15.85 0 0 0 15.832-15.832v-20.8a15.832 15.832 0 0 0 -31.664 0v20.8a15.85 15.85 0 0 0 15.832 15.832zm0-48.962a12.339 12.339 0 0 1 12.193 10.581h-3.818a1.75 1.75 0 0 0 0 3.5h3.957v7.107h-3.957a1.75 1.75 0 0 0 0 3.5h3.957v7.106h-3.957a1.75 1.75 0 0 0 0 3.5h3.755a12.319 12.319 0 0 1 -24.26 0h3.755a1.75 1.75 0 0 0 0-3.5h-3.957v-7.106h3.957a1.75 1.75 0 0 0 0-3.5h-3.957v-7.107h3.957a1.75 1.75 0 0 0 0-3.5h-3.818a12.339 12.339 0 0 1 12.193-10.581z"/><path d="m87.223 61.832a1.75 1.75 0 0 0 -3.5 0 19.723 19.723 0 0 1 -39.446 0 1.75 1.75 0 0 0 -3.5 0 23.249 23.249 0 0 0 21.473 23.15v1.268h-3.125a1.751 1.751 0 0 0 -1.75 1.75v11.712h-7.25a1.75 1.75 0 1 0 0 3.5h27.75a1.75 1.75 0 0 0 0-3.5h-7.25v-11.712a1.751 1.751 0 0 0 -1.75-1.75h-3.125v-1.268a23.249 23.249 0 0 0 21.473-23.15zm-20.1 37.88h-6.25v-9.962h6.25z"/></g></svg>