<svg height="512" viewBox="0 0 128 128" width="512" xmlns="http://www.w3.org/2000/svg"><g><path d="m101.463 41.917h-32.38v-4.917a1.749 1.749 0 0 0 -1.75-1.75h-1.583v-8.713a1.75 1.75 0 0 0 -3.5 0v8.713h-1.583a1.749 1.749 0 0 0 -1.75 1.75v4.917h-32.38a1.749 1.749 0 0 0 -1.75 1.75v57.8a1.749 1.749 0 0 0 1.75 1.75h74.926a1.749 1.749 0 0 0 1.75-1.75v-57.8a1.749 1.749 0 0 0 -1.75-1.75zm-39.046-3.167h3.166v3.167h-3.166zm-34.13 6.667h71.426v14.166h-71.426zm0 54.3v-36.634h71.426v36.63z"/><circle cx="35.521" cy="52.5" r="3.595"/><path d="m45.174 84.1v-14.869a1.75 1.75 0 0 0 -3.5 0v14.869a3.564 3.564 0 0 0 0 6.244v3.216a1.75 1.75 0 0 0 3.5 0v-3.212a3.565 3.565 0 0 0 0-6.245z"/><path d="m58.892 72.158v-2.927a1.75 1.75 0 0 0 -3.5 0v2.926a3.564 3.564 0 0 0 0 6.245v15.162a1.75 1.75 0 0 0 3.5 0v-15.164a3.564 3.564 0 0 0 0-6.244z"/><path d="m72.608 78.275v-9.044a1.75 1.75 0 0 0 -3.5 0v9.045a3.564 3.564 0 0 0 0 6.244v9.044a1.75 1.75 0 0 0 3.5 0v-9.043a3.565 3.565 0 0 0 0-6.246z"/><path d="m86.326 81.871v-12.64a1.75 1.75 0 0 0 -3.5 0v12.64a3.565 3.565 0 0 0 0 6.245v5.448a1.75 1.75 0 0 0 3.5 0v-5.449a3.564 3.564 0 0 0 0-6.244z"/><circle cx="47.354" cy="52.5" r="3.595"/><circle cx="59.187" cy="52.5" r="3.595" transform="matrix(.924 -.383 .383 .924 -15.585 26.646)"/></g></svg>