<svg height="512" viewBox="0 0 128 128" width="512" xmlns="http://www.w3.org/2000/svg"><g><path d="m101.463 41h-74.926a1.749 1.749 0 0 0 -1.75 1.75v42.5a1.749 1.749 0 0 0 1.75 1.75h74.926a1.749 1.749 0 0 0 1.75-1.75v-42.5a1.749 1.749 0 0 0 -1.75-1.75zm-1.75 42.5h-71.426v-39h71.426z"/><path d="m33.537 75.25a3 3 0 0 1 3 3 1.749 1.749 0 0 0 1.75 1.75h51.426a1.749 1.749 0 0 0 1.75-1.75 3 3 0 0 1 3-3 1.749 1.749 0 0 0 1.75-1.75v-19a1.749 1.749 0 0 0 -1.75-1.75 3 3 0 0 1 -3-3 1.749 1.749 0 0 0 -1.75-1.75h-51.426a1.749 1.749 0 0 0 -1.75 1.75 3 3 0 0 1 -3 3 1.749 1.749 0 0 0 -1.75 1.75v19a1.749 1.749 0 0 0 1.75 1.75zm21.13-11.25c0-6.893 4.187-12.5 9.333-12.5s9.333 5.607 9.333 12.5-4.187 12.5-9.333 12.5-9.333-5.607-9.333-12.5zm33.533-12.5a6.528 6.528 0 0 0 4.511 4.511v15.978a6.528 6.528 0 0 0 -4.511 4.511h-16.211a17.66 17.66 0 0 0 4.844-12.5 17.66 17.66 0 0 0 -4.844-12.5zm-52.913 4.511a6.53 6.53 0 0 0 4.513-4.511h16.211a17.66 17.66 0 0 0 -4.844 12.5 17.66 17.66 0 0 0 4.844 12.5h-16.211a6.53 6.53 0 0 0 -4.511-4.511z"/></g></svg>