<svg height="512" viewBox="0 0 128 128" width="512" xmlns="http://www.w3.org/2000/svg"><g><path d="m96.25 64a32.25 32.25 0 1 0 -32.25 32.25 32.287 32.287 0 0 0 32.25-32.25zm-61 0a28.75 28.75 0 1 1 28.75 28.75 28.782 28.782 0 0 1 -28.75-28.75z"/><path d="m64 50.522a5.73 5.73 0 1 0 -5.73-5.73 5.736 5.736 0 0 0 5.73 5.73zm0-7.96a2.23 2.23 0 1 1 -2.23 2.23 2.233 2.233 0 0 1 2.23-2.23z"/><path d="m60.785 64a3.215 3.215 0 1 0 3.215-3.214 3.219 3.219 0 0 0 -3.215 3.214z"/><path d="m77.582 56.145a5.711 5.711 0 0 0 4.052-1.675 5.739 5.739 0 1 0 -4.052 1.675zm-1.577-7.3a2.23 2.23 0 1 1 0 3.154 2.221 2.221 0 0 1 0-3.158z"/><path d="m77.478 64a5.73 5.73 0 1 0 5.73-5.73 5.736 5.736 0 0 0 -5.73 5.73zm7.959 0a2.23 2.23 0 1 1 -2.229-2.23 2.232 2.232 0 0 1 2.229 2.23z"/><path d="m73.53 81.634a5.73 5.73 0 1 0 0-8.1 5.711 5.711 0 0 0 0 8.1zm2.475-5.629a2.23 2.23 0 1 1 0 3.154 2.233 2.233 0 0 1 0-3.154z"/><path d="m69.73 83.208a5.73 5.73 0 1 0 -5.73 5.73 5.736 5.736 0 0 0 5.73-5.73zm-7.96 0a2.23 2.23 0 1 1 2.23 2.23 2.233 2.233 0 0 1 -2.23-2.23z"/><path d="m46.366 73.53a5.73 5.73 0 1 0 8.1 0 5.739 5.739 0 0 0 -8.1 0zm5.634 5.629a2.23 2.23 0 1 1 0-3.154 2.233 2.233 0 0 1 0 3.154z"/><path d="m50.522 64a5.73 5.73 0 1 0 -5.73 5.73 5.736 5.736 0 0 0 5.73-5.73zm-7.96 0a2.23 2.23 0 1 1 2.23 2.23 2.233 2.233 0 0 1 -2.23-2.23z"/><path d="m54.47 46.366a5.727 5.727 0 1 0 0 8.1 5.74 5.74 0 0 0 0-8.1zm-2.47 5.634a2.229 2.229 0 1 1 0-3.154 2.233 2.233 0 0 1 0 3.154z"/><path d="m101.463 99.712h-21.3a39.187 39.187 0 1 0 -16.163 3.5h37.463a1.75 1.75 0 0 0 0-3.5zm-73.176-35.712a35.713 35.713 0 1 1 35.713 35.712 35.753 35.753 0 0 1 -35.713-35.712z"/></g></svg>