<svg height="512" viewBox="0 0 128 128" width="512" xmlns="http://www.w3.org/2000/svg"><path d="m101.113 25.147a1.746 1.746 0 0 0 -1.519-.3l-43.857 11.824a1.75 1.75 0 0 0 -1.3 1.689v43.909a17.409 17.409 0 0 0 -12.371-4.835c-8.751 0-15.87 5.782-15.87 12.889s7.119 12.89 15.87 12.89 15.871-5.782 15.871-12.89v-32.65l40.363-10.879v18.373a17.412 17.412 0 0 0 -12.37-4.835c-8.751 0-15.871 5.782-15.871 12.889s7.119 12.889 15.87 12.889 15.87-5.782 15.87-12.889v-46.684a1.753 1.753 0 0 0 -.686-1.39zm-59.042 74.566c-6.821 0-12.37-4.212-12.37-9.39s5.549-9.389 12.37-9.389 12.371 4.212 12.371 9.389-5.549 9.39-12.371 9.39zm43.858-17.1c-6.822 0-12.371-4.212-12.371-9.389s5.549-9.389 12.371-9.389 12.371 4.209 12.371 9.386-5.55 9.389-12.371 9.389zm-27.987-42.913 40.358-10.879v14.348l-40.358 10.88z"/></svg>