<svg height="512" viewBox="0 0 128 128" width="512" xmlns="http://www.w3.org/2000/svg"><path d="m81.875 92.25h-3.375v-16a1.749 1.749 0 0 0 -1.75-1.75h-2.686l2.188-16.96a8.184 8.184 0 0 0 -4.106-8.206 4.717 4.717 0 0 1 -2.38-3.876 11.147 11.147 0 1 0 -11.532 0 4.717 4.717 0 0 1 -2.38 3.876 8.184 8.184 0 0 0 -4.106 8.206l2.188 16.96h-2.686a1.749 1.749 0 0 0 -1.75 1.75v16h-3.375a1.749 1.749 0 0 0 -1.75 1.75v7.463a1.749 1.749 0 0 0 1.75 1.75h35.75a1.749 1.749 0 0 0 1.75-1.75v-7.463a1.749 1.749 0 0 0 -1.75-1.75zm-17.875-63.963a7.648 7.648 0 1 1 -7.647 7.649 7.656 7.656 0 0 1 7.647-7.649zm-8.781 28.806a4.7 4.7 0 0 1 2.357-4.712 8.216 8.216 0 0 0 4-5.571 10.889 10.889 0 0 0 4.846 0 8.214 8.214 0 0 0 4 5.571 4.7 4.7 0 0 1 2.357 4.712l-2.243 17.407h-13.072zm-2.219 20.907h22v14.25h-22zm27.125 21.713h-32.25v-3.963h32.25z"/></svg>