<svg height="512" viewBox="0 0 128 128" width="512" xmlns="http://www.w3.org/2000/svg"><path d="m94.683 37.623a10.492 10.492 0 0 0 -6.71-4.511 10.611 10.611 0 0 0 -3.046-.169 11.546 11.546 0 0 0 -4.437-1.581 8.235 8.235 0 0 0 -8.055-6.575 8.137 8.137 0 0 0 -7.786 5.651 10.53 10.53 0 0 0 -7.12 1.887 8.2 8.2 0 0 0 -14.383 2.321q-.516-.051-1.03-.051a10.55 10.55 0 0 0 -6.71 18.7v7.328a1.749 1.749 0 0 0 1.75 1.75h.834l4.194 39.273a1.749 1.749 0 0 0 1.74 1.565h40.152a1.749 1.749 0 0 0 1.74-1.565l4.194-39.271h.834a1.749 1.749 0 0 0 1.75-1.75v-9.005l.025-.016a10.534 10.534 0 0 0 2.064-13.981zm-29.141-3.465a1.75 1.75 0 0 0 2.219-1.539 4.676 4.676 0 0 1 4.674-4.332 4.728 4.728 0 0 1 4.721 4.724 1.749 1.749 0 0 0 1.75 1.75h.076a8.234 8.234 0 0 1 .849.068 10.429 10.429 0 0 0 -3.7 4.587 11.7 11.7 0 0 0 -9.484.581 11.646 11.646 0 0 0 -7.62-4.406 7.03 7.03 0 0 1 6.515-1.433zm23.552 24.717h-50.188v-7.946h50.188zm-19.528 27.306c-.053.028-.107.053-.157.086a12.575 12.575 0 0 1 -10.815 0 1.433 1.433 0 0 0 -.168-.092c-2.489-1.3-4.122-3.441-4.122-5.863 0-3.956 4.349-7.174 9.7-7.174s9.7 3.218 9.7 7.174c-.004 2.427-1.644 4.569-4.138 5.869zm-1.032 4.146-.3 9.386h-8.472l-.3-9.386a15.835 15.835 0 0 0 9.068 0zm-4.534-20.687a15.835 15.835 0 0 0 -5.16.851l-.256-8.116h10.832l-.256 8.116a15.835 15.835 0 0 0 -5.16-.851zm-22.49-7.265h13.573l.31 9.865a9.955 9.955 0 0 0 -4.593 8.074 10.1 10.1 0 0 0 5.111 8.419l.345 10.98h-10.756zm40.99 37.338h-10.76l.345-10.98a10.1 10.1 0 0 0 5.115-8.419 9.955 9.955 0 0 0 -4.589-8.074l.31-9.865h13.569zm9.1-52.1a1.728 1.728 0 0 0 -.759-.18h-53.685a1.741 1.741 0 0 0 -1.419.733 7.043 7.043 0 0 1 8.3-9.8 1.749 1.749 0 0 0 2.221-1.538 4.676 4.676 0 0 1 4.673-4.328 4.727 4.727 0 0 1 4.721 4.723 1.77 1.77 0 0 0 1.775 1.749 8.146 8.146 0 0 1 7.162 4.263 1.751 1.751 0 0 0 2.588.566l.143-.11c.073-.055.144-.112.222-.164a8.171 8.171 0 0 1 8.763-.148 1.75 1.75 0 0 0 2.635-1.179 7.061 7.061 0 1 1 12.66 5.409z"/></svg>