<svg id="Layer_1" enable-background="new 0 0 128 128" height="512" viewBox="0 0 128 128" width="512" xmlns="http://www.w3.org/2000/svg"><g><g><path d="m59.7 68.5c-.3 0-.6-.1-.9-.2-.5-.3-.8-.9-.8-1.5v-10.3c0-.6.3-1.2.9-1.5s1.2-.3 1.8 0l8.5 5.2c.5.3.8.9.8 1.5s-.3 1.2-.8 1.5l-8.5 5.2c-.3 0-.7.1-1 .1zm1.8-8.9v4.1l3.4-2z"/></g><path d="m90 36.2h-4.6v-1.9c0-1-.8-1.8-1.8-1.8h-1.9v-6c0-1-.8-1.8-1.8-1.8s-1.8.8-1.8 1.8v6h-1.9c-1 0-1.7.8-1.8 1.7v1.9h-21v-1.9c0-1-.8-1.7-1.7-1.8h-1.9v-6c0-1-.8-1.8-1.8-1.8s-1.8.8-1.8 1.8v6h-1.9c-1 0-1.8.8-1.8 1.8v1.9h-4.5c-1 0-1.7.8-1.8 1.8v63.5c0 1 .8 1.8 1.8 1.8h52c1 0 1.8-.8 1.8-1.8v-63.4c-.1-1-.8-1.7-1.8-1.8zm-8.1-.1v3.9h-3.9v-3.9zm-35.8 0h3.9v3.9h-3.9zm42.2 63.6h-48.5v-60h2.8v1.9c0 1 .8 1.7 1.8 1.8h7.4c1 0 1.8-.8 1.8-1.8v-1.9h21v1.9c0 1 .8 1.8 1.8 1.8h7.4c1 0 1.7-.8 1.8-1.8v-1.9h2.9v60z"/><path d="m78.4 48.2h-28.8c-1 0-1.7.8-1.8 1.8v23.3c0 1 .8 1.7 1.8 1.8h28.8c1 0 1.7-.8 1.8-1.8v-23.3c-.1-1-.9-1.7-1.8-1.8zm-1.8 23.3h-25.2v-19.8h25.3v19.8z"/><path d="m49.6 85h9.9c1 0 1.8-.8 1.8-1.8s-.8-1.8-1.8-1.8h-9.9c-1 0-1.8.8-1.8 1.8s.9 1.8 1.8 1.8z"/><path d="m68.5 90.2h-18.9c-1 0-1.8.8-1.8 1.8s.8 1.8 1.8 1.8h18.9c1 0 1.8-.8 1.8-1.8s-.8-1.8-1.8-1.8z"/></g></svg>