<svg height="512" viewBox="0 0 128 128" width="512" xmlns="http://www.w3.org/2000/svg"><g><path d="m101.463 50.81h-10.258a16.775 16.775 0 0 0 -14.714-8.6 17.014 17.014 0 0 0 -14.711 8.6h-35.243a1.749 1.749 0 0 0 -1.75 1.75v24.569a1.75 1.75 0 0 0 1.75 1.75h4.055v5.159a1.75 1.75 0 0 0 1.75 1.75h8a1.75 1.75 0 0 0 1.75-1.75v-5.159h43.816v5.159a1.75 1.75 0 0 0 1.75 1.75h8a1.75 1.75 0 0 0 1.75-1.75v-5.159h4.055a1.75 1.75 0 0 0 1.75-1.75v-24.569a1.749 1.749 0 0 0 -1.75-1.75zm-62.871 31.478h-4.5v-3.409h4.5zm55.316 0h-4.5v-3.409h4.5zm5.8-6.909h-71.421v-21.069h34.551a1.748 1.748 0 0 0 1.576-.991 13.391 13.391 0 0 1 24.155 0 1.751 1.751 0 0 0 1.577.991h9.567z"/><path d="m76.491 49.026a10.1 10.1 0 1 0 10.1 10.1 10.114 10.114 0 0 0 -10.1-10.1zm0 16.7a6.6 6.6 0 1 1 6.6-6.6 6.609 6.609 0 0 1 -6.6 6.605z"/><path d="m36.791 57.379a4.792 4.792 0 1 0 4.792 4.791 4.8 4.8 0 0 0 -4.792-4.791zm0 6.083a1.292 1.292 0 1 1 1.292-1.292 1.293 1.293 0 0 1 -1.292 1.292z"/><path d="m50.435 57.379a4.792 4.792 0 1 0 4.791 4.791 4.8 4.8 0 0 0 -4.791-4.791zm0 6.083a1.292 1.292 0 1 1 1.291-1.292 1.293 1.293 0 0 1 -1.291 1.292z"/></g></svg>