<svg height="512" viewBox="0 0 128 128" width="512" xmlns="http://www.w3.org/2000/svg"><g><path d="m101.462 46.211h-74.924a1.75 1.75 0 0 0 -1.75 1.75v53.5a1.749 1.749 0 0 0 1.75 1.75h74.924a1.749 1.749 0 0 0 1.75-1.75v-53.5a1.75 1.75 0 0 0 -1.75-1.75zm-1.75 3.5v37.167h-71.424v-37.167zm0 50h-71.424v-9.333h71.424z"/><path d="m55.064 79.568a1.75 1.75 0 0 0 1.765-.026l16.151-9.75a1.749 1.749 0 0 0 0-3l-16.151-9.75a1.751 1.751 0 0 0 -2.655 1.5v19.5a1.749 1.749 0 0 0 .89 1.526zm2.61-17.923 11.015 6.649-11.015 6.65z"/><path d="m35.25 96.8h57.5a1.75 1.75 0 0 0 0-3.5h-57.5a1.75 1.75 0 0 0 0 3.5z"/><path d="m79.286 36.144-.719 4.193a1.75 1.75 0 0 0 2.539 1.845l3.766-1.98 3.765 1.98a1.75 1.75 0 0 0 2.539-1.845l-.718-4.193 3.042-2.969a1.751 1.751 0 0 0 -.97-2.986l-4.21-.611-1.883-3.815a1.751 1.751 0 0 0 -3.139 0l-1.878 3.815-4.21.611a1.751 1.751 0 0 0 -.97 2.986zm3.547-3.235a1.75 1.75 0 0 0 1.318-.957l.721-1.46.72 1.46a1.752 1.752 0 0 0 1.318.957l1.611.234-1.166 1.136a1.751 1.751 0 0 0 -.5 1.55l.274 1.6-1.441-.758a1.751 1.751 0 0 0 -1.629 0l-1.441.758.275-1.6a1.752 1.752 0 0 0 -.5-1.55l-1.166-1.136z"/><path d="m58.415 36.144-.715 4.193a1.75 1.75 0 0 0 2.539 1.845l3.761-1.982 3.765 1.98a1.75 1.75 0 0 0 2.535-1.843l-.719-4.193 3.047-2.969a1.751 1.751 0 0 0 -.97-2.986l-4.21-.611-1.883-3.815a1.75 1.75 0 0 0 -3.138 0l-1.883 3.815-4.21.611a1.751 1.751 0 0 0 -.97 2.986zm3.546-3.235a1.75 1.75 0 0 0 1.318-.957l.721-1.46.721 1.46a1.75 1.75 0 0 0 1.318.957l1.61.234-1.166 1.136a1.755 1.755 0 0 0 -.5 1.55l.275 1.6-1.441-.758a1.749 1.749 0 0 0 -1.628 0l-1.441.758.275-1.6a1.755 1.755 0 0 0 -.5-1.55l-1.166-1.136z"/><path d="m37.542 36.144-.718 4.193a1.75 1.75 0 0 0 2.539 1.845l3.765-1.98 3.766 1.98a1.75 1.75 0 0 0 2.539-1.845l-.719-4.193 3.046-2.969a1.751 1.751 0 0 0 -.97-2.986l-4.21-.611-1.88-3.815a1.751 1.751 0 0 0 -3.139 0l-1.883 3.815-4.21.611a1.751 1.751 0 0 0 -.97 2.986zm3.548-3.235a1.752 1.752 0 0 0 1.318-.957l.72-1.46.721 1.46a1.75 1.75 0 0 0 1.318.957l1.611.234-1.166 1.136a1.752 1.752 0 0 0 -.5 1.55l.275 1.6-1.441-.758a1.745 1.745 0 0 0 -1.629 0l-1.441.758.274-1.6a1.751 1.751 0 0 0 -.5-1.55l-1.166-1.136z"/></g></svg>