<svg height="512" viewBox="0 0 128 128" width="512" xmlns="http://www.w3.org/2000/svg"><path d="m101.463 80.316h-1.542v-39.394a9.133 9.133 0 1 0 -12.53-.833c-6.15 2.973-14.534 4.661-23.391 4.661s-17.24-1.687-23.391-4.661a9.118 9.118 0 1 0 -12.53.833v39.394h-1.542a1.75 1.75 0 0 0 -1.75 1.75v5.462a1.749 1.749 0 0 0 1.75 1.75h8.331l-2.663 11.8a1.75 1.75 0 0 0 1.707 2.136h60.176a1.75 1.75 0 0 0 1.707-2.136l-2.663-11.8h8.331a1.749 1.749 0 0 0 1.75-1.75v-5.462a1.75 1.75 0 0 0 -1.75-1.75zm-5.042 0h-4.667v-37.593a8.828 8.828 0 0 0 4.667 0zm-2.333-52.029a5.625 5.625 0 1 1 -5.625 5.625 5.632 5.632 0 0 1 5.625-5.625zm-5.834 15.269v24.107l-3.547-15.716a1.749 1.749 0 0 0 -1.707-1.364h-38a1.749 1.749 0 0 0 -1.707 1.364l-3.547 15.715v-24.106c6.553 3 15.2 4.694 24.254 4.694s17.7-1.692 24.254-4.694zm-54.342-15.269a5.625 5.625 0 1 1 -5.625 5.625 5.632 5.632 0 0 1 5.625-5.625zm-2.333 14.436a8.828 8.828 0 0 0 4.667 0v37.593h-4.667zm-3.292 41.093h11.25v1.962h-11.25zm63.613 15.897h-55.8l2.354-10.435h2.831a1.749 1.749 0 0 0 1.75-1.75v-5.462a1.75 1.75 0 0 0 -1.75-1.75h-.809l5.924-26.233h35.2l5.92 26.233h-.808a1.75 1.75 0 0 0 -1.75 1.75v5.462a1.749 1.749 0 0 0 1.75 1.75h2.83zm7.815-13.935h-11.252v-1.962h11.25z"/></svg>