<svg height="512" viewBox="0 0 128 128" width="512" xmlns="http://www.w3.org/2000/svg"><g><path d="m101.463 24.765h-74.926a1.749 1.749 0 0 0 -1.75 1.75v53.5a1.75 1.75 0 0 0 1.75 1.75h21.422v14.9a1.749 1.749 0 0 0 1.75 1.75h9.409l3.548 4.18a1.751 1.751 0 0 0 2.668 0l3.548-4.18h9.409a1.749 1.749 0 0 0 1.75-1.75v-14.9h21.422a1.75 1.75 0 0 0 1.75-1.75v-53.5a1.749 1.749 0 0 0 -1.75-1.75zm-1.75 3.5v37.166h-71.426v-37.166zm-23.172 66.651h-8.469a1.752 1.752 0 0 0 -1.334.617l-2.738 3.226-2.738-3.226a1.752 1.752 0 0 0 -1.334-.617h-8.469v-19.567h25.082zm23.172-16.65h-19.672v-2.917h12.709a1.75 1.75 0 0 0 0-3.5h-57.5a1.75 1.75 0 0 0 0 3.5h12.709v2.917h-19.672v-9.335h71.426z"/><path d="m55.063 58.122a1.75 1.75 0 0 0 1.765-.026l16.152-9.75a1.749 1.749 0 0 0 0-3l-16.152-9.746a1.748 1.748 0 0 0 -2.654 1.5v19.5a1.751 1.751 0 0 0 .889 1.522zm2.611-17.922 11.015 6.65-11.015 6.65z"/><path d="m55.75 82.417h7.167a1.75 1.75 0 0 0 0-3.5h-7.167a1.75 1.75 0 0 0 0 3.5z"/><path d="m72.25 86.083h-16.5a1.75 1.75 0 0 0 0 3.5h16.5a1.75 1.75 0 0 0 0-3.5z"/></g></svg>