<svg height="512" viewBox="0 0 128 128" width="512" xmlns="http://www.w3.org/2000/svg"><g><path d="m94.147 54.936a30.147 30.147 0 1 0 -44.147 26.687v19.84a1.75 1.75 0 0 0 2.783 1.412l11.217-8.207 11.217 8.207a1.75 1.75 0 0 0 2.783-1.412v-19.84a30.172 30.172 0 0 0 16.147-26.687zm-19.647 43.078-9.467-6.926a1.746 1.746 0 0 0 -2.066 0l-9.467 6.926v-14.821a30.112 30.112 0 0 0 21 0zm-10.5-16.431a26.648 26.648 0 1 1 26.647-26.647 26.677 26.677 0 0 1 -26.647 26.647z"/><path d="m81.046 48.119-10.694-1.555-4.783-9.69a1.749 1.749 0 0 0 -3.138 0l-4.783 9.69-10.694 1.555a1.751 1.751 0 0 0 -.97 2.985l7.739 7.542-1.823 10.654a1.75 1.75 0 0 0 2.539 1.845l9.561-5.032 9.565 5.029a1.75 1.75 0 0 0 2.535-1.842l-1.823-10.654 7.739-7.546a1.751 1.751 0 0 0 -.97-2.985zm-9.87 8.663a1.75 1.75 0 0 0 -.5 1.549l1.38 8.069-7.242-3.807a1.749 1.749 0 0 0 -1.628 0l-7.242 3.807 1.383-8.064a1.75 1.75 0 0 0 -.5-1.549l-5.857-5.71 8.092-1.177a1.751 1.751 0 0 0 1.318-.958l3.62-7.342 3.62 7.335a1.751 1.751 0 0 0 1.317.958l8.1 1.176z"/></g></svg>