<svg height="512" viewBox="0 0 128 128" width="512" xmlns="http://www.w3.org/2000/svg"><path d="m103.213 75.164a8.849 8.849 0 0 0 -7.085-8.659v-17.733a1.75 1.75 0 0 0 -2.616-1.521l-16.868 9.614h-21.227v-30.327a1.749 1.749 0 0 0 -1.75-1.75h-9.5a1.749 1.749 0 0 0 -1.75 1.75v30.327h-8.883a1.749 1.749 0 0 0 -1.75 1.75v8.6h-5.247a1.75 1.75 0 0 0 -1.75 1.75v12.4a1.75 1.75 0 0 0 1.75 1.75h5.247v8.6a1.75 1.75 0 0 0 1.75 1.75h43.11l16.868 9.613a1.75 1.75 0 0 0 2.616-1.521v-17.733a8.849 8.849 0 0 0 7.085-8.66zm-54.3-6.916a6.917 6.917 0 1 1 -6.913 6.916 6.924 6.924 0 0 1 6.917-6.916zm-3-39.96h6v36.9a10.357 10.357 0 0 0 -6 0zm-17.626 51.326v-8.9h3.5v8.9zm7-19.249h7.133v6.673a10.416 10.416 0 1 0 13 0v-6.673h19.94v29.6h-40.076zm57.341 38.179-13.771-7.844v-31.068l13.771-7.848zm3.5-18.364v-10.032a5.3 5.3 0 0 1 0 10.032z"/></svg>