<?xml version="1.0" encoding="UTF-8"?>
<svg xmlns="http://www.w3.org/2000/svg" width="512" height="512" viewBox="0 0 128 128"><g><path d="M101.462,36.25a1.749,1.749,0,0,0,1.75-1.75V26.537a1.749,1.749,0,0,0-1.75-1.75H26.538a1.749,1.749,0,0,0-1.75,1.75V34.5a1.749,1.749,0,0,0,1.75,1.75h2.731v41H26.538A1.749,1.749,0,0,0,24.788,79v22.463a1.749,1.749,0,0,0,1.75,1.75H43.75a1.75,1.75,0,0,0,1.75-1.75v-4.4h6.583v4.4a1.75,1.75,0,0,0,1.75,1.75H74.167a1.75,1.75,0,0,0,1.75-1.75v-4.4H82.5v4.4a1.75,1.75,0,0,0,1.75,1.75h17.212a1.749,1.749,0,0,0,1.75-1.75V79a1.749,1.749,0,0,0-1.75-1.75H98.731v-41ZM28.288,28.287H99.712V32.75H28.288ZM86.981,70.339H41.019V36.25H43.28a5.646,5.646,0,1,0,10.44,0h5.06a5.646,5.646,0,1,0,10.44,0h5.06a5.646,5.646,0,1,0,10.44,0h2.261ZM50.646,38.4A2.146,2.146,0,1,1,48.5,36.25,2.148,2.148,0,0,1,50.646,38.4Zm15.5,0A2.146,2.146,0,1,1,64,36.25,2.148,2.148,0,0,1,66.146,38.4Zm15.5,0A2.146,2.146,0,1,1,79.5,36.25,2.148,2.148,0,0,1,81.646,38.4ZM32.769,36.25h4.75v41h-4.75ZM28.288,99.713V80.75H42V99.713Zm44.129,0H55.583v-8.8H72.417Zm3.5-6.149v-4.4a1.75,1.75,0,0,0-1.75-1.75H53.833a1.75,1.75,0,0,0-1.75,1.75v4.4H45.5V79a1.75,1.75,0,0,0-1.75-1.75H41.019V73.839H86.981V77.25H84.25A1.75,1.75,0,0,0,82.5,79V93.564Zm23.8,6.149H86V80.75H99.712ZM95.231,77.25h-4.75v-41h4.75Z"/><path d="M35.144,82.491a5.092,5.092,0,1,0,5.091,5.092A5.1,5.1,0,0,0,35.144,82.491Zm0,6.683a1.592,1.592,0,1,1,1.591-1.591A1.593,1.593,0,0,1,35.144,89.174Z"/><circle cx="35.144" cy="96.19" r="1.407"/><path d="M92.856,82.491a5.092,5.092,0,1,0,5.092,5.092A5.1,5.1,0,0,0,92.856,82.491Zm0,6.683a1.592,1.592,0,1,1,1.592-1.591A1.593,1.593,0,0,1,92.856,89.174Z"/><circle cx="92.856" cy="96.19" r="1.407"/></g></svg>
