<svg height="512" viewBox="0 0 128 128" width="512" xmlns="http://www.w3.org/2000/svg"><g><path d="m93.9 36.634-11.329-11.334a1.751 1.751 0 0 0 -1.238-.513h-46a1.75 1.75 0 0 0 -1.75 1.75v74.926a1.75 1.75 0 0 0 1.75 1.75h57.334a1.75 1.75 0 0 0 1.75-1.75v-63.592a1.75 1.75 0 0 0 -.517-1.237zm-10.817-5.872 5.359 5.359h-5.359zm-46 68.951v-71.426h42.5v9.584a1.75 1.75 0 0 0 1.75 1.75h9.584v60.092z"/><path d="m59.626 43.5h-15a1.75 1.75 0 0 0 -1.75 1.75v15a1.75 1.75 0 0 0 1.75 1.75h15a1.749 1.749 0 0 0 1.75-1.75v-15a1.749 1.749 0 0 0 -1.75-1.75zm-1.75 15h-11.5v-11.5h11.5z"/><path d="m83.374 43.5h-15a1.749 1.749 0 0 0 -1.75 1.75v15a1.749 1.749 0 0 0 1.75 1.75h15a1.75 1.75 0 0 0 1.75-1.75v-15a1.75 1.75 0 0 0 -1.75-1.75zm-1.75 15h-11.5v-11.5h11.5z"/><path d="m59.626 72.5h-15a1.75 1.75 0 0 0 -1.75 1.75v15a1.75 1.75 0 0 0 1.75 1.75h15a1.749 1.749 0 0 0 1.75-1.75v-15a1.749 1.749 0 0 0 -1.75-1.75zm-1.75 15h-11.5v-11.5h11.5z"/><path d="m83.374 72.5h-15a1.749 1.749 0 0 0 -1.75 1.75v15a1.749 1.749 0 0 0 1.75 1.75h15a1.75 1.75 0 0 0 1.75-1.75v-15a1.75 1.75 0 0 0 -1.75-1.75zm-1.75 15h-11.5v-11.5h11.5z"/><path d="m44.626 68h7.5a1.75 1.75 0 1 0 0-3.5h-7.5a1.75 1.75 0 0 0 0 3.5z"/><path d="m68.374 68h7.5a1.75 1.75 0 0 0 0-3.5h-7.5a1.75 1.75 0 0 0 0 3.5z"/><path d="m52.126 93.375h-7.5a1.75 1.75 0 0 0 0 3.5h7.5a1.75 1.75 0 1 0 0-3.5z"/><path d="m75.874 93.375h-7.5a1.75 1.75 0 0 0 0 3.5h7.5a1.75 1.75 0 0 0 0-3.5z"/></g></svg>