<svg height="512" viewBox="0 0 128 128" width="512" xmlns="http://www.w3.org/2000/svg"><path d="m101.462 32.75h-27.2l12.985-4.562a1.75 1.75 0 0 0 -1.161-3.3l-21.886 7.687-12.461-7.535a1.75 1.75 0 1 0 -1.811 2.994l7.8 4.716h-31.19a1.749 1.749 0 0 0 -1.75 1.75v56.463a1.749 1.749 0 0 0 1.75 1.75h27.212v7h-3a1.75 1.75 0 0 0 0 3.5h26.5a1.75 1.75 0 0 0 0-3.5h-3v-7h27.212a1.749 1.749 0 0 0 1.75-1.75v-56.463a1.749 1.749 0 0 0 -1.75-1.75zm-73.174 12.3h71.424v35.367h-71.424zm71.424-8.8v5.3h-71.424v-5.3zm-28.962 63.463h-13.5v-7h13.5zm-42.462-10.5v-5.3h71.424v5.3z"/></svg>