<svg height="512" viewBox="0 0 128 128" width="512" xmlns="http://www.w3.org/2000/svg"><path d="m97.18 40.417h4.283a1.75 1.75 0 0 0 1.75-1.75v-12.129a1.749 1.749 0 0 0 -1.75-1.75h-74.926a1.749 1.749 0 0 0 -1.75 1.75v12.129a1.75 1.75 0 0 0 1.75 1.75h4.283a12.294 12.294 0 0 0 6.368 9.083v22.25h-3.223a1.75 1.75 0 0 0 -1.75 1.75v4.75h-5.678a1.75 1.75 0 0 0 -1.75 1.75v21.462a1.749 1.749 0 0 0 1.75 1.75h74.926a1.749 1.749 0 0 0 1.75-1.75v-21.462a1.75 1.75 0 0 0 -1.75-1.75h-5.678v-4.75a1.75 1.75 0 0 0 -1.75-1.75h-3.223v-22.25a12.294 12.294 0 0 0 6.368-9.083zm-12.133 7.023a8.786 8.786 0 0 1 -8.6-7.023h17.196a8.786 8.786 0 0 1 -8.596 7.023zm-56.76-19.152h71.426v8.629h-71.426zm44.313 12.129a8.773 8.773 0 0 1 -17.194 0zm-38.24 0h17.19a8.773 8.773 0 0 1 -17.193 0zm65.356 59.3h-71.429v-17.967h71.426zm-7.431-21.467h-56.57v-3h56.57zm-23.868-6.5h-8.834v-6.869a4.417 4.417 0 0 1 8.834 0zm18.895 0h-15.395v-6.869a7.917 7.917 0 0 0 -15.834 0v6.869h-15.395v-21.028a12.187 12.187 0 0 0 12.789-5.772 12.238 12.238 0 0 0 21.046 0 12.187 12.187 0 0 0 12.789 5.772z"/></svg>