<svg height="512" viewBox="0 0 128 128" width="512" xmlns="http://www.w3.org/2000/svg"><path d="m84.71 26.45h-8.61a5.373 5.373 0 0 0 -5.067 3.633h-3.689v-3.545a1.749 1.749 0 0 0 -1.75-1.75h-23.25a1.749 1.749 0 0 0 -1.75 1.75v8.311a7.658 7.658 0 0 0 5.9 7.441v6.53c0 .027.006.052.008.079l-8.574 52.28a1.75 1.75 0 0 0 1.444 2.01 1.731 1.731 0 0 0 .285.024 1.75 1.75 0 0 0 1.725-1.467l8.393-51.176h2.444v41.43a1.75 1.75 0 0 0 3.5 0v-41.43h2.443l8.393 51.176a1.749 1.749 0 0 0 1.724 1.467 1.722 1.722 0 0 0 .285-.024 1.748 1.748 0 0 0 1.444-2.01l-8.573-52.279c0-.027.008-.052.008-.079v-6.531a7.658 7.658 0 0 0 5.9-7.441v-1.266h3.692a5.374 5.374 0 0 0 5.065 3.634h8.61a5.384 5.384 0 1 0 0-10.767zm-34.71 20.62v-4.57h7.948v4.57zm13.844-12.221a4.156 4.156 0 0 1 -4.151 4.151h-11.448a4.156 4.156 0 0 1 -4.151-4.151v-6.561h19.75v1.795h-9.875a1.75 1.75 0 1 0 0 3.5h9.875zm20.866-1.132h-8.61a1.884 1.884 0 1 1 0-3.767h8.61a1.884 1.884 0 1 1 0 3.767z"/></svg>