<svg height="512" viewBox="0 0 128 128" width="512" xmlns="http://www.w3.org/2000/svg"><g><path d="m100.5 33.047a1.748 1.748 0 0 0 -1.808.11l-8.674 6v-7.869a1.75 1.75 0 0 0 -1.75-1.75h-23.2l-6.3-4.432a1.755 1.755 0 0 0 -1.008-.318h-20.298a1.75 1.75 0 0 0 -1.75 1.75v4.25h-7.4a1.75 1.75 0 0 0 -1.75 1.75v9.152a1.751 1.751 0 0 0 1.75 1.75h7.4v19.1a1.751 1.751 0 0 0 1.75 1.75h14.888v6.46a1.751 1.751 0 0 0 1.75 1.75h.727l-10.313 28.364a1.75 1.75 0 1 0 3.289 1.2l10.748-29.564h2.566v28.962a1.75 1.75 0 1 0 3.5 0v-28.962h2.566l10.748 29.561a1.75 1.75 0 0 0 3.289-1.2l-10.313-28.361h.727a1.751 1.751 0 0 0 1.75-1.75v-6.462h14.888a1.751 1.751 0 0 0 1.75-1.75v-9.177l8.674 6a1.75 1.75 0 0 0 2.745-1.439v-23.322a1.75 1.75 0 0 0 -.941-1.553zm-70.441 6.893v-5.652h5.653v5.652zm39.825 29.06h-14.034v-4.712h14.034zm-30.672-8.212v-32.5h18l6.3 4.431a1.755 1.755 0 0 0 1.007.319h22v9.47 7.462.073 10.745zm58.729-6.208-7.919-5.473v-5.7l7.919-5.472z"/><path d="m79.522 38.288h-14.75a1.75 1.75 0 0 0 -1.75 1.75v8.125a1.751 1.751 0 0 0 1.75 1.75h14.75a1.751 1.751 0 0 0 1.75-1.75v-8.125a1.75 1.75 0 0 0 -1.75-1.75zm-1.75 8.125h-11.25v-4.625h11.25z"/></g></svg>