<svg height="512" viewBox="0 0 128 128" width="512" xmlns="http://www.w3.org/2000/svg"><g><path d="m102.812 62.885a71.124 71.124 0 0 0 -11.273-10.432c-9.176-6.866-18.7-10.5-27.539-10.5s-18.363 3.629-27.539 10.5a71.124 71.124 0 0 0 -11.273 10.432 1.752 1.752 0 0 0 0 2.23 71.124 71.124 0 0 0 11.273 10.432c9.176 6.866 18.7 10.5 27.539 10.5s18.363-3.629 27.539-10.5a71.124 71.124 0 0 0 11.273-10.432 1.75 1.75 0 0 0 0-2.23zm-38.812 19.657c-16.853 0-31.3-14.381-35.125-18.542 3.825-4.166 18.246-18.542 35.125-18.542 16.853 0 31.3 14.379 35.124 18.542-3.824 4.163-18.271 18.542-35.124 18.542z"/><path d="m64 47.63a16.37 16.37 0 1 0 16.37 16.37 16.389 16.389 0 0 0 -16.37-16.37zm0 29.24a12.87 12.87 0 1 1 12.87-12.87 12.884 12.884 0 0 1 -12.87 12.87z"/><path d="m64 54.359a9.653 9.653 0 0 0 -9.641 9.641 1.75 1.75 0 0 0 3.5 0 6.148 6.148 0 0 1 6.141-6.141 1.75 1.75 0 0 0 0-3.5z"/><path d="m64 35.083a1.75 1.75 0 0 0 1.75-1.75v-6.8a1.75 1.75 0 0 0 -3.5 0v6.8a1.75 1.75 0 0 0 1.75 1.75z"/><path d="m85.685 44.065a1.742 1.742 0 0 0 1.237-.512l4.806-4.806a1.75 1.75 0 0 0 -2.475-2.475l-4.806 4.806a1.75 1.75 0 0 0 1.238 2.987z"/><path d="m86.922 84.447a1.75 1.75 0 0 0 -2.475 2.475l4.806 4.806a1.75 1.75 0 0 0 2.475-2.475z"/><path d="m64 92.917a1.75 1.75 0 0 0 -1.75 1.75v6.8a1.75 1.75 0 0 0 3.5 0v-6.8a1.75 1.75 0 0 0 -1.75-1.75z"/><path d="m41.078 84.447-4.806 4.806a1.75 1.75 0 0 0 2.475 2.475l4.806-4.806a1.75 1.75 0 0 0 -2.475-2.475z"/><path d="m41.078 43.553a1.75 1.75 0 0 0 2.475-2.475l-4.806-4.806a1.75 1.75 0 0 0 -2.475 2.475z"/></g></svg>