<?xml version="1.0" encoding="UTF-8"?><svg id="Layer_1" xmlns="http://www.w3.org/2000/svg" viewBox="0 0 773.78 700"><defs><style>.cls-1{fill:#001589;}.cls-2{fill:none;}.cls-2,.cls-3{stroke:#fff;stroke-miterlimit:10;stroke-width:10px;}.cls-3{fill:#fff;}</style></defs><rect class="cls-1" width="773.78" height="700" rx="92.74" ry="92.74"/><path class="cls-2" d="M449.12,259.17c2.45,2.72,4.14,6.09,4.61,9.81.08.65.1,1.3.1,1.95v205.55c0,1.04-.05,2.07-.25,3.09-1.4,7.41-7.65,13.65-15.04,15.04-1.02.19-2.05.24-3.09.24H162.95c-.61,0-1.22,0-1.82-.08-6.79-.86-12.91-6.83-15.27-13.43-.7-1.96-.99-4.05-.99-6.14v-203.04c0-1.14.07-2.29.3-3.41,1.49-7.55,7.33-14.26,14.93-15.72,1.04-.2,2.1-.25,3.15-.25l271.64.24c5.38,0,10.62,2.14,14.22,6.14ZM250.94,418.27c33.82,35.16,93.53,23.82,111.49-21.41,16.98-42.78-11.42-90.33-57.18-94.5-62.29-5.67-97.39,71.12-54.31,115.91Z"/><path class="cls-2" d="M211.25,252.79v-63.16c0-3,2.43-5.42,5.42-5.42h165.37c3,0,5.42,2.43,5.42,5.42v63.16h-18.63v-37.58c0-2.98-2.41-5.41-5.39-5.42l-128.1-.81c-3.01-.02-5.46,2.42-5.46,5.42v38.39h-18.64Z"/><rect class="cls-2" x="544.73" y="302.82" width="45.55" height="134.21"/><rect class="cls-2" x="606.18" y="302.82" width="47.49" height="134.21"/><path class="cls-2" d="M454.17,320.64c1.46-3.1,37.98-14.79,44.21-17.82h30.45v134.21h-30.45s-42.43-15.78-42.43-15.78l-2.12-2.61s.34-97.88.34-97.99Z"/><path class="cls-2" d="M544.73,437.03v3.26c0,1.48-1.33,2.68-2.96,2.68h-9.97c-1.64,0-2.96-1.2-2.96-2.68v-3.26"/><path class="cls-2" d="M528.83,302.82v-1.62c0-1.48,1.33-2.68,2.96-2.68h9.97c1.64,0,2.96,1.2,2.96,2.68v1.62"/><path class="cls-2" d="M590.28,302.82v-2.44c0-1.48,1.33-2.68,2.96-2.68h9.97c1.64,0,2.96,1.2,2.96,2.68v2.44"/><path class="cls-2" d="M606.18,437.03v2.44c0,1.48-1.33,2.68-2.96,2.68h-9.97c-1.64,0-2.96-1.2-2.96-2.68v-2.44"/><polygon class="cls-3" points="301.2 364.66 316.85 364.66 292.63 403.1 298.97 375.14 280.34 375.14 307.54 336 301.2 364.66"/><rect class="cls-2" x="123.76" y="275.98" width="21.12" height="195.68" rx="6.58" ry="6.58" transform="translate(268.64 747.65) rotate(180)"/><rect class="cls-2" x="107.07" y="332.09" width="16.69" height="53.99" transform="translate(230.83 718.17) rotate(180)"/><rect class="cls-2" x="107.07" y="444.9" width="16.69" height="16.69" transform="translate(230.83 906.49) rotate(-180)"/><circle class="cls-2" cx="404.56" cy="449.74" r="12.7"/><path class="cls-2" d="M175.21,207.99h0c5.04,0,9.13,4.09,9.13,9.13v30.62c0,2.79-2.27,5.05-5.05,5.05h-8.15c-2.79,0-5.05-2.27-5.05-5.05v-30.62c0-5.04,4.09-9.13,9.13-9.13Z"/></svg>