<svg id="Layer_1" enable-background="new 0 0 68 68" height="512" viewBox="0 0 68 68" width="512" xmlns="http://www.w3.org/2000/svg"><g id="_x36_0"><g><g><path d="m61.4 24.8c-.4 2.4-2.1 4-4.4 5.1l-46.2 29.5c-4.7-.6-7.6-2.1-8.6-4.2-.2-.5 0-1.1.6-1.3 2.5-.9 4.9-2.4 6.3-5.2-3.7-1.6-5.7-3.5-6.5-5.6-.2-.6.2-1.3.8-1.3 3.6-.3 5.9-5.6 5.9-5.6-3.6-1.7-5.7-3.5-6.2-5.2-.1-.4.2-.8.6-.8 2.7.2 4.9-.9 6.2-4.4 1.7-4.4 5.1-7.1 9.8-6.7-.3-3.6-.1-6.7 1.2-8.7.3-.5 1-.5 1.4-.2 1.9 1.5 4.1 1.3 6.6-.7 9.2-7.4 22.4-3.9 24.6 9.1 1.3 3.3 3.7 5.1 7.2 5.4.4.1.7.4.7.8z" fill="#b28afd"/></g><g><path d="m10.8 59.4s-4.3-33.3 20-37.9-4 23.5-4 23.5z" fill="#7e5af2"/></g><g><path d="m60.8 10.6c-.5 1.1 1.8-4-4.7 10.8l-2.1 4.6-9.2-5.7 4.9-3.7 4.4-3.3 5.1-3.8c.8-.7 2 .2 1.6 1.1z" fill="#ffd06c"/></g><g><path d="m64.4 38.8-9.4 9.4-3.9-2.3c-1.2-.7-2.6-1-4-1-2.1 0-4.1-.5-6.1-1.3-.9 2.9.7 5.8 2.3 9 .7 1.5 1.9 5 2.7 7.4.4 1.1-.4 2.3-1.6 2.3h-31.9c-1 0-1.8-.8-1.7-1.8 1.3-26 14.5-35.9 19.6-38.8 1.2-.7 2.1-1.7 2.5-3 1.6-5.1 5.1-7.1 7.1-7.9.7-.3 1.4.3 1.4 1v6.3l.6-.1c4.6.9 8.9 3.3 12.1 6.7.3.4.6.7.9 1.1z" fill="#e9e7fc"/></g><g><path d="m44.2 62.2h-6l.1-.2c-.3-8.6-2.4-12.3-3.1-15.8-.5-2.5-.7-4.6-.5-6.2.1-.5.7-.6 1-.3 1.1 1.3 3.1 3.5 5.2 3.8-.9 2.9.7 5.7 2.3 9 .7 1.5 1.9 5 2.7 7.4.4 1.1-.5 2.3-1.7 2.3z" fill="#cccff2"/></g><g><path d="m65.9 43c0 1.5-.5 2.9-1.4 4.2-2.2 2.7-6.1 3.3-9 1.4l-.5-.3h-.1l9.4-9.4.2.3c1 1.1 1.4 2.4 1.4 3.8z" fill="#b28afd"/></g><g><path d="m51.9 29.9c0 1.4-1.1 2.5-2.5 2.5s-2.5-1.1-2.5-2.5 1.1-2.5 2.5-2.5 2.5 1.2 2.5 2.5z" fill="#1d2943"/></g><g><path d="m49.8 29.5c0 .4-.3.8-.8.8s-.8-.3-.8-.8.3-.8.8-.8.8.4.8.8z" fill="#f3f1fc"/></g><g><path d="m58.2 16.4-2.2 5-6.2-4.8 4.3-3.4z" fill="#febc1f"/></g><g><path d="m11.9 26.9c.4-1.8 1.2-3.6 2.7-4.6s3.5-1.3 5.3-1.1c-1.7.6-3.4 1-4.7 1.9-1.4.9-2.2 2.4-3.3 3.8z" fill="#fff"/></g><g><path d="m27.7 60.3c-2.5.4-5 .5-7.5.5-2.3 0-5.1-.1-7.5-.5 2.4-.4 5.1-.5 7.5-.5 2.5 0 5 .1 7.5.5z" fill="#fff"/></g><g><path d="m44.6 21.5c2.4.3 5.3 2.3 6.4 4.5-1.5-.9-4.9-3.2-6.4-4.5z" fill="#fff"/></g></g><g><path d="m59.5 11.5c-.1 1.1-.8 2.5-1.5 3.4.1-1.1.8-2.5 1.5-3.4z" fill="#fff"/></g></g></svg>